<?xml version="1.0" encoding="UTF-8" ?>
<!DOCTYPE svg PUBLIC "-//W3C//DTD SVG 1.1//EN" "http://www.w3.org/Graphics/SVG/1.1/DTD/svg11.dtd">
<svg width="234pt" height="64pt" viewBox="0 0 234 64" version="1.1" xmlns="http://www.w3.org/2000/svg">
<path fill="#ffffff" stroke="#ffffff" stroke-width="0.09375" opacity="1.00" d=" M 0.00 0.00 L 234.00 0.00 L 234.00 64.00 L 0.00 64.00 L 0.00 0.00 M 17.42 19.69 C 11.44 21.52 7.42 27.86 8.36 34.05 C 8.98 43.11 20.37 49.01 28.19 44.42 C 36.50 40.60 38.07 27.81 30.77 22.23 C 27.14 19.05 21.96 18.38 17.42 19.69 M 50.17 19.16 C 40.85 20.82 36.25 33.36 42.35 40.58 C 46.52 46.34 55.16 47.77 61.09 44.02 C 64.29 42.23 66.38 38.94 67.38 35.48 C 68.66 29.96 66.14 23.55 61.00 20.92 C 57.88 18.61 53.83 18.80 50.17 19.16 M 80.36 19.47 C 71.20 22.20 67.78 35.43 75.07 41.87 C 78.67 46.05 84.58 46.88 89.69 45.59 C 94.39 43.99 97.87 39.78 98.96 34.99 C 99.87 29.49 97.41 23.30 92.33 20.68 C 88.90 18.22 84.24 18.70 80.36 19.47 M 112.35 19.21 C 105.61 21.02 101.05 28.57 102.79 35.33 C 103.62 40.45 108.13 44.31 112.86 45.87 C 116.49 46.00 120.49 46.68 123.77 44.70 C 130.12 41.63 132.93 33.27 129.99 26.91 C 128.65 22.95 124.92 20.51 121.18 19.11 C 118.25 18.94 115.26 18.78 112.35 19.21 M 144.47 19.13 C 140.12 20.36 136.67 23.77 135.20 28.02 C 131.51 36.58 139.87 47.21 149.01 46.05 C 156.84 46.61 163.53 38.64 162.42 31.04 C 162.15 25.22 157.50 20.46 152.06 19.06 C 149.53 18.94 146.98 18.85 144.47 19.13 M 175.30 19.39 C 169.36 21.44 164.91 27.69 165.75 34.03 C 166.29 39.40 170.71 43.54 175.43 45.57 C 180.05 46.48 185.42 46.41 189.16 43.11 C 196.02 37.73 195.70 25.63 188.07 21.12 C 184.46 18.30 179.53 18.66 175.30 19.39 M 207.41 19.47 C 201.00 21.55 196.41 28.77 198.28 35.41 C 198.69 38.46 200.74 40.95 203.07 42.82 C 207.87 47.37 216.04 47.02 220.91 42.74 C 227.49 37.22 226.91 25.16 219.12 21.01 C 215.78 18.52 211.28 18.58 207.41 19.47 Z" />
<path fill="#0a0200" stroke="#0a0200" stroke-width="0.09375" opacity="1.00" d=" M 17.42 19.69 C 21.96 18.38 27.14 19.05 30.77 22.23 C 38.07 27.81 36.50 40.60 28.19 44.42 C 20.37 49.01 8.98 43.11 8.36 34.05 C 7.42 27.86 11.44 21.52 17.42 19.69 M 18.32 23.36 C 14.46 24.51 12.41 28.43 11.66 32.12 C 12.02 37.36 16.38 42.49 21.94 42.28 C 27.93 42.48 32.86 36.23 31.43 30.46 C 30.39 24.69 23.75 21.03 18.32 23.36 Z" />
<path fill="#0a0200" stroke="#0a0200" stroke-width="0.09375" opacity="1.00" d=" M 50.17 19.16 C 53.83 18.80 57.88 18.61 61.00 20.92 C 66.14 23.55 68.66 29.96 67.38 35.48 C 66.38 38.94 64.29 42.23 61.09 44.02 C 55.16 47.77 46.52 46.34 42.35 40.58 C 36.25 33.36 40.85 20.82 50.17 19.16 M 50.37 23.44 C 45.86 25.00 43.34 30.34 44.60 34.88 C 45.71 39.72 51.02 43.25 55.90 41.81 C 60.05 40.81 62.41 36.78 63.39 32.92 C 63.06 26.72 56.69 20.76 50.37 23.44 Z" />
<path fill="#0a0200" stroke="#0a0200" stroke-width="0.09375" opacity="1.00" d=" M 80.36 19.47 C 84.24 18.70 88.90 18.22 92.33 20.68 C 97.41 23.30 99.87 29.49 98.96 34.99 C 97.87 39.78 94.39 43.99 89.69 45.59 C 84.58 46.88 78.67 46.05 75.07 41.87 C 67.78 35.43 71.20 22.20 80.36 19.47 M 82.37 23.42 C 78.24 24.57 75.59 28.74 75.52 32.90 C 76.09 36.71 78.53 40.33 82.31 41.51 C 87.17 43.47 92.85 39.98 94.15 35.10 C 96.55 28.49 89.12 20.67 82.37 23.42 Z" />
<path fill="#0a0200" stroke="#0a0200" stroke-width="0.09375" opacity="1.00" d=" M 112.35 19.21 C 115.26 18.78 118.25 18.94 121.18 19.11 C 124.92 20.51 128.65 22.95 129.99 26.91 C 132.93 33.27 130.12 41.63 123.77 44.70 C 120.49 46.68 116.49 46.00 112.86 45.87 C 108.13 44.31 103.62 40.45 102.79 35.33 C 101.05 28.57 105.61 21.02 112.35 19.21 M 114.33 23.46 C 111.59 24.41 109.23 26.56 108.27 29.32 C 105.64 35.34 111.62 42.63 117.95 41.96 C 122.62 41.16 125.84 36.66 126.07 32.09 C 125.40 26.75 119.98 21.19 114.33 23.46 Z" />
<path fill="#0a0200" stroke="#0a0200" stroke-width="0.09375" opacity="1.00" d=" M 144.47 19.13 C 146.98 18.85 149.53 18.94 152.06 19.06 C 157.50 20.46 162.15 25.22 162.42 31.04 C 163.53 38.64 156.84 46.61 149.01 46.05 C 139.87 47.21 131.51 36.58 135.20 28.02 C 136.67 23.77 140.12 20.36 144.47 19.13 M 146.33 23.26 C 141.66 24.37 138.26 29.17 139.35 33.97 C 139.84 39.78 147.01 43.85 152.21 41.16 C 155.48 39.74 157.45 36.33 157.96 32.91 C 158.02 27.17 152.24 21.36 146.33 23.26 Z" />
<path fill="#0a0200" stroke="#0a0200" stroke-width="0.09375" opacity="1.00" d=" M 175.30 19.39 C 179.53 18.66 184.46 18.30 188.07 21.12 C 195.70 25.63 196.02 37.73 189.16 43.11 C 185.42 46.41 180.05 46.48 175.43 45.57 C 170.71 43.54 166.29 39.40 165.75 34.03 C 164.91 27.69 169.36 21.44 175.30 19.39 M 176.65 23.67 C 169.48 26.06 168.75 37.09 175.37 40.57 C 180.67 44.47 188.65 40.10 188.92 33.73 C 190.75 34.46 190.77 30.60 188.94 31.31 C 188.60 25.58 182.05 20.90 176.65 23.67 Z" />
<path fill="#0a0200" stroke="#0a0200" stroke-width="0.09375" opacity="1.00" d=" M 207.41 19.47 C 211.28 18.58 215.78 18.52 219.12 21.01 C 226.91 25.16 227.49 37.22 220.91 42.74 C 216.04 47.02 207.87 47.37 203.07 42.82 C 200.74 40.95 198.69 38.46 198.28 35.41 C 196.41 28.77 201.00 21.55 207.41 19.47 M 208.36 23.47 C 201.77 25.27 200.15 34.67 204.77 39.22 C 207.41 41.67 211.36 42.89 214.84 41.63 C 219.82 40.16 222.87 33.91 220.72 29.15 C 219.17 24.16 213.18 21.41 208.36 23.47 Z" />
<path fill="#006003" stroke="#006003" stroke-width="0.09375" opacity="1.00" d=" M 18.32 23.36 C 23.75 21.03 30.39 24.69 31.43 30.46 C 32.86 36.23 27.93 42.48 21.94 42.28 C 16.38 42.49 12.02 37.36 11.66 32.12 C 12.41 28.43 14.46 24.51 18.32 23.36 Z" />
<path fill="#006003" stroke="#006003" stroke-width="0.09375" opacity="1.00" d=" M 50.37 23.44 C 56.69 20.76 63.06 26.72 63.39 32.92 C 62.41 36.78 60.05 40.81 55.90 41.81 C 51.02 43.25 45.71 39.72 44.60 34.88 C 43.34 30.34 45.86 25.00 50.37 23.44 Z" />
<path fill="#006003" stroke="#006003" stroke-width="0.09375" opacity="1.00" d=" M 82.37 23.42 C 89.12 20.67 96.55 28.49 94.15 35.10 C 92.85 39.98 87.17 43.47 82.31 41.51 C 78.53 40.33 76.09 36.71 75.52 32.90 C 75.59 28.74 78.24 24.57 82.37 23.42 Z" />
<path fill="#006003" stroke="#006003" stroke-width="0.09375" opacity="1.00" d=" M 114.33 23.46 C 119.98 21.19 125.40 26.75 126.07 32.09 C 125.84 36.66 122.62 41.16 117.95 41.96 C 111.62 42.63 105.64 35.34 108.27 29.32 C 109.23 26.56 111.59 24.41 114.33 23.46 Z" />
<path fill="#006003" stroke="#006003" stroke-width="0.09375" opacity="1.00" d=" M 146.33 23.26 C 152.24 21.36 158.02 27.17 157.96 32.91 C 157.45 36.33 155.48 39.74 152.21 41.16 C 147.01 43.85 139.84 39.78 139.35 33.97 C 138.26 29.17 141.66 24.37 146.33 23.26 Z" />
<path fill="#006003" stroke="#006003" stroke-width="0.09375" opacity="1.00" d=" M 176.65 23.67 C 182.05 20.90 188.60 25.58 188.94 31.31 C 188.93 31.91 188.93 33.12 188.92 33.73 C 188.65 40.10 180.67 44.47 175.37 40.57 C 168.75 37.09 169.48 26.06 176.65 23.67 Z" />
<path fill="#ffffff" stroke="#ffffff" stroke-width="0.09375" opacity="1.00" d=" M 208.36 23.47 C 213.18 21.41 219.17 24.16 220.72 29.15 C 222.87 33.91 219.82 40.16 214.84 41.63 C 211.36 42.89 207.41 41.67 204.77 39.22 C 200.15 34.67 201.77 25.27 208.36 23.47 Z" />
<path fill="#48403f" stroke="#48403f" stroke-width="0.09375" opacity="1.00" d=" M 188.94 31.31 C 190.77 30.60 190.75 34.46 188.92 33.73 C 188.93 33.12 188.93 31.91 188.94 31.31 Z" />
</svg>
