<?xml version="1.0" encoding="UTF-8" ?>
<!DOCTYPE svg PUBLIC "-//W3C//DTD SVG 1.1//EN" "http://www.w3.org/Graphics/SVG/1.1/DTD/svg11.dtd">
<svg width="234pt" height="64pt" viewBox="0 0 234 64" version="1.1" xmlns="http://www.w3.org/2000/svg">
<path fill="#ffffff" stroke="#ffffff" stroke-width="0.09375" opacity="1.00" d=" M 0.00 0.00 L 234.00 0.00 L 234.00 64.00 L 0.00 64.00 L 0.00 0.00 M 9.74 26.67 C 9.41 27.78 9.05 28.88 8.64 29.96 C 8.57 31.65 8.59 33.34 8.72 35.03 C 9.07 36.07 9.38 37.12 9.66 38.19 C 12.14 42.09 16.08 45.77 21.00 45.64 C 25.62 46.14 30.38 43.84 32.88 39.93 C 33.34 39.01 33.80 38.09 34.27 37.18 C 34.56 36.14 34.87 35.11 35.21 34.09 C 35.22 33.28 35.23 31.67 35.24 30.87 C 34.22 24.62 28.68 18.83 22.04 19.38 C 16.82 18.83 12.09 22.20 9.74 26.67 M 46.69 20.77 C 39.56 24.47 37.36 35.17 43.06 41.05 C 47.67 46.90 57.12 47.45 62.67 42.67 C 65.12 40.76 66.16 37.76 67.35 35.01 C 67.45 33.03 67.45 31.04 67.02 29.10 C 64.96 20.56 54.13 16.40 46.69 20.77 M 81.34 19.29 C 74.41 21.13 69.75 28.92 71.77 35.87 C 73.75 43.82 83.47 48.46 90.90 44.90 C 97.46 42.03 100.87 33.61 97.83 27.05 C 95.22 20.77 87.81 17.58 81.34 19.29 M 113.06 19.17 C 108.89 20.32 105.22 23.28 103.66 27.38 C 101.20 32.80 103.15 39.57 107.96 43.01 C 111.40 46.35 116.50 46.38 120.94 45.69 C 128.56 43.69 133.42 34.37 129.88 27.13 C 127.37 20.53 119.65 17.67 113.06 19.17 M 143.55 19.64 C 138.15 21.66 134.37 27.30 134.50 33.03 C 134.72 38.77 139.19 43.54 144.32 45.58 C 148.68 46.52 153.65 46.21 157.18 43.18 C 163.84 38.10 164.04 26.78 157.17 21.80 C 153.44 18.61 148.06 18.25 143.55 19.64 M 168.66 24.54 C 165.64 28.04 166.12 32.89 166.57 37.15 C 169.24 41.95 174.05 46.50 179.97 45.82 C 189.44 46.98 197.10 35.49 192.80 27.11 C 189.17 17.42 174.34 16.08 168.66 24.54 M 198.61 28.73 C 198.11 32.88 198.09 37.62 201.28 40.79 C 205.37 46.37 213.93 47.49 219.50 43.55 C 222.42 41.62 224.07 38.27 225.00 34.99 C 226.70 27.28 220.08 18.58 211.96 19.15 C 205.83 18.58 200.55 23.18 198.61 28.73 Z" />
<path fill="#0a0200" stroke="#0a0200" stroke-width="0.09375" opacity="1.00" d=" M 9.74 26.67 C 12.09 22.20 16.82 18.83 22.04 19.38 C 28.68 18.83 34.22 24.62 35.24 30.87 C 35.23 31.67 35.22 33.28 35.21 34.09 C 34.87 35.11 34.56 36.14 34.27 37.18 C 33.80 38.09 33.34 39.01 32.88 39.93 C 30.38 43.84 25.62 46.14 21.00 45.64 C 16.08 45.77 12.14 42.09 9.66 38.19 C 9.38 37.12 9.07 36.07 8.72 35.03 C 8.59 33.34 8.57 31.65 8.64 29.96 C 9.05 28.88 9.41 27.78 9.74 26.67 M 16.31 23.76 C 14.27 25.43 12.63 27.51 11.91 30.07 C 11.52 31.68 11.51 33.34 11.94 34.95 C 13.49 40.66 20.42 44.33 25.89 41.65 C 29.56 40.32 31.29 36.59 32.31 33.10 C 32.29 32.80 32.27 32.18 32.26 31.88 C 31.49 27.77 28.78 24.50 25.13 22.59 C 22.12 22.35 19.11 22.57 16.31 23.76 Z" />
<path fill="#0a0200" stroke="#0a0200" stroke-width="0.09375" opacity="1.00" d=" M 46.69 20.77 C 54.13 16.40 64.96 20.56 67.02 29.10 C 67.45 31.04 67.45 33.03 67.35 35.01 C 66.16 37.76 65.12 40.76 62.67 42.67 C 57.12 47.45 47.67 46.90 43.06 41.05 C 37.36 35.17 39.56 24.47 46.69 20.77 M 45.58 26.45 C 44.69 28.57 44.10 30.80 43.65 33.06 C 44.17 34.36 44.59 35.70 44.99 37.05 C 47.17 41.19 52.53 43.49 56.95 41.66 C 60.65 40.45 62.73 36.63 63.40 33.01 C 63.37 28.48 60.34 24.38 56.20 22.65 C 52.25 22.28 48.20 23.31 45.58 26.45 Z" />
<path fill="#0a0200" stroke="#0a0200" stroke-width="0.09375" opacity="1.00" d=" M 81.34 19.29 C 87.81 17.58 95.22 20.77 97.83 27.05 C 100.87 33.61 97.46 42.03 90.90 44.90 C 83.47 48.46 73.75 43.82 71.77 35.87 C 69.75 28.92 74.41 21.13 81.34 19.29 M 81.37 23.60 C 76.61 25.25 74.41 31.21 76.17 35.76 C 77.69 40.97 84.41 43.63 89.19 41.24 C 93.63 39.24 96.12 33.45 94.04 28.94 C 92.25 24.00 86.20 21.29 81.37 23.60 Z" />
<path fill="#0a0200" stroke="#0a0200" stroke-width="0.09375" opacity="1.00" d=" M 113.06 19.17 C 119.65 17.67 127.37 20.53 129.88 27.13 C 133.42 34.37 128.56 43.69 120.94 45.69 C 116.50 46.38 111.40 46.35 107.96 43.01 C 103.15 39.57 101.20 32.80 103.66 27.38 C 105.22 23.28 108.89 20.32 113.06 19.17 M 113.38 23.64 C 105.98 26.26 105.77 38.05 112.98 41.04 C 119.94 45.23 128.67 36.38 125.49 29.37 C 123.96 24.52 118.18 21.22 113.38 23.64 Z" />
<path fill="#0a0200" stroke="#0a0200" stroke-width="0.09375" opacity="1.00" d=" M 143.55 19.64 C 148.06 18.25 153.44 18.61 157.17 21.80 C 164.04 26.78 163.84 38.10 157.18 43.18 C 153.65 46.21 148.68 46.52 144.32 45.58 C 139.19 43.54 134.72 38.77 134.50 33.03 C 134.37 27.30 138.15 21.66 143.55 19.64 M 138.72 32.15 C 139.21 35.39 140.26 38.95 143.42 40.53 C 148.14 43.91 155.56 41.51 157.29 35.94 C 160.16 30.02 154.53 22.00 147.93 22.90 C 142.98 23.06 139.08 27.30 138.72 32.15 Z" />
<path fill="#0a0200" stroke="#0a0200" stroke-width="0.09375" opacity="1.00" d=" M 168.66 24.54 C 174.34 16.08 189.17 17.42 192.80 27.11 C 197.10 35.49 189.44 46.98 179.97 45.82 C 174.05 46.50 169.24 41.95 166.57 37.15 C 166.12 32.89 165.64 28.04 168.66 24.54 M 177.99 22.83 C 177.07 23.21 176.14 23.56 175.20 23.89 C 171.52 26.44 169.39 31.44 171.17 35.73 C 172.64 40.68 178.75 43.49 183.48 41.48 C 188.30 39.75 190.66 33.72 188.89 29.05 C 187.22 24.73 182.66 21.75 177.99 22.83 Z" />
<path fill="#0a0200" stroke="#0a0200" stroke-width="0.09375" opacity="1.00" d=" M 198.61 28.73 C 200.55 23.18 205.83 18.58 211.96 19.15 C 220.08 18.58 226.70 27.28 225.00 34.99 C 224.07 38.27 222.42 41.62 219.50 43.55 C 213.93 47.49 205.37 46.37 201.28 40.79 C 198.09 37.62 198.11 32.88 198.61 28.73 M 206.65 23.89 C 200.10 27.24 200.20 37.88 206.92 41.00 C 213.24 45.04 222.48 39.42 221.68 31.94 C 221.51 24.73 212.79 20.14 206.65 23.89 Z" />
<path fill="#ffffff" stroke="#ffffff" stroke-width="0.09375" opacity="1.00" d=" M 16.31 23.76 C 19.11 22.57 22.12 22.35 25.13 22.59 C 28.78 24.50 31.49 27.77 32.26 31.88 C 32.27 32.18 32.29 32.80 32.31 33.10 C 31.29 36.59 29.56 40.32 25.89 41.65 C 20.42 44.33 13.49 40.66 11.94 34.95 C 11.51 33.34 11.52 31.68 11.91 30.07 C 12.63 27.51 14.27 25.43 16.31 23.76 Z" />
<path fill="#ffffff" stroke="#ffffff" stroke-width="0.09375" opacity="1.00" d=" M 45.58 26.45 C 48.20 23.31 52.25 22.28 56.20 22.65 C 60.34 24.38 63.37 28.48 63.40 33.01 C 62.73 36.63 60.65 40.45 56.95 41.66 C 52.53 43.49 47.17 41.19 44.99 37.05 C 44.59 35.70 44.17 34.36 43.65 33.06 C 44.10 30.80 44.69 28.57 45.58 26.45 Z" />
<path fill="#ffffff" stroke="#ffffff" stroke-width="0.09375" opacity="1.00" d=" M 81.37 23.60 C 86.20 21.29 92.25 24.00 94.04 28.94 C 96.12 33.45 93.63 39.24 89.19 41.24 C 84.41 43.63 77.69 40.97 76.17 35.76 C 74.41 31.21 76.61 25.25 81.37 23.60 Z" />
<path fill="#ffffff" stroke="#ffffff" stroke-width="0.09375" opacity="1.00" d=" M 113.38 23.64 C 118.18 21.22 123.96 24.52 125.49 29.37 C 128.67 36.38 119.94 45.23 112.98 41.04 C 105.77 38.05 105.98 26.26 113.38 23.64 Z" />
<path fill="#ffffff" stroke="#ffffff" stroke-width="0.09375" opacity="1.00" d=" M 138.72 32.15 C 139.08 27.30 142.98 23.06 147.93 22.90 C 154.53 22.00 160.16 30.02 157.29 35.94 C 155.56 41.51 148.14 43.91 143.42 40.53 C 140.26 38.95 139.21 35.39 138.72 32.15 Z" />
<path fill="#ffffff" stroke="#ffffff" stroke-width="0.09375" opacity="1.00" d=" M 177.99 22.83 C 182.66 21.75 187.22 24.73 188.89 29.05 C 190.66 33.72 188.30 39.75 183.48 41.48 C 178.75 43.49 172.64 40.68 171.17 35.73 C 169.39 31.44 171.52 26.44 175.20 23.89 C 176.14 23.56 177.07 23.21 177.99 22.83 Z" />
<path fill="#ffffff" stroke="#ffffff" stroke-width="0.09375" opacity="1.00" d=" M 206.65 23.89 C 212.79 20.14 221.51 24.73 221.68 31.94 C 222.48 39.42 213.24 45.04 206.92 41.00 C 200.20 37.88 200.10 27.24 206.65 23.89 Z" />
</svg>
