<?xml version="1.0" encoding="UTF-8" ?>
<!DOCTYPE svg PUBLIC "-//W3C//DTD SVG 1.1//EN" "http://www.w3.org/Graphics/SVG/1.1/DTD/svg11.dtd">
<svg width="234pt" height="64pt" viewBox="0 0 234 64" version="1.1" xmlns="http://www.w3.org/2000/svg">
<path fill="#0a0200" stroke="#0a0200" stroke-width="0.09375" opacity="1.00" d=" M 17.48 19.67 C 23.35 17.81 30.41 20.07 33.59 25.46 C 37.88 32.24 34.53 42.25 26.98 45.00 C 19.08 48.52 8.78 42.45 8.32 33.77 C 7.55 27.65 11.56 21.44 17.48 19.67 M 18.35 23.34 C 10.99 25.48 10.00 36.77 16.40 40.60 C 21.61 44.44 29.94 41.36 31.30 34.99 C 33.67 27.68 25.43 20.15 18.35 23.34 Z" />
<path fill="#0a0200" stroke="#0a0200" stroke-width="0.09375" opacity="1.00" d=" M 49.33 19.41 C 56.21 17.39 64.62 20.87 66.89 27.93 C 69.41 34.29 65.92 42.01 59.77 44.76 C 52.58 48.34 42.89 44.59 40.31 36.92 C 37.76 29.90 41.99 21.26 49.33 19.41 M 50.37 23.44 C 43.55 25.70 42.21 35.89 47.94 40.07 C 52.71 44.31 60.87 41.44 62.48 35.42 C 65.19 28.49 57.40 20.37 50.37 23.44 Z" />
<path fill="#0a0200" stroke="#0a0200" stroke-width="0.09375" opacity="1.00" d=" M 80.46 19.45 C 84.86 18.44 89.98 18.45 93.62 21.50 C 101.00 26.48 100.79 38.53 93.52 43.52 C 86.23 49.28 74.10 45.27 71.67 36.31 C 69.49 29.52 73.64 21.54 80.46 19.45 M 82.32 23.43 C 78.24 24.61 75.33 28.79 75.96 33.05 C 75.76 39.40 83.49 44.09 89.06 41.15 C 92.27 39.66 94.27 36.29 94.63 32.84 C 94.81 26.76 88.34 21.01 82.32 23.43 Z" />
<path fill="#0a0200" stroke="#0a0200" stroke-width="0.09375" opacity="1.00" d=" M 112.27 19.28 C 116.53 18.76 121.40 18.24 125.05 21.03 C 132.97 25.66 133.07 38.49 125.57 43.59 C 121.84 46.56 116.74 46.42 112.29 45.68 C 107.78 43.99 103.60 40.24 102.77 35.31 C 101.11 28.60 105.54 21.04 112.27 19.28 M 114.41 23.43 C 110.43 24.70 107.30 28.72 107.96 33.02 C 107.87 37.84 112.36 41.78 116.99 42.04 C 122.30 41.82 126.53 36.37 125.84 31.19 C 124.93 26.20 119.66 21.35 114.41 23.43 Z" />
<path fill="#0a0200" stroke="#0a0200" stroke-width="0.09375" opacity="1.00" d=" M 144.42 19.20 C 148.36 18.76 152.80 18.36 156.15 20.91 C 164.19 25.27 164.56 38.00 157.30 43.30 C 153.71 46.38 148.65 46.52 144.22 45.70 C 138.60 43.66 134.21 38.19 134.26 32.08 C 134.78 26.32 138.63 20.66 144.42 19.20 M 146.31 23.27 C 142.06 24.33 138.60 28.49 139.26 33.00 C 139.12 39.24 146.63 44.01 152.19 41.18 C 155.44 39.75 157.47 36.36 157.93 32.93 C 158.07 27.16 152.21 21.35 146.31 23.27 Z" />
<path fill="#0a0200" stroke="#0a0200" stroke-width="0.09375" opacity="1.00" d=" M 175.31 19.41 C 179.52 18.60 184.43 18.35 188.05 21.09 C 194.49 24.96 196.01 34.56 191.54 40.49 C 188.01 46.00 180.48 47.20 174.63 45.25 C 170.63 43.17 166.75 39.72 165.95 35.07 C 164.40 28.46 169.03 21.51 175.31 19.41 M 175.99 23.96 C 169.31 26.78 169.06 37.25 175.40 40.59 C 180.73 44.47 188.72 40.04 188.92 33.65 C 190.83 34.45 190.85 30.60 188.94 31.39 C 188.68 25.29 181.45 20.65 175.99 23.96 Z" />
<path fill="#0a0200" stroke="#0a0200" stroke-width="0.09375" opacity="1.00" d=" M 207.43 19.48 C 214.29 17.25 222.87 21.01 224.80 28.22 C 227.72 36.09 221.56 45.75 213.08 45.97 C 206.97 46.85 201.01 42.61 198.71 37.12 C 195.91 30.11 200.32 21.67 207.43 19.48 M 208.34 23.47 C 200.92 25.49 199.96 37.08 206.62 40.59 C 211.47 43.94 219.10 41.53 220.75 35.76 C 223.98 28.59 215.62 20.08 208.34 23.47 Z" />
<path fill="#006003" stroke="#006003" stroke-width="0.09375" opacity="1.00" d=" M 18.35 23.34 C 25.43 20.15 33.67 27.68 31.30 34.99 C 29.94 41.36 21.61 44.44 16.40 40.60 C 10.00 36.77 10.99 25.48 18.35 23.34 Z" />
<path fill="#006003" stroke="#006003" stroke-width="0.09375" opacity="1.00" d=" M 50.37 23.44 C 57.40 20.37 65.19 28.49 62.48 35.42 C 60.87 41.44 52.71 44.31 47.94 40.07 C 42.21 35.89 43.55 25.70 50.37 23.44 Z" />
<path fill="#006003" stroke="#006003" stroke-width="0.09375" opacity="1.00" d=" M 82.32 23.43 C 88.34 21.01 94.81 26.76 94.63 32.84 C 94.27 36.29 92.27 39.66 89.06 41.15 C 83.49 44.09 75.76 39.40 75.96 33.05 C 75.33 28.79 78.24 24.61 82.32 23.43 Z" />
<path fill="#006003" stroke="#006003" stroke-width="0.09375" opacity="1.00" d=" M 114.41 23.43 C 119.66 21.35 124.93 26.20 125.84 31.19 C 126.53 36.37 122.30 41.82 116.99 42.04 C 112.36 41.78 107.87 37.84 107.96 33.02 C 107.30 28.72 110.43 24.70 114.41 23.43 Z" />
<path fill="#006003" stroke="#006003" stroke-width="0.09375" opacity="1.00" d=" M 146.31 23.27 C 152.21 21.35 158.07 27.16 157.93 32.93 C 157.47 36.36 155.44 39.75 152.19 41.18 C 146.63 44.01 139.12 39.24 139.26 33.00 C 138.60 28.49 142.06 24.33 146.31 23.27 Z" />
<path fill="#006003" stroke="#006003" stroke-width="0.09375" opacity="1.00" d=" M 175.99 23.96 C 181.45 20.65 188.68 25.29 188.94 31.39 C 188.94 31.95 188.93 33.08 188.92 33.65 C 188.72 40.04 180.73 44.47 175.40 40.59 C 169.06 37.25 169.31 26.78 175.99 23.96 Z" />
<path fill="#090100" stroke="#090100" stroke-width="0.09375" opacity="0.75" d=" M 188.94 31.39 C 190.85 30.60 190.83 34.45 188.92 33.65 C 188.93 33.08 188.94 31.95 188.94 31.39 Z" />
</svg>
