<?xml version="1.0" encoding="UTF-8" ?>
<!DOCTYPE svg PUBLIC "-//W3C//DTD SVG 1.1//EN" "http://www.w3.org/Graphics/SVG/1.1/DTD/svg11.dtd">
<svg width="234pt" height="64pt" viewBox="0 0 234 64" version="1.1" xmlns="http://www.w3.org/2000/svg">
<path fill="#0a0200" stroke="#0a0200" stroke-width="0.09375" opacity="1.00" d=" M 17.50 19.66 C 21.29 18.71 25.67 18.72 28.99 21.03 C 35.14 24.25 37.31 32.89 33.83 38.80 C 30.73 45.33 21.81 47.90 15.58 44.41 C 11.76 42.23 8.48 38.42 8.33 33.84 C 7.52 27.69 11.55 21.44 17.50 19.66 M 18.33 23.35 C 10.98 25.49 10.00 36.77 16.40 40.59 C 21.61 44.45 29.95 41.35 31.30 34.99 C 33.67 27.68 25.41 20.14 18.33 23.35 Z" />
<path fill="#0a0200" stroke="#0a0200" stroke-width="0.09375" opacity="1.00" d=" M 49.37 19.39 C 56.53 17.30 65.25 21.23 67.16 28.73 C 69.89 36.93 62.69 46.38 54.08 45.99 C 47.11 46.68 40.24 40.87 39.67 33.92 C 38.89 27.57 43.10 21.01 49.37 19.39 M 50.34 23.45 C 43.54 25.74 42.22 35.90 47.95 40.08 C 52.72 44.31 60.88 41.43 62.48 35.41 C 65.19 28.47 57.36 20.35 50.34 23.45 Z" />
<path fill="#0a0200" stroke="#0a0200" stroke-width="0.09375" opacity="1.00" d=" M 80.38 19.47 C 84.54 18.56 89.44 18.33 93.01 21.09 C 99.69 25.08 101.14 35.17 96.07 41.03 C 91.10 47.78 79.86 47.89 74.60 41.40 C 67.91 34.79 71.47 22.10 80.38 19.47 M 82.39 23.40 C 78.32 24.56 75.41 28.68 75.80 32.92 C 75.80 38.98 82.78 43.82 88.40 41.42 C 92.02 40.11 94.28 36.46 94.67 32.73 C 94.69 26.74 88.37 21.03 82.39 23.40 Z" />
<path fill="#0a0200" stroke="#0a0200" stroke-width="0.09375" opacity="1.00" d=" M 112.21 19.29 C 116.48 18.78 121.38 18.21 125.03 21.02 C 132.98 25.62 133.07 38.50 125.56 43.60 C 121.81 46.59 116.69 46.41 112.23 45.67 C 107.76 43.95 103.60 40.23 102.77 35.33 C 101.10 28.63 105.52 21.09 112.21 19.29 M 114.44 23.41 C 111.48 24.39 108.94 26.79 108.10 29.83 C 106.80 34.40 109.34 39.56 113.79 41.24 C 120.42 44.61 128.09 36.11 125.39 29.67 C 123.97 25.35 119.08 21.52 114.44 23.41 Z" />
<path fill="#0a0200" stroke="#0a0200" stroke-width="0.09375" opacity="1.00" d=" M 144.45 19.18 C 148.35 18.82 152.75 18.32 156.07 20.87 C 164.19 25.18 164.58 37.99 157.30 43.30 C 153.69 46.40 148.62 46.51 144.17 45.69 C 138.56 43.61 134.19 38.14 134.26 32.02 C 134.82 26.27 138.66 20.66 144.45 19.18 M 146.16 23.29 C 141.56 24.48 138.25 29.26 139.35 34.02 C 139.87 39.78 147.02 43.85 152.19 41.17 C 155.45 39.78 157.40 36.41 157.94 33.02 C 158.14 27.18 152.14 21.25 146.16 23.29 Z" />
<path fill="#0a0200" stroke="#0a0200" stroke-width="0.09375" opacity="1.00" d=" M 175.35 19.39 C 179.56 18.64 184.45 18.33 188.05 21.10 C 195.70 25.64 196.03 37.70 189.17 43.11 C 185.40 46.39 180.03 46.53 175.39 45.55 C 170.66 43.52 166.27 39.34 165.74 33.97 C 164.94 27.63 169.40 21.39 175.35 19.39 M 177.36 23.40 C 172.94 24.67 169.99 29.41 170.87 33.94 C 171.57 39.75 178.78 44.09 184.04 41.02 C 186.86 39.75 188.35 36.81 189.07 33.95 C 190.22 27.78 183.71 20.77 177.36 23.40 Z" />
<path fill="#0a0200" stroke="#0a0200" stroke-width="0.09375" opacity="1.00" d=" M 207.38 19.49 C 214.24 17.26 222.83 20.96 224.79 28.16 C 227.75 36.05 221.57 45.78 213.05 45.97 C 204.37 47.20 195.87 38.14 198.25 29.55 C 199.22 24.84 202.89 21.05 207.38 19.49 M 208.37 23.46 C 200.93 25.46 199.94 37.05 206.59 40.57 C 211.37 43.89 218.91 41.63 220.66 35.98 C 224.13 28.80 215.73 20.04 208.37 23.46 Z" />
<path fill="#006003" stroke="#006003" stroke-width="0.09375" opacity="1.00" d=" M 18.33 23.35 C 25.41 20.14 33.67 27.68 31.30 34.99 C 29.95 41.35 21.61 44.45 16.40 40.59 C 10.00 36.77 10.98 25.49 18.33 23.35 Z" />
<path fill="#006003" stroke="#006003" stroke-width="0.09375" opacity="1.00" d=" M 50.34 23.45 C 57.36 20.35 65.19 28.47 62.48 35.41 C 60.88 41.43 52.72 44.31 47.95 40.08 C 42.22 35.90 43.54 25.74 50.34 23.45 Z" />
</svg>
