<?xml version="1.0" encoding="UTF-8" ?>
<!DOCTYPE svg PUBLIC "-//W3C//DTD SVG 1.1//EN" "http://www.w3.org/Graphics/SVG/1.1/DTD/svg11.dtd">
<svg width="234pt" height="64pt" viewBox="0 0 234 64" version="1.1" xmlns="http://www.w3.org/2000/svg">
<path fill="#ffffff" stroke="#ffffff" stroke-width="0.09375" opacity="1.00" d=" M 0.00 0.00 L 234.00 0.00 L 234.00 64.00 L 0.00 64.00 L 0.00 0.00 M 8.29 33.07 C 8.22 42.04 18.83 48.64 26.94 45.00 C 32.96 42.81 36.34 36.04 35.40 29.85 C 34.03 23.78 28.34 18.74 21.97 19.13 C 14.45 18.52 7.56 25.56 8.29 33.07 M 50.19 19.16 C 40.56 20.82 36.06 34.10 42.85 41.16 C 48.45 48.35 61.07 47.50 65.57 39.56 C 69.74 33.58 67.53 24.29 61.03 20.94 C 57.91 18.63 53.86 18.77 50.19 19.16 M 80.37 19.47 C 74.10 21.49 69.94 28.53 71.39 34.99 C 72.13 40.15 76.56 44.14 81.30 45.80 C 85.47 46.37 90.15 46.39 93.54 43.50 C 100.81 38.52 100.99 26.43 93.60 21.49 C 89.94 18.40 84.78 18.48 80.37 19.47 M 112.42 19.19 C 103.40 21.38 99.25 33.62 105.27 40.72 C 110.19 47.28 120.71 48.06 126.74 42.68 C 133.29 36.91 132.40 24.73 124.44 20.68 C 120.98 18.12 116.41 18.99 112.42 19.19 M 138.61 22.49 C 135.58 25.93 133.28 30.81 134.77 35.42 C 135.47 39.54 138.72 42.69 142.15 44.79 C 145.23 46.73 148.99 45.83 152.42 45.97 C 160.01 43.68 164.73 34.85 161.59 27.39 C 158.47 18.25 145.28 16.00 138.61 22.49 M 175.27 19.41 C 169.35 21.46 164.91 27.70 165.75 34.02 C 166.30 39.40 170.72 43.57 175.47 45.58 C 180.09 46.48 185.42 46.40 189.16 43.11 C 196.02 37.72 195.70 25.64 188.07 21.12 C 184.45 18.30 179.50 18.66 175.27 19.41 M 207.44 19.46 C 201.01 21.54 196.40 28.78 198.29 35.43 C 198.86 39.48 202.15 42.40 205.40 44.52 C 210.50 47.31 217.33 46.28 221.50 42.23 C 225.12 38.42 226.61 32.57 224.60 27.62 C 222.40 20.73 214.09 17.38 207.44 19.46 Z" />
<path fill="#0a0200" stroke="#0a0200" stroke-width="0.09375" opacity="1.00" d=" M 8.29 33.07 C 7.56 25.56 14.45 18.52 21.97 19.13 C 28.34 18.74 34.03 23.78 35.40 29.85 C 36.34 36.04 32.96 42.81 26.94 45.00 C 18.83 48.64 8.22 42.04 8.29 33.07 M 18.32 23.35 C 14.50 24.50 12.39 28.39 11.68 32.08 C 11.97 37.00 15.80 41.87 20.94 42.25 C 27.00 43.04 32.53 37.17 31.57 31.20 C 30.92 25.10 24.03 20.89 18.32 23.35 Z" />
<path fill="#0a0200" stroke="#0a0200" stroke-width="0.09375" opacity="1.00" d=" M 50.19 19.16 C 53.86 18.77 57.91 18.63 61.03 20.94 C 67.53 24.29 69.74 33.58 65.57 39.56 C 61.07 47.50 48.45 48.35 42.85 41.16 C 36.06 34.10 40.56 20.82 50.19 19.16 M 50.33 23.45 C 45.83 25.04 43.34 30.38 44.61 34.91 C 45.73 39.74 51.06 43.26 55.93 41.79 C 60.06 40.79 62.45 36.74 63.39 32.87 C 63.03 26.67 56.64 20.74 50.33 23.45 Z" />
<path fill="#0a0200" stroke="#0a0200" stroke-width="0.09375" opacity="1.00" d=" M 80.37 19.47 C 84.78 18.48 89.94 18.40 93.60 21.49 C 100.99 26.43 100.81 38.52 93.54 43.50 C 90.15 46.39 85.47 46.37 81.30 45.80 C 76.56 44.14 72.13 40.15 71.39 34.99 C 69.94 28.53 74.10 21.49 80.37 19.47 M 82.32 23.43 C 78.52 24.52 75.99 28.15 75.58 31.98 C 75.41 37.45 80.46 42.52 86.00 42.01 C 90.38 41.64 93.88 37.86 94.53 33.61 C 95.41 27.29 88.58 20.89 82.32 23.43 Z" />
<path fill="#0a0200" stroke="#0a0200" stroke-width="0.09375" opacity="1.00" d=" M 112.42 19.19 C 116.41 18.99 120.98 18.12 124.44 20.68 C 132.40 24.73 133.29 36.91 126.74 42.68 C 120.71 48.06 110.19 47.28 105.27 40.72 C 99.25 33.62 103.40 21.38 112.42 19.19 M 114.35 23.45 C 111.58 24.39 109.23 26.57 108.26 29.35 C 105.65 35.38 111.67 42.69 118.01 41.95 C 122.64 41.12 125.84 36.66 126.05 32.12 C 125.44 26.77 120.00 21.20 114.35 23.45 Z" />
<path fill="#0a0200" stroke="#0a0200" stroke-width="0.09375" opacity="1.00" d=" M 138.61 22.49 C 145.28 16.00 158.47 18.25 161.59 27.39 C 164.73 34.85 160.01 43.68 152.42 45.97 C 148.99 45.83 145.23 46.73 142.15 44.79 C 138.72 42.69 135.47 39.54 134.77 35.42 C 133.28 30.81 135.58 25.93 138.61 22.49 M 146.30 23.27 C 141.63 24.39 138.25 29.21 139.35 34.01 C 139.88 39.79 147.00 43.83 152.20 41.17 C 155.45 39.75 157.45 36.36 157.94 32.94 C 158.07 27.18 152.22 21.34 146.30 23.27 Z" />
<path fill="#0a0200" stroke="#0a0200" stroke-width="0.09375" opacity="1.00" d=" M 175.27 19.41 C 179.50 18.66 184.45 18.30 188.07 21.12 C 195.70 25.64 196.02 37.72 189.16 43.11 C 185.42 46.40 180.09 46.48 175.47 45.58 C 170.72 43.57 166.30 39.40 165.75 34.02 C 164.91 27.70 169.35 21.46 175.27 19.41 M 178.12 23.16 C 170.55 24.48 168.11 35.36 174.30 39.84 C 178.63 43.84 186.26 41.98 188.23 36.42 C 191.73 30.21 185.25 21.03 178.12 23.16 Z" />
<path fill="#0a0200" stroke="#0a0200" stroke-width="0.09375" opacity="1.00" d=" M 207.44 19.46 C 214.09 17.38 222.40 20.73 224.60 27.62 C 226.61 32.57 225.12 38.42 221.50 42.23 C 217.33 46.28 210.50 47.31 205.40 44.52 C 202.15 42.40 198.86 39.48 198.29 35.43 C 196.40 28.78 201.01 21.54 207.44 19.46 M 208.38 23.47 C 200.95 25.43 199.93 37.03 206.57 40.55 C 211.33 43.90 218.94 41.64 220.65 35.96 C 224.13 28.81 215.72 20.04 208.38 23.47 Z" />
<path fill="#006003" stroke="#006003" stroke-width="0.09375" opacity="1.00" d=" M 18.32 23.35 C 24.03 20.89 30.92 25.10 31.57 31.20 C 32.53 37.17 27.00 43.04 20.94 42.25 C 15.80 41.87 11.97 37.00 11.68 32.08 C 12.39 28.39 14.50 24.50 18.32 23.35 Z" />
<path fill="#006003" stroke="#006003" stroke-width="0.09375" opacity="1.00" d=" M 50.33 23.45 C 56.64 20.74 63.03 26.67 63.39 32.87 C 62.45 36.74 60.06 40.79 55.93 41.79 C 51.06 43.26 45.73 39.74 44.61 34.91 C 43.34 30.38 45.83 25.04 50.33 23.45 Z" />
<path fill="#006003" stroke="#006003" stroke-width="0.09375" opacity="1.00" d=" M 82.32 23.43 C 88.58 20.89 95.41 27.29 94.53 33.61 C 93.88 37.86 90.38 41.64 86.00 42.01 C 80.46 42.52 75.41 37.45 75.58 31.98 C 75.99 28.15 78.52 24.52 82.32 23.43 Z" />
<path fill="#006003" stroke="#006003" stroke-width="0.09375" opacity="1.00" d=" M 114.35 23.45 C 120.00 21.20 125.44 26.77 126.05 32.12 C 125.84 36.66 122.64 41.12 118.01 41.95 C 111.67 42.69 105.65 35.38 108.26 29.35 C 109.23 26.57 111.58 24.39 114.35 23.45 Z" />
<path fill="#006003" stroke="#006003" stroke-width="0.09375" opacity="1.00" d=" M 146.30 23.27 C 152.22 21.34 158.07 27.18 157.94 32.94 C 157.45 36.36 155.45 39.75 152.20 41.17 C 147.00 43.83 139.88 39.79 139.35 34.01 C 138.25 29.21 141.63 24.39 146.30 23.27 Z" />
<path fill="#ffffff" stroke="#ffffff" stroke-width="0.09375" opacity="1.00" d=" M 178.12 23.16 C 185.25 21.03 191.73 30.21 188.23 36.42 C 186.26 41.98 178.63 43.84 174.30 39.84 C 168.11 35.36 170.55 24.48 178.12 23.16 Z" />
<path fill="#ffffff" stroke="#ffffff" stroke-width="0.09375" opacity="1.00" d=" M 208.38 23.47 C 215.72 20.04 224.13 28.81 220.65 35.96 C 218.94 41.64 211.33 43.90 206.57 40.55 C 199.93 37.03 200.95 25.43 208.38 23.47 Z" />
</svg>
