<?xml version="1.0" encoding="UTF-8" ?>
<!DOCTYPE svg PUBLIC "-//W3C//DTD SVG 1.1//EN" "http://www.w3.org/Graphics/SVG/1.1/DTD/svg11.dtd">
<svg width="234pt" height="64pt" viewBox="0 0 234 64" version="1.1" xmlns="http://www.w3.org/2000/svg">
<path fill="#0a0200" stroke="#0a0200" stroke-width="0.09375" opacity="1.00" d=" M 18.44 19.60 C 22.19 19.14 26.44 18.99 29.50 21.61 C 35.41 25.44 36.97 34.19 32.85 39.90 C 29.20 45.98 20.19 47.53 14.49 43.52 C 11.91 41.48 9.47 38.88 8.89 35.53 C 7.10 28.80 11.62 21.13 18.44 19.60 M 18.23 23.09 C 13.14 24.71 10.06 31.19 12.41 36.06 C 14.43 41.71 22.01 44.38 27.07 41.06 C 32.86 37.92 33.54 28.74 28.30 24.77 C 25.64 22.18 21.59 21.98 18.23 23.09 Z" />
<path fill="#0a0200" stroke="#0a0200" stroke-width="0.09375" opacity="1.00" d=" M 49.42 19.57 C 54.23 18.39 59.63 19.22 63.23 22.83 C 69.86 28.55 68.12 40.38 60.35 44.23 C 53.12 48.40 42.72 44.52 40.43 36.39 C 38.02 29.56 42.55 21.52 49.42 19.57 M 43.64 32.04 C 44.23 34.14 44.48 36.43 45.78 38.25 C 48.32 41.81 53.40 43.38 57.42 41.48 C 60.89 40.14 62.68 36.47 63.42 33.04 C 63.37 27.59 58.70 21.75 52.82 22.69 C 47.68 22.76 44.41 27.38 43.64 32.04 Z" />
<path fill="#0a0200" stroke="#0a0200" stroke-width="0.09375" opacity="1.00" d=" M 81.23 19.33 C 88.01 17.42 95.89 21.10 98.15 27.88 C 100.74 34.59 96.84 42.73 90.17 45.22 C 82.92 48.11 74.05 43.72 71.89 36.28 C 69.61 29.30 74.20 21.22 81.23 19.33 M 82.24 23.28 C 76.96 24.56 74.23 30.94 76.19 35.82 C 77.75 41.02 84.48 43.63 89.24 41.22 C 92.47 39.77 94.45 36.39 94.82 32.95 C 95.13 26.65 88.44 20.86 82.24 23.28 Z" />
<path fill="#0a0200" stroke="#0a0200" stroke-width="0.09375" opacity="1.00" d=" M 112.36 19.38 C 117.02 18.41 122.33 18.62 126.04 21.99 C 132.71 27.01 132.49 37.90 126.03 43.00 C 122.34 46.27 117.06 46.53 112.45 45.58 C 107.56 43.76 103.18 39.40 102.72 33.99 C 101.88 27.63 106.24 21.20 112.36 19.38 M 114.27 23.31 C 106.17 25.27 105.37 37.93 113.01 41.06 C 119.72 45.04 128.15 36.98 125.73 30.06 C 124.49 25.27 119.21 21.41 114.27 23.31 Z" />
<path fill="#0a0200" stroke="#0a0200" stroke-width="0.09375" opacity="1.00" d=" M 144.25 19.37 C 148.44 18.51 153.20 18.61 156.68 21.45 C 164.02 26.22 164.02 38.01 157.15 43.21 C 153.63 46.18 148.75 46.53 144.42 45.61 C 140.62 44.21 137.39 41.19 135.56 37.60 C 132.33 30.47 136.97 21.63 144.25 19.37 M 145.33 23.43 C 140.66 24.80 137.85 30.15 139.24 34.79 C 140.29 40.12 146.69 43.49 151.71 41.53 C 156.72 39.85 159.62 33.37 157.14 28.61 C 155.36 24.10 149.90 21.54 145.33 23.43 Z" />
<path fill="#0a0200" stroke="#0a0200" stroke-width="0.09375" opacity="1.00" d=" M 176.28 19.29 C 179.93 18.84 184.04 18.54 187.20 20.79 C 191.82 23.33 194.45 28.82 193.98 33.99 C 193.10 38.03 190.97 42.14 187.22 44.19 C 183.75 46.35 179.37 46.09 175.52 45.37 C 170.52 43.43 165.83 38.68 166.23 32.97 C 165.54 26.66 170.37 20.89 176.28 19.29 M 177.17 23.21 C 171.12 24.84 168.66 32.92 172.21 37.93 C 175.88 43.97 186.20 43.28 188.59 36.46 C 192.23 29.60 184.72 20.13 177.17 23.21 Z" />
<path fill="#0a0200" stroke="#0a0200" stroke-width="0.09375" opacity="1.00" d=" M 207.51 19.64 C 211.30 18.76 215.73 18.70 218.99 21.13 C 223.12 23.56 225.25 28.40 225.29 33.06 C 224.79 38.05 221.79 43.09 216.95 44.94 C 211.52 47.08 204.78 45.56 201.26 40.75 C 195.20 34.09 198.92 22.07 207.51 19.64 M 208.13 23.26 C 200.68 25.44 199.48 36.89 206.27 40.61 C 211.91 44.77 220.89 40.85 221.61 33.87 C 222.88 26.73 214.87 20.23 208.13 23.26 Z" />
</svg>
