<?xml version="1.0" encoding="UTF-8" ?>
<!DOCTYPE svg PUBLIC "-//W3C//DTD SVG 1.1//EN" "http://www.w3.org/Graphics/SVG/1.1/DTD/svg11.dtd">
<svg width="234pt" height="64pt" viewBox="0 0 234 64" version="1.1" xmlns="http://www.w3.org/2000/svg">
<path fill="#0a0200" stroke="#0a0200" stroke-width="0.09375" opacity="1.00" d=" M 17.45 19.68 C 21.73 18.48 26.63 18.94 30.18 21.80 C 37.31 26.59 37.06 38.26 30.19 43.19 C 24.73 47.51 16.11 46.67 11.64 41.29 C 5.09 34.76 8.52 22.12 17.45 19.68 M 18.35 23.34 C 11.01 25.47 10.00 36.72 16.36 40.57 C 21.58 44.47 29.98 41.35 31.32 34.94 C 33.63 27.65 25.41 20.16 18.35 23.34 Z" />
<path fill="#0a0200" stroke="#0a0200" stroke-width="0.09375" opacity="1.00" d=" M 49.34 19.40 C 56.22 17.41 64.61 20.86 66.89 27.92 C 69.41 34.26 65.94 41.99 59.79 44.74 C 52.61 48.37 42.88 44.59 40.31 36.91 C 37.76 29.88 42.00 21.26 49.34 19.40 M 50.35 23.44 C 43.54 25.73 42.22 35.91 47.96 40.09 C 52.73 44.31 60.87 41.43 62.48 35.42 C 65.20 28.49 57.38 20.35 50.35 23.44 Z" />
<path fill="#0a0200" stroke="#0a0200" stroke-width="0.09375" opacity="1.00" d=" M 80.47 19.44 C 84.87 18.46 89.98 18.44 93.63 21.51 C 100.78 26.35 100.84 37.89 94.07 43.10 C 90.57 46.27 85.58 46.54 81.16 45.74 C 76.34 44.03 71.93 39.88 71.30 34.60 C 70.12 28.21 74.26 21.38 80.47 19.44 M 82.42 23.40 C 78.30 24.55 75.29 28.76 75.97 33.08 C 75.78 39.13 82.87 43.74 88.37 41.45 C 91.94 40.13 94.23 36.55 94.63 32.87 C 94.81 26.82 88.44 21.06 82.42 23.40 Z" />
<path fill="#0a0200" stroke="#0a0200" stroke-width="0.09375" opacity="1.00" d=" M 112.20 19.29 C 116.48 18.78 121.39 18.20 125.04 21.03 C 132.98 25.64 133.07 38.51 125.56 43.60 C 121.81 46.59 116.69 46.40 112.23 45.67 C 107.76 43.95 103.59 40.23 102.77 35.31 C 101.11 28.62 105.52 21.10 112.20 19.29 M 114.38 23.43 C 110.44 24.70 107.40 28.65 107.82 32.88 C 107.86 37.74 112.30 41.79 117.01 42.05 C 122.10 41.81 125.96 36.92 126.03 32.01 C 125.39 26.70 119.97 21.22 114.38 23.43 Z" />
<path fill="#0a0200" stroke="#0a0200" stroke-width="0.09375" opacity="1.00" d=" M 144.24 19.23 C 148.21 18.78 152.72 18.30 156.11 20.90 C 164.20 25.23 164.56 38.00 157.30 43.30 C 153.71 46.38 148.66 46.50 144.23 45.71 C 138.59 43.65 134.19 38.17 134.25 32.03 C 134.81 26.35 138.55 20.79 144.24 19.23 M 146.17 23.29 C 141.97 24.42 138.58 28.55 139.26 33.02 C 139.11 39.26 146.71 44.05 152.23 41.15 C 155.47 39.75 157.40 36.40 157.94 33.03 C 158.14 27.19 152.15 21.25 146.17 23.29 Z" />
<path fill="#0a0200" stroke="#0a0200" stroke-width="0.09375" opacity="1.00" d=" M 175.36 19.38 C 179.57 18.63 184.46 18.33 188.07 21.11 C 195.71 25.66 196.02 37.74 189.14 43.14 C 185.39 46.39 180.05 46.51 175.43 45.56 C 170.70 43.56 166.30 39.39 165.75 34.02 C 164.92 27.67 169.38 21.39 175.36 19.38 M 177.40 23.38 C 173.35 24.56 170.43 28.61 170.75 32.84 C 170.81 38.06 175.86 42.43 180.99 42.02 C 184.55 41.58 187.61 38.92 188.60 35.47 C 191.32 29.05 184.26 20.57 177.40 23.38 Z" />
<path fill="#0a0200" stroke="#0a0200" stroke-width="0.09375" opacity="1.00" d=" M 207.41 19.48 C 214.27 17.27 222.83 20.97 224.79 28.16 C 227.74 36.04 221.59 45.75 213.09 45.97 C 204.39 47.22 195.86 38.15 198.25 29.55 C 199.23 24.83 202.91 21.03 207.41 19.48 M 208.35 23.46 C 200.94 25.48 199.95 37.04 206.58 40.56 C 211.36 43.89 218.91 41.64 220.66 35.97 C 224.12 28.78 215.71 20.03 208.35 23.46 Z" />
<path fill="#006003" stroke="#006003" stroke-width="0.09375" opacity="1.00" d=" M 18.35 23.34 C 25.41 20.16 33.63 27.65 31.32 34.94 C 29.98 41.35 21.58 44.47 16.36 40.57 C 10.00 36.72 11.01 25.47 18.35 23.34 Z" />
<path fill="#006003" stroke="#006003" stroke-width="0.09375" opacity="1.00" d=" M 50.35 23.44 C 57.38 20.35 65.20 28.49 62.48 35.42 C 60.87 41.43 52.73 44.31 47.96 40.09 C 42.22 35.91 43.54 25.73 50.35 23.44 Z" />
<path fill="#006003" stroke="#006003" stroke-width="0.09375" opacity="1.00" d=" M 82.42 23.40 C 88.44 21.06 94.81 26.82 94.63 32.87 C 94.23 36.55 91.94 40.13 88.37 41.45 C 82.87 43.74 75.78 39.13 75.97 33.08 C 75.29 28.76 78.30 24.55 82.42 23.40 Z" />
</svg>
