<?xml version="1.0" encoding="UTF-8" ?>
<!DOCTYPE svg PUBLIC "-//W3C//DTD SVG 1.1//EN" "http://www.w3.org/Graphics/SVG/1.1/DTD/svg11.dtd">
<svg width="234pt" height="64pt" viewBox="0 0 234 64" version="1.1" xmlns="http://www.w3.org/2000/svg">
<path fill="#ffffff" stroke="#ffffff" stroke-width="0.09375" opacity="1.00" d=" M 0.00 0.00 L 234.00 0.00 L 234.00 64.00 L 0.00 64.00 L 0.00 0.00 M 17.50 19.66 C 11.47 21.47 7.39 27.86 8.37 34.10 C 9.03 43.14 20.39 49.01 28.20 44.41 C 36.51 40.59 38.06 27.80 30.77 22.23 C 27.15 19.07 22.02 18.39 17.50 19.66 M 50.12 19.17 C 40.54 20.89 36.07 34.11 42.84 41.15 C 48.45 48.37 61.10 47.50 65.60 39.53 C 69.72 33.56 67.54 24.30 61.06 20.96 C 57.91 18.60 53.83 18.81 50.12 19.17 M 80.35 19.47 C 76.24 20.89 72.91 24.29 71.73 28.49 C 69.80 33.81 72.10 40.10 76.71 43.31 C 80.01 46.43 84.78 46.34 88.99 45.83 C 95.27 44.03 100.00 37.44 99.01 30.87 C 98.58 26.69 96.12 22.65 92.34 20.69 C 88.91 18.21 84.25 18.71 80.35 19.47 M 112.56 19.14 C 105.14 21.00 100.52 29.64 103.15 36.82 C 105.07 42.36 110.98 46.77 116.98 46.04 C 126.11 47.15 133.55 36.90 130.54 28.43 C 129.46 23.79 125.50 20.61 121.18 19.10 C 118.31 18.93 115.42 18.84 112.56 19.14 M 138.65 22.44 C 135.61 25.89 133.24 30.79 134.77 35.43 C 135.47 39.54 138.72 42.67 142.13 44.77 C 145.21 46.73 148.99 45.84 152.43 45.96 C 160.00 43.69 164.70 34.90 161.61 27.44 C 158.52 18.29 145.37 15.99 138.65 22.44 M 175.28 19.40 C 169.34 21.45 164.91 27.70 165.75 34.04 C 166.29 39.40 170.71 43.54 175.42 45.57 C 180.04 46.48 185.39 46.41 189.14 43.13 C 196.02 37.75 195.71 25.65 188.08 21.13 C 184.46 18.29 179.51 18.66 175.28 19.40 M 207.40 19.47 C 201.22 21.50 196.69 28.29 198.15 34.76 C 198.75 39.79 203.02 43.62 207.48 45.48 C 211.78 46.63 216.72 46.12 220.28 43.23 C 227.49 38.01 227.17 25.26 219.11 21.01 C 215.77 18.50 211.26 18.59 207.40 19.47 Z" />
<path fill="#0a0200" stroke="#0a0200" stroke-width="0.09375" opacity="1.00" d=" M 17.50 19.66 C 22.02 18.39 27.15 19.07 30.77 22.23 C 38.06 27.80 36.51 40.59 28.20 44.41 C 20.39 49.01 9.03 43.14 8.37 34.10 C 7.39 27.86 11.47 21.47 17.50 19.66 M 18.32 23.36 C 14.24 24.59 12.09 28.90 11.61 32.85 C 12.53 36.48 14.52 40.26 18.28 41.59 C 23.91 44.09 30.91 39.90 31.57 33.82 C 32.80 26.78 24.97 20.36 18.32 23.36 Z" />
<path fill="#0a0200" stroke="#0a0200" stroke-width="0.09375" opacity="1.00" d=" M 50.12 19.17 C 53.83 18.81 57.91 18.60 61.06 20.96 C 67.54 24.30 69.72 33.56 65.60 39.53 C 61.10 47.50 48.45 48.37 42.84 41.15 C 36.07 34.11 40.54 20.89 50.12 19.17 M 50.31 23.46 C 45.84 25.04 43.35 30.35 44.59 34.86 C 45.69 39.71 51.03 43.26 55.92 41.80 C 60.06 40.80 62.40 36.76 63.40 32.90 C 63.04 26.70 56.64 20.72 50.31 23.46 Z" />
<path fill="#0a0200" stroke="#0a0200" stroke-width="0.09375" opacity="1.00" d=" M 80.35 19.47 C 84.25 18.71 88.91 18.21 92.34 20.69 C 96.12 22.65 98.58 26.69 99.01 30.87 C 100.00 37.44 95.27 44.03 88.99 45.83 C 84.78 46.34 80.01 46.43 76.71 43.31 C 72.10 40.10 69.80 33.81 71.73 28.49 C 72.91 24.29 76.24 20.89 80.35 19.47 M 82.30 23.44 C 78.19 24.62 75.54 28.82 75.54 32.98 C 76.13 36.49 78.19 39.95 81.65 41.24 C 86.56 43.72 92.78 40.27 94.13 35.15 C 96.59 28.51 89.07 20.61 82.30 23.44 Z" />
<path fill="#0a0200" stroke="#0a0200" stroke-width="0.09375" opacity="1.00" d=" M 112.56 19.14 C 115.42 18.84 118.31 18.93 121.18 19.10 C 125.50 20.61 129.46 23.79 130.54 28.43 C 133.55 36.90 126.11 47.15 116.98 46.04 C 110.98 46.77 105.07 42.36 103.15 36.82 C 100.52 29.64 105.14 21.00 112.56 19.14 M 114.40 23.43 C 110.67 24.63 107.68 28.23 107.81 32.25 C 107.50 37.65 112.70 42.45 118.00 41.99 C 122.33 41.15 125.39 37.26 126.00 33.02 C 126.15 27.35 120.27 21.13 114.40 23.43 Z" />
<path fill="#0a0200" stroke="#0a0200" stroke-width="0.09375" opacity="1.00" d=" M 138.65 22.44 C 145.37 15.99 158.52 18.29 161.61 27.44 C 164.70 34.90 160.00 43.69 152.43 45.96 C 148.99 45.84 145.21 46.73 142.13 44.77 C 138.72 42.67 135.47 39.54 134.77 35.43 C 133.24 30.79 135.61 25.89 138.65 22.44 M 146.09 23.32 C 141.15 24.59 138.05 29.90 139.47 34.84 C 140.56 40.19 147.33 43.74 152.24 41.14 C 155.47 39.77 157.32 36.44 157.95 33.12 C 158.20 27.24 152.12 21.18 146.09 23.32 Z" />
<path fill="#0a0200" stroke="#0a0200" stroke-width="0.09375" opacity="1.00" d=" M 175.28 19.40 C 179.51 18.66 184.46 18.29 188.08 21.13 C 195.71 25.65 196.02 37.75 189.14 43.13 C 185.39 46.41 180.04 46.48 175.42 45.57 C 170.71 43.54 166.29 39.40 165.75 34.04 C 164.91 27.70 169.34 21.45 175.28 19.40 M 178.16 23.14 C 174.13 24.08 170.80 27.67 170.76 31.90 C 170.07 38.28 177.47 44.11 183.40 41.32 C 186.83 40.08 188.57 36.54 189.26 33.18 C 189.50 27.52 184.13 21.40 178.16 23.14 Z" />
<path fill="#0a0200" stroke="#0a0200" stroke-width="0.09375" opacity="1.00" d=" M 207.40 19.47 C 211.26 18.59 215.77 18.50 219.11 21.01 C 227.17 25.26 227.49 38.01 220.28 43.23 C 216.72 46.12 211.78 46.63 207.48 45.48 C 203.02 43.62 198.75 39.79 198.15 34.76 C 196.69 28.29 201.22 21.50 207.40 19.47 M 208.36 23.47 C 201.78 25.28 200.16 34.63 204.75 39.19 C 207.38 41.67 211.35 42.89 214.84 41.63 C 219.80 40.17 222.85 33.95 220.73 29.19 C 219.21 24.18 213.19 21.40 208.36 23.47 Z" />
<path fill="#006003" stroke="#006003" stroke-width="0.09375" opacity="1.00" d=" M 18.32 23.36 C 24.97 20.36 32.80 26.78 31.57 33.82 C 30.91 39.90 23.91 44.09 18.28 41.59 C 14.52 40.26 12.53 36.48 11.61 32.85 C 12.09 28.90 14.24 24.59 18.32 23.36 Z" />
<path fill="#006003" stroke="#006003" stroke-width="0.09375" opacity="1.00" d=" M 50.31 23.46 C 56.64 20.72 63.04 26.70 63.40 32.90 C 62.40 36.76 60.06 40.80 55.92 41.80 C 51.03 43.26 45.69 39.71 44.59 34.86 C 43.35 30.35 45.84 25.04 50.31 23.46 Z" />
<path fill="#006003" stroke="#006003" stroke-width="0.09375" opacity="1.00" d=" M 82.30 23.44 C 89.07 20.61 96.59 28.51 94.13 35.15 C 92.78 40.27 86.56 43.72 81.65 41.24 C 78.19 39.95 76.13 36.49 75.54 32.98 C 75.54 28.82 78.19 24.62 82.30 23.44 Z" />
<path fill="#ffffff" stroke="#ffffff" stroke-width="0.09375" opacity="1.00" d=" M 114.40 23.43 C 120.27 21.13 126.15 27.35 126.00 33.02 C 125.39 37.26 122.33 41.15 118.00 41.99 C 112.70 42.45 107.50 37.65 107.81 32.25 C 107.68 28.23 110.67 24.63 114.40 23.43 Z" />
<path fill="#ffffff" stroke="#ffffff" stroke-width="0.09375" opacity="1.00" d=" M 146.09 23.32 C 152.12 21.18 158.20 27.24 157.95 33.12 C 157.32 36.44 155.47 39.77 152.24 41.14 C 147.33 43.74 140.56 40.19 139.47 34.84 C 138.05 29.90 141.15 24.59 146.09 23.32 Z" />
<path fill="#ffffff" stroke="#ffffff" stroke-width="0.09375" opacity="1.00" d=" M 178.16 23.14 C 184.13 21.40 189.50 27.52 189.26 33.18 C 188.57 36.54 186.83 40.08 183.40 41.32 C 177.47 44.11 170.07 38.28 170.76 31.90 C 170.80 27.67 174.13 24.08 178.16 23.14 Z" />
<path fill="#ffffff" stroke="#ffffff" stroke-width="0.09375" opacity="1.00" d=" M 208.36 23.47 C 213.19 21.40 219.21 24.18 220.73 29.19 C 222.85 33.95 219.80 40.17 214.84 41.63 C 211.35 42.89 207.38 41.67 204.75 39.19 C 200.16 34.63 201.78 25.28 208.36 23.47 Z" />
</svg>
