<?xml version="1.0" encoding="UTF-8" ?>
<!DOCTYPE svg PUBLIC "-//W3C//DTD SVG 1.1//EN" "http://www.w3.org/Graphics/SVG/1.1/DTD/svg11.dtd">
<svg width="234pt" height="64pt" viewBox="0 0 234 64" version="1.1" xmlns="http://www.w3.org/2000/svg">
<path fill="#ffffff" stroke="#ffffff" stroke-width="0.09375" opacity="1.00" d=" M 0.00 0.00 L 234.00 0.00 L 234.00 64.00 L 0.00 64.00 L 0.00 0.00 M 8.33 30.87 C 6.72 40.41 17.44 48.67 26.31 45.26 C 32.65 43.25 36.46 36.27 35.37 29.82 C 34.33 26.32 32.54 22.80 29.11 21.11 C 21.34 15.71 8.90 21.19 8.33 30.87 M 50.15 19.16 C 40.55 20.87 36.06 34.11 42.84 41.15 C 48.45 48.36 61.08 47.50 65.58 39.55 C 69.73 33.58 67.54 24.30 61.04 20.95 C 57.91 18.60 53.84 18.82 50.15 19.16 M 80.38 19.46 C 71.49 22.13 67.86 34.72 74.56 41.36 C 78.35 46.01 84.96 47.22 90.44 45.29 C 94.80 43.56 97.91 39.51 98.96 35.01 C 99.88 29.52 97.43 23.33 92.36 20.71 C 88.94 18.21 84.28 18.72 80.38 19.46 M 112.20 19.26 C 105.52 21.13 101.06 28.65 102.80 35.36 C 103.63 40.47 108.14 44.30 112.85 45.87 C 116.96 46.12 121.52 46.64 125.01 43.96 C 133.02 39.18 133.21 25.76 125.05 21.06 C 121.42 18.13 116.48 18.87 112.20 19.26 M 144.45 19.13 C 140.11 20.38 136.65 23.79 135.20 28.04 C 131.52 36.59 139.88 47.22 149.01 46.04 C 158.02 46.71 164.94 36.38 161.84 28.12 C 160.72 23.66 156.82 20.84 152.79 19.16 C 150.03 18.86 147.22 18.87 144.45 19.13 M 175.34 19.37 C 169.39 21.42 164.90 27.67 165.75 34.04 C 166.29 39.40 170.71 43.54 175.42 45.57 C 180.04 46.47 185.37 46.42 189.12 43.15 C 196.01 37.79 195.73 25.66 188.08 21.13 C 184.48 18.29 179.57 18.69 175.34 19.37 M 207.39 19.47 C 199.75 21.86 195.47 31.31 199.27 38.47 C 202.84 45.11 211.75 48.34 218.44 44.42 C 227.07 40.25 227.97 26.28 219.65 21.35 C 216.20 18.62 211.49 18.49 207.39 19.47 Z" />
<path fill="#0a0200" stroke="#0a0200" stroke-width="0.09375" opacity="1.00" d=" M 8.33 30.87 C 8.90 21.19 21.34 15.71 29.11 21.11 C 32.54 22.80 34.33 26.32 35.37 29.82 C 36.46 36.27 32.65 43.25 26.31 45.26 C 17.44 48.67 6.72 40.41 8.33 30.87 M 18.29 23.37 C 14.24 24.62 12.04 28.93 11.63 32.89 C 12.55 36.52 14.54 40.27 18.29 41.59 C 23.91 44.08 30.88 39.92 31.56 33.86 C 32.83 26.79 24.96 20.34 18.29 23.37 Z" />
<path fill="#0a0200" stroke="#0a0200" stroke-width="0.09375" opacity="1.00" d=" M 50.15 19.16 C 53.84 18.82 57.91 18.60 61.04 20.95 C 67.54 24.30 69.73 33.58 65.58 39.55 C 61.08 47.50 48.45 48.36 42.84 41.15 C 36.06 34.11 40.55 20.87 50.15 19.16 M 50.39 23.43 C 45.85 24.96 43.35 30.33 44.60 34.86 C 45.72 39.96 51.63 43.59 56.62 41.58 C 60.30 40.36 62.46 36.71 63.18 33.08 C 63.34 26.78 56.66 20.72 50.39 23.43 Z" />
<path fill="#0a0200" stroke="#0a0200" stroke-width="0.09375" opacity="1.00" d=" M 80.38 19.46 C 84.28 18.72 88.94 18.21 92.36 20.71 C 97.43 23.33 99.88 29.52 98.96 35.01 C 97.91 39.51 94.80 43.56 90.44 45.29 C 84.96 47.22 78.35 46.01 74.56 41.36 C 67.86 34.72 71.49 22.13 80.38 19.46 M 82.42 23.39 C 78.36 24.54 75.43 28.61 75.79 32.85 C 75.79 38.47 81.64 43.05 87.09 41.88 C 90.21 41.07 92.98 38.73 93.95 35.60 C 96.92 28.97 89.33 20.60 82.42 23.39 Z" />
<path fill="#0a0200" stroke="#0a0200" stroke-width="0.09375" opacity="1.00" d=" M 112.20 19.26 C 116.48 18.87 121.42 18.13 125.05 21.06 C 133.21 25.76 133.02 39.18 125.01 43.96 C 121.52 46.64 116.96 46.12 112.85 45.87 C 108.14 44.30 103.63 40.47 102.80 35.36 C 101.06 28.65 105.52 21.13 112.20 19.26 M 114.46 23.40 C 110.71 24.60 107.67 28.20 107.81 32.25 C 107.50 37.68 112.77 42.53 118.10 41.97 C 122.38 41.08 125.39 37.24 126.00 33.03 C 126.15 27.37 120.33 21.17 114.46 23.40 Z" />
<path fill="#0a0200" stroke="#0a0200" stroke-width="0.09375" opacity="1.00" d=" M 144.45 19.13 C 147.22 18.87 150.03 18.86 152.79 19.16 C 156.82 20.84 160.72 23.66 161.84 28.12 C 164.94 36.38 158.02 46.71 149.01 46.04 C 139.88 47.22 131.52 36.59 135.20 28.04 C 136.65 23.79 140.11 20.38 144.45 19.13 M 146.23 23.26 C 143.63 24.02 141.33 25.79 140.03 28.18 C 138.07 32.63 139.57 38.84 144.31 40.84 C 148.91 43.82 155.36 40.88 157.09 35.94 C 160.37 29.54 153.15 20.94 146.23 23.26 Z" />
<path fill="#0a0200" stroke="#0a0200" stroke-width="0.09375" opacity="1.00" d=" M 175.34 19.37 C 179.57 18.69 184.48 18.29 188.08 21.13 C 195.73 25.66 196.01 37.79 189.12 43.15 C 185.37 46.42 180.04 46.47 175.42 45.57 C 170.71 43.54 166.29 39.40 165.75 34.04 C 164.90 27.67 169.39 21.42 175.34 19.37 M 178.11 23.16 C 172.05 24.34 168.74 31.87 171.98 37.12 C 174.98 43.09 184.55 43.78 187.67 37.55 C 192.24 31.31 185.81 20.92 178.11 23.16 Z" />
<path fill="#0a0200" stroke="#0a0200" stroke-width="0.09375" opacity="1.00" d=" M 207.39 19.47 C 211.49 18.49 216.20 18.62 219.65 21.35 C 227.97 26.28 227.07 40.25 218.44 44.42 C 211.75 48.34 202.84 45.11 199.27 38.47 C 195.47 31.31 199.75 21.86 207.39 19.47 M 208.33 23.48 C 201.75 25.31 200.17 34.66 204.77 39.22 C 207.40 41.66 211.33 42.88 214.81 41.64 C 219.81 40.19 222.87 33.91 220.71 29.14 C 219.17 24.14 213.14 21.41 208.33 23.48 Z" />
<path fill="#006003" stroke="#006003" stroke-width="0.09375" opacity="1.00" d=" M 18.29 23.37 C 24.96 20.34 32.83 26.79 31.56 33.86 C 30.88 39.92 23.91 44.08 18.29 41.59 C 14.54 40.27 12.55 36.52 11.63 32.89 C 12.04 28.93 14.24 24.62 18.29 23.37 Z" />
<path fill="#ffffff" stroke="#ffffff" stroke-width="0.09375" opacity="1.00" d=" M 50.39 23.43 C 56.66 20.72 63.34 26.78 63.18 33.08 C 62.46 36.71 60.30 40.36 56.62 41.58 C 51.63 43.59 45.72 39.96 44.60 34.86 C 43.35 30.33 45.85 24.96 50.39 23.43 Z" />
<path fill="#ffffff" stroke="#ffffff" stroke-width="0.09375" opacity="1.00" d=" M 82.42 23.39 C 89.33 20.60 96.92 28.97 93.95 35.60 C 92.98 38.73 90.21 41.07 87.09 41.88 C 81.64 43.05 75.79 38.47 75.79 32.85 C 75.43 28.61 78.36 24.54 82.42 23.39 Z" />
<path fill="#ffffff" stroke="#ffffff" stroke-width="0.09375" opacity="1.00" d=" M 114.46 23.40 C 120.33 21.17 126.15 27.37 126.00 33.03 C 125.39 37.24 122.38 41.08 118.10 41.97 C 112.77 42.53 107.50 37.68 107.81 32.25 C 107.67 28.20 110.71 24.60 114.46 23.40 Z" />
<path fill="#ffffff" stroke="#ffffff" stroke-width="0.09375" opacity="1.00" d=" M 146.23 23.26 C 153.15 20.94 160.37 29.54 157.09 35.94 C 155.36 40.88 148.91 43.82 144.31 40.84 C 139.57 38.84 138.07 32.63 140.03 28.18 C 141.33 25.79 143.63 24.02 146.23 23.26 Z" />
<path fill="#ffffff" stroke="#ffffff" stroke-width="0.09375" opacity="1.00" d=" M 178.11 23.16 C 185.81 20.92 192.24 31.31 187.67 37.55 C 184.55 43.78 174.98 43.09 171.98 37.12 C 168.74 31.87 172.05 24.34 178.11 23.16 Z" />
<path fill="#ffffff" stroke="#ffffff" stroke-width="0.09375" opacity="1.00" d=" M 208.33 23.48 C 213.14 21.41 219.17 24.14 220.71 29.14 C 222.87 33.91 219.81 40.19 214.81 41.64 C 211.33 42.88 207.40 41.66 204.77 39.22 C 200.17 34.66 201.75 25.31 208.33 23.48 Z" />
</svg>
