<?xml version="1.0" encoding="UTF-8" ?>
<!DOCTYPE svg PUBLIC "-//W3C//DTD SVG 1.1//EN" "http://www.w3.org/Graphics/SVG/1.1/DTD/svg11.dtd">
<svg width="234pt" height="64pt" viewBox="0 0 234 64" version="1.1" xmlns="http://www.w3.org/2000/svg">
<path fill="#ffffff" stroke="#ffffff" stroke-width="0.09375" opacity="1.00" d=" M 0.00 0.00 L 234.00 0.00 L 234.00 64.00 L 0.00 64.00 L 0.00 0.00 M 16.23 20.19 C 10.82 22.30 7.53 28.37 8.36 34.07 C 8.98 42.60 19.20 48.48 26.95 45.00 C 32.96 42.80 36.38 36.03 35.37 29.84 C 33.80 21.47 23.87 16.58 16.23 20.19 M 50.20 19.16 C 40.57 20.82 36.05 34.10 42.84 41.15 C 48.46 48.37 61.13 47.50 65.61 39.50 C 69.72 33.53 67.52 24.27 61.03 20.95 C 57.92 18.61 53.87 18.82 50.20 19.16 M 80.37 19.47 C 71.22 22.16 67.82 35.40 75.04 41.84 C 78.65 46.05 84.58 46.90 89.72 45.59 C 94.41 43.97 97.89 39.77 98.97 34.97 C 99.86 29.48 97.41 23.29 92.33 20.69 C 88.90 18.22 84.25 18.72 80.37 19.47 M 112.20 19.26 C 105.53 21.13 101.08 28.63 102.80 35.34 C 103.62 40.45 108.13 44.30 112.84 45.87 C 116.95 46.12 121.50 46.64 124.99 43.97 C 132.98 39.22 133.22 25.87 125.14 21.11 C 121.50 18.13 116.52 18.86 112.20 19.26 M 138.65 22.44 C 135.61 25.90 133.24 30.80 134.78 35.43 C 135.47 39.58 138.77 42.72 142.21 44.82 C 145.28 46.73 149.03 45.83 152.44 45.96 C 160.03 43.68 164.72 34.83 161.58 27.37 C 158.44 18.27 145.35 16.02 138.65 22.44 M 175.30 19.39 C 173.69 20.03 172.19 20.91 170.79 21.93 C 164.68 26.64 163.70 36.92 169.96 41.94 C 175.50 48.10 186.88 47.47 191.51 40.53 C 196.18 34.40 194.37 24.30 187.40 20.71 C 183.92 18.23 179.26 18.78 175.30 19.39 M 207.42 19.46 C 198.38 22.07 194.49 34.84 201.55 41.46 C 206.10 46.86 214.79 47.61 220.27 43.24 C 227.50 38.02 227.17 25.25 219.10 21.00 C 215.77 18.50 211.28 18.60 207.42 19.46 Z" />
<path fill="#0a0200" stroke="#0a0200" stroke-width="0.09375" opacity="1.00" d=" M 16.23 20.19 C 23.87 16.58 33.80 21.47 35.37 29.84 C 36.38 36.03 32.96 42.80 26.95 45.00 C 19.20 48.48 8.98 42.60 8.36 34.07 C 7.53 28.37 10.82 22.30 16.23 20.19 M 18.38 23.34 C 15.45 24.20 13.38 26.74 12.42 29.55 C 10.53 33.25 12.98 37.65 15.78 40.16 C 20.82 44.49 29.61 41.80 31.21 35.30 C 33.85 27.99 25.59 20.08 18.38 23.34 Z" />
<path fill="#0a0200" stroke="#0a0200" stroke-width="0.09375" opacity="1.00" d=" M 50.20 19.16 C 53.87 18.82 57.92 18.61 61.03 20.95 C 67.52 24.27 69.72 33.53 65.61 39.50 C 61.13 47.50 48.46 48.37 42.84 41.15 C 36.05 34.10 40.57 20.82 50.20 19.16 M 50.31 23.46 C 45.39 25.19 42.97 31.38 44.99 36.10 C 46.66 40.57 52.04 43.35 56.60 41.59 C 60.40 40.35 62.42 36.52 63.40 32.90 C 63.03 26.70 56.64 20.71 50.31 23.46 Z" />
<path fill="#0a0200" stroke="#0a0200" stroke-width="0.09375" opacity="1.00" d=" M 80.37 19.47 C 84.25 18.72 88.90 18.22 92.33 20.69 C 97.41 23.29 99.86 29.48 98.97 34.97 C 97.89 39.77 94.41 43.97 89.72 45.59 C 84.58 46.90 78.65 46.05 75.04 41.84 C 67.82 35.40 71.22 22.16 80.37 19.47 M 82.41 23.40 C 78.36 24.54 75.45 28.59 75.79 32.81 C 75.76 38.45 81.63 43.05 87.08 41.88 C 90.22 41.07 93.01 38.71 93.97 35.56 C 96.90 28.92 89.30 20.61 82.41 23.40 Z" />
<path fill="#0a0200" stroke="#0a0200" stroke-width="0.09375" opacity="1.00" d=" M 112.20 19.26 C 116.52 18.86 121.50 18.13 125.14 21.11 C 133.22 25.87 132.98 39.22 124.99 43.97 C 121.50 46.64 116.95 46.12 112.84 45.87 C 108.13 44.30 103.62 40.45 102.80 35.34 C 101.08 28.63 105.53 21.13 112.20 19.26 M 114.45 23.41 C 110.70 24.60 107.68 28.21 107.80 32.25 C 107.50 37.65 112.71 42.46 118.02 41.99 C 122.34 41.14 125.38 37.26 126.00 33.03 C 126.15 27.38 120.32 21.16 114.45 23.41 Z" />
<path fill="#0a0200" stroke="#0a0200" stroke-width="0.09375" opacity="1.00" d=" M 138.65 22.44 C 145.35 16.02 158.44 18.27 161.58 27.37 C 164.72 34.83 160.03 43.68 152.44 45.96 C 149.03 45.83 145.28 46.73 142.21 44.82 C 138.77 42.72 135.47 39.58 134.78 35.43 C 133.24 30.80 135.61 25.90 138.65 22.44 M 146.08 23.32 C 143.53 24.08 141.31 25.85 140.03 28.18 C 138.07 32.63 139.57 38.85 144.32 40.84 C 148.91 43.81 155.35 40.88 157.09 35.95 C 160.41 29.50 153.02 20.80 146.08 23.32 Z" />
<path fill="#0a0200" stroke="#0a0200" stroke-width="0.09375" opacity="1.00" d=" M 175.30 19.39 C 179.26 18.78 183.92 18.23 187.40 20.71 C 194.37 24.30 196.18 34.40 191.51 40.53 C 186.88 47.47 175.50 48.10 169.96 41.94 C 163.70 36.92 164.68 26.64 170.79 21.93 C 172.19 20.91 173.69 20.03 175.30 19.39 M 178.15 23.15 C 173.41 24.17 169.95 29.01 170.86 33.84 C 171.49 39.70 178.76 44.12 184.05 41.02 C 187.14 39.63 188.57 36.28 189.27 33.17 C 189.49 27.51 184.13 21.39 178.15 23.15 Z" />
<path fill="#0a0200" stroke="#0a0200" stroke-width="0.09375" opacity="1.00" d=" M 207.42 19.46 C 211.28 18.60 215.77 18.50 219.10 21.00 C 227.17 25.25 227.50 38.02 220.27 43.24 C 214.79 47.61 206.10 46.86 201.55 41.46 C 194.49 34.84 198.38 22.07 207.42 19.46 M 208.28 23.50 C 200.92 25.54 199.97 37.07 206.59 40.56 C 211.34 43.91 218.95 41.63 220.65 35.95 C 224.15 28.75 215.64 19.98 208.28 23.50 Z" />
<path fill="#006003" stroke="#006003" stroke-width="0.09375" opacity="1.00" d=" M 18.38 23.34 C 25.59 20.08 33.85 27.99 31.21 35.30 C 29.61 41.80 20.82 44.49 15.78 40.16 C 12.98 37.65 10.53 33.25 12.42 29.55 C 13.38 26.74 15.45 24.20 18.38 23.34 Z" />
<path fill="#006003" stroke="#006003" stroke-width="0.09375" opacity="1.00" d=" M 50.31 23.46 C 56.64 20.71 63.03 26.70 63.40 32.90 C 62.42 36.52 60.40 40.35 56.60 41.59 C 52.04 43.35 46.66 40.57 44.99 36.10 C 42.97 31.38 45.39 25.19 50.31 23.46 Z" />
<path fill="#ffffff" stroke="#ffffff" stroke-width="0.09375" opacity="1.00" d=" M 82.41 23.40 C 89.30 20.61 96.90 28.92 93.97 35.56 C 93.01 38.71 90.22 41.07 87.08 41.88 C 81.63 43.05 75.76 38.45 75.79 32.81 C 75.45 28.59 78.36 24.54 82.41 23.40 Z" />
<path fill="#ffffff" stroke="#ffffff" stroke-width="0.09375" opacity="1.00" d=" M 114.45 23.41 C 120.32 21.16 126.15 27.38 126.00 33.03 C 125.38 37.26 122.34 41.14 118.02 41.99 C 112.71 42.46 107.50 37.65 107.80 32.25 C 107.68 28.21 110.70 24.60 114.45 23.41 Z" />
<path fill="#ffffff" stroke="#ffffff" stroke-width="0.09375" opacity="1.00" d=" M 146.08 23.32 C 153.02 20.80 160.41 29.50 157.09 35.95 C 155.35 40.88 148.91 43.81 144.32 40.84 C 139.57 38.85 138.07 32.63 140.03 28.18 C 141.31 25.85 143.53 24.08 146.08 23.32 Z" />
<path fill="#ffffff" stroke="#ffffff" stroke-width="0.09375" opacity="1.00" d=" M 178.15 23.15 C 184.13 21.39 189.49 27.51 189.27 33.17 C 188.57 36.28 187.14 39.63 184.05 41.02 C 178.76 44.12 171.49 39.70 170.86 33.84 C 169.95 29.01 173.41 24.17 178.15 23.15 Z" />
<path fill="#ffffff" stroke="#ffffff" stroke-width="0.09375" opacity="1.00" d=" M 208.28 23.50 C 215.64 19.98 224.15 28.75 220.65 35.95 C 218.95 41.63 211.34 43.91 206.59 40.56 C 199.97 37.07 200.92 25.54 208.28 23.50 Z" />
</svg>
