<?xml version="1.0" encoding="UTF-8" ?>
<!DOCTYPE svg PUBLIC "-//W3C//DTD SVG 1.1//EN" "http://www.w3.org/Graphics/SVG/1.1/DTD/svg11.dtd">
<svg width="234pt" height="64pt" viewBox="0 0 234 64" version="1.1" xmlns="http://www.w3.org/2000/svg">
<path fill="#0a0200" stroke="#0a0200" stroke-width="0.09375" opacity="1.00" d=" M 17.43 19.69 C 24.29 17.38 32.85 21.12 34.82 28.30 C 37.71 36.14 31.43 45.60 23.07 45.88 C 15.75 46.78 8.23 40.47 8.28 33.01 C 7.83 27.14 11.82 21.41 17.43 19.69 M 18.30 23.36 C 10.67 25.62 10.05 37.54 17.03 40.98 C 22.63 44.52 30.76 40.57 31.53 34.02 C 32.97 26.89 25.02 20.34 18.30 23.36 Z" />
<path fill="#0a0200" stroke="#0a0200" stroke-width="0.09375" opacity="1.00" d=" M 49.36 19.39 C 53.76 18.42 58.70 18.79 62.31 21.76 C 69.53 26.56 69.31 38.37 62.25 43.24 C 55.15 49.00 43.14 45.64 40.30 36.88 C 37.76 29.85 42.02 21.25 49.36 19.39 M 50.34 23.44 C 42.97 25.89 42.27 37.32 49.10 40.86 C 55.58 45.17 64.44 38.10 62.93 30.92 C 61.91 25.41 55.81 21.06 50.34 23.44 Z" />
<path fill="#0a0200" stroke="#0a0200" stroke-width="0.09375" opacity="1.00" d=" M 80.43 19.45 C 84.83 18.47 89.95 18.42 93.60 21.48 C 100.78 26.31 100.85 37.91 94.05 43.12 C 90.59 46.25 85.68 46.52 81.29 45.78 C 76.42 44.12 71.98 39.94 71.31 34.65 C 70.10 28.26 74.23 21.41 80.43 19.45 M 82.35 23.41 C 77.90 24.67 75.01 29.47 75.91 34.00 C 76.60 39.85 83.77 43.96 89.06 41.13 C 92.32 39.67 94.25 36.26 94.66 32.82 C 94.76 26.79 88.37 20.99 82.35 23.41 Z" />
<path fill="#0a0200" stroke="#0a0200" stroke-width="0.09375" opacity="1.00" d=" M 112.28 19.27 C 116.54 18.79 121.42 18.22 125.06 21.04 C 132.98 25.66 133.06 38.50 125.57 43.59 C 121.84 46.58 116.77 46.38 112.31 45.70 C 107.79 43.99 103.57 40.23 102.76 35.27 C 101.13 28.55 105.57 21.04 112.28 19.27 M 114.38 23.43 C 110.43 24.71 107.38 28.68 107.82 32.92 C 107.89 37.77 112.33 41.81 117.04 42.04 C 122.12 41.79 125.96 36.90 126.02 32.00 C 125.38 26.69 119.97 21.22 114.38 23.43 Z" />
<path fill="#0a0200" stroke="#0a0200" stroke-width="0.09375" opacity="1.00" d=" M 144.29 19.22 C 148.23 18.81 152.70 18.31 156.06 20.87 C 164.18 25.16 164.58 37.97 157.32 43.28 C 153.74 46.39 148.71 46.49 144.27 45.72 C 138.62 43.68 134.19 38.19 134.25 32.04 C 134.81 26.33 138.58 20.76 144.29 19.22 M 146.26 23.26 C 141.60 24.42 138.23 29.24 139.35 34.05 C 139.89 39.76 146.96 43.81 152.11 41.20 C 155.40 39.84 157.39 36.46 157.93 33.05 C 158.16 27.24 152.22 21.31 146.26 23.26 Z" />
<path fill="#0a0200" stroke="#0a0200" stroke-width="0.09375" opacity="1.00" d=" M 175.34 19.39 C 179.77 18.54 184.89 18.41 188.59 21.45 C 195.78 26.27 195.82 37.92 189.09 43.18 C 185.33 46.41 180.00 46.51 175.40 45.56 C 170.33 43.41 165.78 38.76 165.62 32.97 C 165.49 26.96 169.68 21.31 175.34 19.39 M 177.37 23.39 C 172.95 24.66 169.99 29.39 170.87 33.93 C 171.56 39.76 178.82 44.11 184.08 41.00 C 186.86 39.73 188.34 36.82 189.06 33.99 C 190.25 27.81 183.73 20.78 177.37 23.39 Z" />
<path fill="#0a0200" stroke="#0a0200" stroke-width="0.09375" opacity="1.00" d=" M 207.43 19.47 C 214.28 17.29 222.83 20.97 224.79 28.16 C 227.75 36.05 221.57 45.78 213.05 45.97 C 204.38 47.20 195.89 38.16 198.24 29.58 C 199.21 24.84 202.91 21.03 207.43 19.47 M 208.29 23.48 C 200.27 25.73 200.12 38.66 207.95 41.27 C 214.82 44.88 223.43 37.42 221.07 30.14 C 219.87 24.63 213.52 21.20 208.29 23.48 Z" />
<path fill="#006003" stroke="#006003" stroke-width="0.09375" opacity="1.00" d=" M 18.30 23.36 C 25.02 20.34 32.97 26.89 31.53 34.02 C 30.76 40.57 22.63 44.52 17.03 40.98 C 10.05 37.54 10.67 25.62 18.30 23.36 Z" />
</svg>
