<?xml version="1.0" encoding="UTF-8" ?>
<!DOCTYPE svg PUBLIC "-//W3C//DTD SVG 1.1//EN" "http://www.w3.org/Graphics/SVG/1.1/DTD/svg11.dtd">
<svg width="234pt" height="64pt" viewBox="0 0 234 64" version="1.1" xmlns="http://www.w3.org/2000/svg">
<path fill="#0a0200" stroke="#0a0200" stroke-width="0.09375" opacity="1.00" d=" M 17.51 19.66 C 21.79 18.49 26.67 18.95 30.21 21.81 C 37.31 26.63 37.05 38.27 30.18 43.19 C 24.72 47.51 16.11 46.66 11.64 41.29 C 5.07 34.75 8.54 22.06 17.51 19.66 M 18.35 23.35 C 10.99 25.48 10.00 36.77 16.40 40.59 C 21.62 44.45 29.96 41.35 31.30 34.97 C 33.66 27.67 25.42 20.15 18.35 23.35 Z" />
<path fill="#0a0200" stroke="#0a0200" stroke-width="0.09375" opacity="1.00" d=" M 49.33 19.40 C 53.74 18.41 58.69 18.78 62.30 21.76 C 69.53 26.56 69.31 38.37 62.25 43.25 C 55.14 48.99 43.16 45.64 40.31 36.90 C 37.76 29.87 42.00 21.27 49.33 19.40 M 50.34 23.44 C 43.54 25.74 42.22 35.91 47.96 40.08 C 52.73 44.31 60.87 41.43 62.48 35.42 C 65.20 28.48 57.37 20.35 50.34 23.44 Z" />
<path fill="#0a0200" stroke="#0a0200" stroke-width="0.09375" opacity="1.00" d=" M 80.38 19.47 C 84.52 18.57 89.40 18.32 92.96 21.06 C 99.43 24.90 101.13 34.57 96.48 40.46 C 93.12 45.69 86.18 47.19 80.48 45.51 C 76.02 43.62 71.94 39.71 71.32 34.70 C 70.09 28.32 74.18 21.46 80.38 19.47 M 82.29 23.44 C 78.22 24.63 75.31 28.81 75.97 33.07 C 75.78 39.13 82.88 43.75 88.39 41.44 C 91.97 40.11 94.26 36.51 94.64 32.80 C 94.77 26.72 88.31 21.00 82.29 23.44 Z" />
<path fill="#0a0200" stroke="#0a0200" stroke-width="0.09375" opacity="1.00" d=" M 112.17 19.30 C 116.47 18.77 121.40 18.21 125.07 21.05 C 132.96 25.67 133.06 38.46 125.61 43.56 C 121.87 46.58 116.76 46.39 112.29 45.69 C 107.77 43.97 103.55 40.21 102.75 35.24 C 101.15 28.57 105.53 21.12 112.17 19.30 M 114.38 23.43 C 110.43 24.72 107.29 28.72 107.97 33.00 C 107.84 37.87 112.42 41.83 117.08 42.04 C 122.36 41.75 126.55 36.31 125.83 31.16 C 124.91 26.17 119.62 21.34 114.38 23.43 Z" />
<path fill="#0a0200" stroke="#0a0200" stroke-width="0.09375" opacity="1.00" d=" M 144.35 19.20 C 148.27 18.81 152.72 18.31 156.07 20.87 C 164.18 25.17 164.58 37.96 157.33 43.28 C 153.72 46.39 148.66 46.51 144.21 45.70 C 138.59 43.64 134.21 38.18 134.25 32.06 C 134.80 26.33 138.60 20.73 144.35 19.20 M 146.20 23.28 C 141.98 24.41 138.56 28.56 139.26 33.07 C 139.15 39.25 146.67 44.01 152.16 41.18 C 155.43 39.80 157.40 36.43 157.94 33.03 C 158.14 27.21 152.18 21.27 146.20 23.28 Z" />
<path fill="#0a0200" stroke="#0a0200" stroke-width="0.09375" opacity="1.00" d=" M 175.36 19.38 C 179.57 18.64 184.44 18.33 188.04 21.09 C 195.71 25.63 196.03 37.75 189.12 43.15 C 185.36 46.40 180.00 46.52 175.38 45.55 C 170.69 43.52 166.29 39.38 165.75 34.04 C 164.91 27.68 169.38 21.39 175.36 19.38 M 177.32 23.41 C 172.91 24.70 169.99 29.43 170.87 33.94 C 171.57 39.76 178.82 44.10 184.07 41.01 C 186.87 39.73 188.35 36.79 189.07 33.95 C 190.22 27.75 183.67 20.75 177.32 23.41 Z" />
<path fill="#0a0200" stroke="#0a0200" stroke-width="0.09375" opacity="1.00" d=" M 207.39 19.49 C 214.25 17.27 222.83 20.96 224.79 28.16 C 227.75 36.06 221.56 45.79 213.04 45.97 C 206.94 46.84 201.02 42.59 198.72 37.13 C 195.93 30.13 200.29 21.71 207.39 19.49 M 208.34 23.47 C 200.94 25.49 199.95 37.04 206.58 40.56 C 211.35 43.89 218.91 41.64 220.66 35.98 C 224.13 28.78 215.71 20.03 208.34 23.47 Z" />
<path fill="#006003" stroke="#006003" stroke-width="0.09375" opacity="1.00" d=" M 18.35 23.35 C 25.42 20.15 33.66 27.67 31.30 34.97 C 29.96 41.35 21.62 44.45 16.40 40.59 C 10.00 36.77 10.99 25.48 18.35 23.35 Z" />
<path fill="#006003" stroke="#006003" stroke-width="0.09375" opacity="1.00" d=" M 50.34 23.44 C 57.37 20.35 65.20 28.48 62.48 35.42 C 60.87 41.43 52.73 44.31 47.96 40.08 C 42.22 35.91 43.54 25.74 50.34 23.44 Z" />
<path fill="#006003" stroke="#006003" stroke-width="0.09375" opacity="1.00" d=" M 82.29 23.44 C 88.31 21.00 94.77 26.72 94.64 32.80 C 94.26 36.51 91.97 40.11 88.39 41.44 C 82.88 43.75 75.78 39.13 75.97 33.07 C 75.31 28.81 78.22 24.63 82.29 23.44 Z" />
<path fill="#006003" stroke="#006003" stroke-width="0.09375" opacity="1.00" d=" M 114.38 23.43 C 119.62 21.34 124.91 26.17 125.83 31.16 C 126.55 36.31 122.36 41.75 117.08 42.04 C 112.42 41.83 107.84 37.87 107.97 33.00 C 107.29 28.72 110.43 24.72 114.38 23.43 Z" />
</svg>
