<?xml version="1.0" encoding="UTF-8" ?>
<!DOCTYPE svg PUBLIC "-//W3C//DTD SVG 1.1//EN" "http://www.w3.org/Graphics/SVG/1.1/DTD/svg11.dtd">
<svg width="234pt" height="64pt" viewBox="0 0 234 64" version="1.1" xmlns="http://www.w3.org/2000/svg">
<path fill="#0a0200" stroke="#0a0200" stroke-width="0.09375" opacity="1.00" d=" M 17.45 19.68 C 21.98 18.37 27.12 19.07 30.75 22.22 C 38.00 27.74 36.53 40.40 28.37 44.33 C 20.43 49.13 8.79 43.05 8.33 33.78 C 7.54 27.66 11.55 21.46 17.45 19.68 M 18.31 23.36 C 10.98 25.52 10.01 36.76 16.39 40.59 C 21.59 44.45 29.93 41.37 31.30 35.01 C 33.68 27.69 25.40 20.12 18.31 23.36 Z" />
<path fill="#0a0200" stroke="#0a0200" stroke-width="0.09375" opacity="1.00" d=" M 49.34 19.40 C 56.50 17.29 65.22 21.21 67.15 28.70 C 69.92 36.93 62.67 46.42 54.03 46.00 C 46.72 46.70 39.68 40.29 39.58 32.97 C 39.34 26.91 43.39 20.96 49.34 19.40 M 50.36 23.44 C 43.54 25.72 42.21 35.90 47.95 40.08 C 52.71 44.30 60.83 41.45 62.46 35.46 C 65.23 28.52 57.39 20.35 50.36 23.44 Z" />
<path fill="#0a0200" stroke="#0a0200" stroke-width="0.09375" opacity="1.00" d=" M 80.40 19.46 C 84.56 18.56 89.46 18.34 93.02 21.10 C 99.71 25.11 101.13 35.21 96.04 41.07 C 91.05 47.78 79.85 47.88 74.60 41.40 C 67.83 34.77 71.48 22.11 80.40 19.46 M 82.36 23.42 C 78.27 24.58 75.31 28.76 75.97 33.04 C 75.75 39.13 82.91 43.78 88.43 41.42 C 91.96 40.09 94.24 36.53 94.63 32.86 C 94.82 26.79 88.39 21.03 82.36 23.42 Z" />
<path fill="#0a0200" stroke="#0a0200" stroke-width="0.09375" opacity="1.00" d=" M 112.22 19.28 C 116.47 18.80 121.35 18.20 124.98 21.00 C 132.98 25.58 133.09 38.50 125.55 43.60 C 121.82 46.59 116.73 46.39 112.28 45.69 C 107.78 43.97 103.58 40.23 102.76 35.29 C 101.12 28.59 105.53 21.09 112.22 19.28 M 114.38 23.43 C 110.43 24.72 107.29 28.72 107.97 33.01 C 107.85 37.84 112.37 41.77 116.98 42.05 C 122.06 41.82 125.99 36.94 125.97 32.01 C 125.44 26.69 119.94 21.25 114.38 23.43 Z" />
<path fill="#0a0200" stroke="#0a0200" stroke-width="0.09375" opacity="1.00" d=" M 144.34 19.21 C 148.27 18.80 152.73 18.31 156.08 20.88 C 164.18 25.19 164.58 37.97 157.33 43.28 C 153.73 46.39 148.68 46.50 144.24 45.71 C 138.60 43.66 134.20 38.18 134.25 32.05 C 134.81 26.32 138.60 20.73 144.34 19.21 M 146.23 23.29 C 141.56 24.44 138.23 29.30 139.36 34.10 C 139.95 39.85 147.07 43.84 152.24 41.16 C 155.46 39.74 157.43 36.38 157.93 32.99 C 158.11 27.18 152.18 21.30 146.23 23.29 Z" />
<path fill="#0a0200" stroke="#0a0200" stroke-width="0.09375" opacity="1.00" d=" M 175.31 19.41 C 179.77 18.52 184.92 18.41 188.64 21.48 C 195.77 26.31 195.81 37.87 189.14 43.14 C 185.39 46.39 180.06 46.51 175.45 45.57 C 170.71 43.57 166.30 39.39 165.75 34.03 C 164.92 27.70 169.36 21.42 175.31 19.41 M 177.39 23.39 C 173.29 24.58 170.36 28.72 170.76 32.99 C 170.90 38.17 175.96 42.45 181.04 42.02 C 184.57 41.55 187.60 38.92 188.59 35.50 C 191.34 29.08 184.27 20.56 177.39 23.39 Z" />
<path fill="#0a0200" stroke="#0a0200" stroke-width="0.09375" opacity="1.00" d=" M 207.40 19.48 C 214.27 17.26 222.87 20.99 224.80 28.21 C 227.72 36.09 221.56 45.76 213.07 45.97 C 206.97 46.86 201.05 42.62 198.73 37.16 C 195.92 30.15 200.28 21.71 207.40 19.48 M 208.33 23.47 C 200.32 25.68 200.09 38.57 207.88 41.24 C 214.73 44.91 223.39 37.50 221.09 30.19 C 219.91 24.68 213.58 21.20 208.33 23.47 Z" />
<path fill="#006003" stroke="#006003" stroke-width="0.09375" opacity="1.00" d=" M 18.31 23.36 C 25.40 20.12 33.68 27.69 31.30 35.01 C 29.93 41.37 21.59 44.45 16.39 40.59 C 10.01 36.76 10.98 25.52 18.31 23.36 Z" />
<path fill="#006003" stroke="#006003" stroke-width="0.09375" opacity="1.00" d=" M 50.36 23.44 C 57.39 20.35 65.23 28.52 62.46 35.46 C 60.83 41.45 52.71 44.30 47.95 40.08 C 42.21 35.90 43.54 25.72 50.36 23.44 Z" />
<path fill="#006003" stroke="#006003" stroke-width="0.09375" opacity="1.00" d=" M 82.36 23.42 C 88.39 21.03 94.82 26.79 94.63 32.86 C 94.24 36.53 91.96 40.09 88.43 41.42 C 82.91 43.78 75.75 39.13 75.97 33.04 C 75.31 28.76 78.27 24.58 82.36 23.42 Z" />
<path fill="#006003" stroke="#006003" stroke-width="0.09375" opacity="1.00" d=" M 114.38 23.43 C 119.94 21.25 125.44 26.69 125.97 32.01 C 125.99 36.94 122.06 41.82 116.98 42.05 C 112.37 41.77 107.85 37.84 107.97 33.01 C 107.29 28.72 110.43 24.72 114.38 23.43 Z" />
<path fill="#006003" stroke="#006003" stroke-width="0.09375" opacity="1.00" d=" M 146.23 23.29 C 152.18 21.30 158.11 27.18 157.93 32.99 C 157.43 36.38 155.46 39.74 152.24 41.16 C 147.07 43.84 139.95 39.85 139.36 34.10 C 138.23 29.30 141.56 24.44 146.23 23.29 Z" />
</svg>
