<?xml version="1.0" encoding="UTF-8" ?>
<!DOCTYPE svg PUBLIC "-//W3C//DTD SVG 1.1//EN" "http://www.w3.org/Graphics/SVG/1.1/DTD/svg11.dtd">
<svg width="234pt" height="64pt" viewBox="0 0 234 64" version="1.1" xmlns="http://www.w3.org/2000/svg">
<path fill="#ffffff" stroke="#ffffff" stroke-width="0.09375" opacity="1.00" d=" M 0.00 0.00 L 234.00 0.00 L 234.00 64.00 L 0.00 64.00 L 0.00 0.00 M 8.33 30.88 C 6.72 40.42 17.45 48.68 26.32 45.26 C 32.65 43.24 36.45 36.28 35.38 29.84 C 34.34 26.30 32.50 22.77 29.05 21.07 C 21.26 15.73 8.89 21.23 8.33 30.88 M 50.03 19.19 C 42.71 20.72 37.91 28.91 40.09 36.05 C 42.07 44.23 52.34 48.52 59.73 44.75 C 66.22 41.94 69.65 33.59 66.57 27.12 C 64.05 20.74 56.49 17.78 50.03 19.19 M 80.38 19.46 C 73.57 21.65 69.33 29.74 71.74 36.53 C 74.04 44.10 83.14 48.20 90.43 45.29 C 95.99 43.05 99.91 36.91 99.01 30.89 C 98.58 26.72 96.15 22.68 92.39 20.72 C 88.96 18.22 84.29 18.71 80.38 19.46 M 112.14 19.29 C 103.30 21.62 99.33 33.68 105.25 40.69 C 110.16 47.27 120.69 48.06 126.74 42.68 C 133.29 36.92 132.41 24.73 124.44 20.68 C 120.91 18.08 116.19 18.95 112.14 19.29 M 144.43 19.14 C 139.83 20.44 136.26 24.23 134.96 28.79 C 131.96 37.20 140.14 47.15 148.97 46.04 C 158.00 46.74 164.95 36.39 161.84 28.11 C 160.71 23.65 156.80 20.81 152.76 19.15 C 150.00 18.87 147.19 18.87 144.43 19.14 M 175.29 19.39 C 169.35 21.45 164.91 27.69 165.75 34.04 C 166.29 39.38 170.68 43.51 175.37 45.55 C 180.00 46.49 185.38 46.43 189.14 43.13 C 196.03 37.75 195.71 25.61 188.04 21.10 C 184.44 18.28 179.51 18.68 175.29 19.39 M 207.41 19.47 C 201.00 21.56 196.41 28.76 198.28 35.41 C 199.98 43.92 210.81 48.92 218.36 44.46 C 227.05 40.33 228.00 26.33 219.67 21.35 C 216.22 18.62 211.50 18.48 207.41 19.47 Z" />
<path fill="#0a0200" stroke="#0a0200" stroke-width="0.09375" opacity="1.00" d=" M 8.33 30.88 C 8.89 21.23 21.26 15.73 29.05 21.07 C 32.50 22.77 34.34 26.30 35.38 29.84 C 36.45 36.28 32.65 43.24 26.32 45.26 C 17.45 48.68 6.72 40.42 8.33 30.88 M 18.28 23.37 C 14.23 24.62 12.04 28.93 11.63 32.89 C 12.55 36.54 14.58 40.32 18.35 41.62 C 24.01 44.07 30.96 39.83 31.58 33.75 C 32.75 26.71 24.92 20.36 18.28 23.37 Z" />
<path fill="#0a0200" stroke="#0a0200" stroke-width="0.09375" opacity="1.00" d=" M 50.03 19.19 C 56.49 17.78 64.05 20.74 66.57 27.12 C 69.65 33.59 66.22 41.94 59.73 44.75 C 52.34 48.52 42.07 44.23 40.09 36.05 C 37.91 28.91 42.71 20.72 50.03 19.19 M 50.30 23.47 C 45.83 25.05 43.35 30.37 44.60 34.88 C 45.71 39.73 51.05 43.26 55.94 41.80 C 60.08 40.79 62.40 36.74 63.41 32.89 C 63.01 26.69 56.64 20.71 50.30 23.47 Z" />
<path fill="#0a0200" stroke="#0a0200" stroke-width="0.09375" opacity="1.00" d=" M 80.38 19.46 C 84.29 18.71 88.96 18.22 92.39 20.72 C 96.15 22.68 98.58 26.72 99.01 30.89 C 99.91 36.91 95.99 43.05 90.43 45.29 C 83.14 48.20 74.04 44.10 71.74 36.53 C 69.33 29.74 73.57 21.65 80.38 19.46 M 82.29 23.44 C 78.18 24.63 75.53 28.82 75.54 32.98 C 76.12 36.50 78.21 39.97 81.69 41.25 C 86.62 43.72 92.82 40.22 94.15 35.09 C 96.55 28.46 89.05 20.62 82.29 23.44 Z" />
<path fill="#0a0200" stroke="#0a0200" stroke-width="0.09375" opacity="1.00" d=" M 112.14 19.29 C 116.19 18.95 120.91 18.08 124.44 20.68 C 132.41 24.73 133.29 36.92 126.74 42.68 C 120.69 48.06 110.16 47.27 105.25 40.69 C 99.33 33.68 103.30 21.62 112.14 19.29 M 114.32 23.46 C 110.58 24.67 107.96 28.24 107.56 32.10 C 107.62 37.15 111.86 41.76 116.93 42.05 C 123.00 41.86 127.99 34.48 125.09 28.93 C 123.43 24.92 118.71 21.57 114.32 23.46 Z" />
<path fill="#0a0200" stroke="#0a0200" stroke-width="0.09375" opacity="1.00" d=" M 144.43 19.14 C 147.19 18.87 150.00 18.87 152.76 19.15 C 156.80 20.81 160.71 23.65 161.84 28.11 C 164.95 36.39 158.00 46.74 148.97 46.04 C 140.14 47.15 131.96 37.20 134.96 28.79 C 136.26 24.23 139.83 20.44 144.43 19.14 M 146.16 23.29 C 141.21 24.54 138.04 29.85 139.47 34.82 C 140.54 40.18 147.34 43.76 152.26 41.13 C 155.47 39.75 157.32 36.43 157.95 33.13 C 158.20 27.27 152.18 21.23 146.16 23.29 Z" />
<path fill="#0a0200" stroke="#0a0200" stroke-width="0.09375" opacity="1.00" d=" M 175.29 19.39 C 179.51 18.68 184.44 18.28 188.04 21.10 C 195.71 25.61 196.03 37.75 189.14 43.13 C 185.38 46.43 180.00 46.49 175.37 45.55 C 170.68 43.51 166.29 39.38 165.75 34.04 C 164.91 27.69 169.35 21.45 175.29 19.39 M 178.23 23.13 C 174.14 24.04 170.78 27.69 170.76 31.97 C 170.28 37.51 175.56 42.49 181.01 42.02 C 184.41 41.58 187.43 39.12 188.47 35.83 C 191.39 29.69 185.06 21.19 178.23 23.13 Z" />
<path fill="#0a0200" stroke="#0a0200" stroke-width="0.09375" opacity="1.00" d=" M 207.41 19.47 C 211.50 18.48 216.22 18.62 219.67 21.35 C 228.00 26.33 227.05 40.33 218.36 44.46 C 210.81 48.92 199.98 43.92 198.28 35.41 C 196.41 28.76 201.00 21.56 207.41 19.47 M 208.33 23.48 C 200.91 25.50 199.96 37.11 206.62 40.58 C 211.37 43.90 218.95 41.61 220.65 35.96 C 224.14 28.77 215.68 20.01 208.33 23.48 Z" />
<path fill="#006003" stroke="#006003" stroke-width="0.09375" opacity="1.00" d=" M 18.28 23.37 C 24.92 20.36 32.75 26.71 31.58 33.75 C 30.96 39.83 24.01 44.07 18.35 41.62 C 14.58 40.32 12.55 36.54 11.63 32.89 C 12.04 28.93 14.23 24.62 18.28 23.37 Z" />
<path fill="#006003" stroke="#006003" stroke-width="0.09375" opacity="1.00" d=" M 50.30 23.47 C 56.64 20.71 63.01 26.69 63.41 32.89 C 62.40 36.74 60.08 40.79 55.94 41.80 C 51.05 43.26 45.71 39.73 44.60 34.88 C 43.35 30.37 45.83 25.05 50.30 23.47 Z" />
<path fill="#006003" stroke="#006003" stroke-width="0.09375" opacity="1.00" d=" M 82.29 23.44 C 89.05 20.62 96.55 28.46 94.15 35.09 C 92.82 40.22 86.62 43.72 81.69 41.25 C 78.21 39.97 76.12 36.50 75.54 32.98 C 75.53 28.82 78.18 24.63 82.29 23.44 Z" />
<path fill="#006003" stroke="#006003" stroke-width="0.09375" opacity="1.00" d=" M 114.32 23.46 C 118.71 21.57 123.43 24.92 125.09 28.93 C 127.99 34.48 123.00 41.86 116.93 42.05 C 111.86 41.76 107.62 37.15 107.56 32.10 C 107.96 28.24 110.58 24.67 114.32 23.46 Z" />
<path fill="#ffffff" stroke="#ffffff" stroke-width="0.09375" opacity="1.00" d=" M 146.16 23.29 C 152.18 21.23 158.20 27.27 157.95 33.13 C 157.32 36.43 155.47 39.75 152.26 41.13 C 147.34 43.76 140.54 40.18 139.47 34.82 C 138.04 29.85 141.21 24.54 146.16 23.29 Z" />
<path fill="#ffffff" stroke="#ffffff" stroke-width="0.09375" opacity="1.00" d=" M 178.23 23.13 C 185.06 21.19 191.39 29.69 188.47 35.83 C 187.43 39.12 184.41 41.58 181.01 42.02 C 175.56 42.49 170.28 37.51 170.76 31.97 C 170.78 27.69 174.14 24.04 178.23 23.13 Z" />
<path fill="#ffffff" stroke="#ffffff" stroke-width="0.09375" opacity="1.00" d=" M 208.33 23.48 C 215.68 20.01 224.14 28.77 220.65 35.96 C 218.95 41.61 211.37 43.90 206.62 40.58 C 199.96 37.11 200.91 25.50 208.33 23.48 Z" />
</svg>
