<?xml version="1.0" encoding="UTF-8" ?>
<!DOCTYPE svg PUBLIC "-//W3C//DTD SVG 1.1//EN" "http://www.w3.org/Graphics/SVG/1.1/DTD/svg11.dtd">
<svg width="234pt" height="64pt" viewBox="0 0 234 64" version="1.1" xmlns="http://www.w3.org/2000/svg">
<path fill="#0a0200" stroke="#0a0200" stroke-width="0.09375" opacity="1.00" d=" M 17.45 19.68 C 21.72 18.49 26.62 18.92 30.17 21.79 C 37.32 26.59 37.06 38.32 30.14 43.22 C 24.68 47.50 16.12 46.66 11.66 41.31 C 5.08 34.79 8.51 22.12 17.45 19.68 M 18.30 23.36 C 10.98 25.52 10.01 36.77 16.39 40.59 C 21.60 44.45 29.94 41.36 31.30 35.00 C 33.68 27.67 25.39 20.12 18.30 23.36 Z" />
<path fill="#0a0200" stroke="#0a0200" stroke-width="0.09375" opacity="1.00" d=" M 49.34 19.40 C 53.74 18.41 58.69 18.79 62.30 21.76 C 69.53 26.56 69.31 38.38 62.24 43.25 C 55.14 48.99 43.14 45.64 40.30 36.89 C 37.76 29.86 42.01 21.26 49.34 19.40 M 50.36 23.44 C 43.54 25.72 42.21 35.90 47.95 40.08 C 52.70 44.29 60.82 41.46 62.46 35.48 C 65.24 28.53 57.41 20.35 50.36 23.44 Z" />
<path fill="#0a0200" stroke="#0a0200" stroke-width="0.09375" opacity="1.00" d=" M 80.39 19.47 C 84.80 18.45 89.95 18.43 93.61 21.49 C 100.78 26.33 100.85 37.92 94.04 43.13 C 90.58 46.25 85.66 46.51 81.28 45.77 C 76.69 44.19 72.43 40.40 71.47 35.48 C 69.68 28.94 73.97 21.53 80.39 19.47 M 82.35 23.42 C 78.27 24.59 75.31 28.76 75.97 33.04 C 75.76 39.13 82.91 43.77 88.43 41.43 C 91.96 40.10 94.23 36.54 94.63 32.87 C 94.82 26.80 88.39 21.02 82.35 23.42 Z" />
<path fill="#0a0200" stroke="#0a0200" stroke-width="0.09375" opacity="1.00" d=" M 112.25 19.28 C 116.49 18.80 121.35 18.21 124.98 21.00 C 132.98 25.58 133.09 38.50 125.56 43.60 C 121.83 46.59 116.74 46.38 112.29 45.69 C 107.79 43.98 103.58 40.24 102.77 35.29 C 101.12 28.59 105.55 21.07 112.25 19.28 M 114.38 23.43 C 110.43 24.72 107.29 28.72 107.97 33.01 C 107.85 37.84 112.36 41.76 116.98 42.04 C 122.31 41.82 126.58 36.31 125.82 31.12 C 124.88 26.15 119.61 21.34 114.38 23.43 Z" />
<path fill="#0a0200" stroke="#0a0200" stroke-width="0.09375" opacity="1.00" d=" M 144.34 19.21 C 148.27 18.80 152.72 18.31 156.08 20.87 C 164.18 25.18 164.58 37.96 157.33 43.28 C 153.74 46.38 148.70 46.50 144.27 45.72 C 138.61 43.67 134.19 38.17 134.26 32.02 C 134.82 26.31 138.61 20.73 144.34 19.21 M 146.22 23.29 C 141.56 24.45 138.23 29.29 139.36 34.09 C 139.94 39.85 147.06 43.84 152.23 41.16 C 155.45 39.74 157.42 36.39 157.92 33.01 C 158.13 27.19 152.18 21.29 146.22 23.29 Z" />
<path fill="#0a0200" stroke="#0a0200" stroke-width="0.09375" opacity="1.00" d=" M 175.30 19.41 C 179.51 18.63 184.42 18.32 188.03 21.08 C 195.70 25.62 196.03 37.73 189.14 43.14 C 185.39 46.39 180.06 46.51 175.43 45.57 C 170.70 43.55 166.29 39.38 165.75 34.01 C 164.93 27.68 169.36 21.43 175.30 19.41 M 177.37 23.40 C 173.27 24.59 170.35 28.76 170.77 33.04 C 170.95 38.48 176.62 43.04 181.96 41.83 C 186.76 40.81 189.72 35.63 188.89 30.93 C 188.33 25.68 182.54 21.27 177.37 23.40 Z" />
<path fill="#0a0200" stroke="#0a0200" stroke-width="0.09375" opacity="1.00" d=" M 207.39 19.49 C 214.54 17.13 223.46 21.35 225.03 28.99 C 227.52 37.11 220.61 46.50 212.01 46.00 C 206.50 46.50 201.53 42.55 199.01 37.94 C 195.65 30.82 199.98 21.79 207.39 19.49 M 208.33 23.47 C 202.22 25.20 200.43 33.32 203.87 38.17 C 206.16 41.17 210.25 42.73 213.95 41.88 C 219.62 40.83 223.17 33.74 220.51 28.60 C 218.71 23.88 212.97 21.55 208.33 23.47 Z" />
<path fill="#006003" stroke="#006003" stroke-width="0.09375" opacity="1.00" d=" M 18.30 23.36 C 25.39 20.12 33.68 27.67 31.30 35.00 C 29.94 41.36 21.60 44.45 16.39 40.59 C 10.01 36.77 10.98 25.52 18.30 23.36 Z" />
<path fill="#006003" stroke="#006003" stroke-width="0.09375" opacity="1.00" d=" M 50.36 23.44 C 57.41 20.35 65.24 28.53 62.46 35.48 C 60.82 41.46 52.70 44.29 47.95 40.08 C 42.21 35.90 43.54 25.72 50.36 23.44 Z" />
<path fill="#006003" stroke="#006003" stroke-width="0.09375" opacity="1.00" d=" M 82.35 23.42 C 88.39 21.02 94.82 26.80 94.63 32.87 C 94.23 36.54 91.96 40.10 88.43 41.43 C 82.91 43.77 75.76 39.13 75.97 33.04 C 75.31 28.76 78.27 24.59 82.35 23.42 Z" />
<path fill="#006003" stroke="#006003" stroke-width="0.09375" opacity="1.00" d=" M 114.38 23.43 C 119.61 21.34 124.88 26.15 125.82 31.12 C 126.58 36.31 122.31 41.82 116.98 42.04 C 112.36 41.76 107.85 37.84 107.97 33.01 C 107.29 28.72 110.43 24.72 114.38 23.43 Z" />
<path fill="#006003" stroke="#006003" stroke-width="0.09375" opacity="1.00" d=" M 146.22 23.29 C 152.18 21.29 158.13 27.19 157.92 33.01 C 157.42 36.39 155.45 39.74 152.23 41.16 C 147.06 43.84 139.94 39.85 139.36 34.09 C 138.23 29.29 141.56 24.45 146.22 23.29 Z" />
<path fill="#006003" stroke="#006003" stroke-width="0.09375" opacity="1.00" d=" M 177.37 23.40 C 182.54 21.27 188.33 25.68 188.89 30.93 C 189.72 35.63 186.76 40.81 181.96 41.83 C 176.62 43.04 170.95 38.48 170.77 33.04 C 170.35 28.76 173.27 24.59 177.37 23.40 Z" />
<path fill="#006003" stroke="#006003" stroke-width="0.09375" opacity="1.00" d=" M 208.33 23.47 C 212.97 21.55 218.71 23.88 220.51 28.60 C 223.17 33.74 219.62 40.83 213.95 41.88 C 210.25 42.73 206.16 41.17 203.87 38.17 C 200.43 33.32 202.22 25.20 208.33 23.47 Z" />
</svg>
