<?xml version="1.0" encoding="UTF-8" ?>
<!DOCTYPE svg PUBLIC "-//W3C//DTD SVG 1.1//EN" "http://www.w3.org/Graphics/SVG/1.1/DTD/svg11.dtd">
<svg width="234pt" height="64pt" viewBox="0 0 234 64" version="1.1" xmlns="http://www.w3.org/2000/svg">
<path fill="#0a0200" stroke="#0a0200" stroke-width="0.09375" opacity="1.00" d=" M 17.50 19.67 C 24.34 17.40 32.87 21.14 34.82 28.31 C 37.72 36.15 31.42 45.62 23.04 45.88 C 16.29 46.69 9.31 41.38 8.42 34.63 C 7.24 28.26 11.25 21.50 17.50 19.67 M 18.28 23.37 C 10.69 25.63 10.05 37.49 16.99 40.96 C 22.59 44.53 30.77 40.58 31.54 33.99 C 32.95 26.87 25.00 20.33 18.28 23.37 Z" />
<path fill="#0a0200" stroke="#0a0200" stroke-width="0.09375" opacity="1.00" d=" M 49.34 19.41 C 56.52 17.26 65.28 21.25 67.17 28.77 C 69.88 36.99 62.64 46.40 54.03 46.00 C 47.11 46.65 40.29 40.91 39.68 34.00 C 38.86 27.65 43.05 21.02 49.34 19.41 M 50.30 23.46 C 43.53 25.79 42.24 35.90 47.94 40.07 C 52.69 44.30 60.82 41.46 62.46 35.47 C 65.24 28.50 57.35 20.31 50.30 23.46 Z" />
<path fill="#0a0200" stroke="#0a0200" stroke-width="0.09375" opacity="1.00" d=" M 80.41 19.46 C 84.32 18.64 88.93 18.30 92.39 20.70 C 98.32 23.88 100.86 32.00 97.91 38.02 C 95.86 42.61 91.16 46.25 86.00 46.06 C 78.88 46.95 71.81 40.97 71.19 33.90 C 70.44 27.73 74.46 21.35 80.41 19.46 M 82.34 23.43 C 78.26 24.60 75.32 28.77 75.96 33.04 C 75.77 39.12 82.86 43.75 88.39 41.44 C 91.94 40.12 94.25 36.55 94.63 32.86 C 94.83 26.78 88.36 21.02 82.34 23.43 Z" />
<path fill="#0a0200" stroke="#0a0200" stroke-width="0.09375" opacity="1.00" d=" M 112.20 19.30 C 116.47 18.75 121.39 18.23 125.05 21.03 C 132.98 25.66 133.07 38.50 125.56 43.60 C 121.83 46.57 116.73 46.41 112.28 45.68 C 107.76 43.99 103.58 40.21 102.76 35.27 C 101.14 28.59 105.52 21.09 112.20 19.30 M 114.30 23.46 C 110.36 24.78 107.29 28.79 107.96 33.05 C 107.89 37.85 112.35 41.75 116.94 42.04 C 122.04 41.85 126.01 36.95 125.96 32.00 C 125.46 26.64 119.86 21.21 114.30 23.46 Z" />
<path fill="#0a0200" stroke="#0a0200" stroke-width="0.09375" opacity="1.00" d=" M 144.35 19.22 C 148.30 18.76 152.77 18.35 156.14 20.90 C 163.28 24.79 164.49 35.40 159.33 41.38 C 154.40 47.38 144.11 47.95 138.75 42.23 C 135.82 39.69 134.34 35.84 134.26 32.02 C 134.81 26.31 138.61 20.71 144.35 19.22 M 146.26 23.28 C 142.01 24.37 138.59 28.53 139.26 33.04 C 139.15 39.25 146.64 44.00 152.17 41.19 C 155.43 39.77 157.46 36.39 157.92 32.96 C 158.09 27.16 152.18 21.32 146.26 23.28 Z" />
<path fill="#0a0200" stroke="#0a0200" stroke-width="0.09375" opacity="1.00" d=" M 175.34 19.40 C 179.77 18.51 184.90 18.43 188.60 21.46 C 195.75 26.27 195.83 37.83 189.16 43.11 C 185.41 46.38 180.04 46.55 175.41 45.55 C 170.34 43.44 165.81 38.77 165.62 33.01 C 165.46 26.99 169.67 21.30 175.34 19.40 M 176.57 23.70 C 169.45 26.14 168.80 37.12 175.39 40.58 C 180.72 44.48 188.74 40.04 188.92 33.63 C 190.82 34.44 190.86 30.60 188.94 31.37 C 188.65 25.58 182.00 20.87 176.57 23.70 Z" />
<path fill="#0a0200" stroke="#0a0200" stroke-width="0.09375" opacity="1.00" d=" M 207.39 19.50 C 214.26 17.24 222.87 20.99 224.80 28.21 C 227.73 36.09 221.54 45.78 213.04 45.97 C 207.00 46.85 201.23 42.68 198.78 37.38 C 195.84 30.33 200.20 21.74 207.39 19.50 M 208.35 23.46 C 202.23 25.19 200.43 33.31 203.87 38.18 C 206.18 41.17 210.26 42.74 213.97 41.87 C 219.66 40.81 223.19 33.67 220.48 28.53 C 218.65 23.86 212.96 21.57 208.35 23.46 Z" />
<path fill="#006003" stroke="#006003" stroke-width="0.09375" opacity="1.00" d=" M 18.28 23.37 C 25.00 20.33 32.95 26.87 31.54 33.99 C 30.77 40.58 22.59 44.53 16.99 40.96 C 10.05 37.49 10.69 25.63 18.28 23.37 Z" />
<path fill="#006003" stroke="#006003" stroke-width="0.09375" opacity="1.00" d=" M 50.30 23.46 C 57.35 20.31 65.24 28.50 62.46 35.47 C 60.82 41.46 52.69 44.30 47.94 40.07 C 42.24 35.90 43.53 25.79 50.30 23.46 Z" />
<path fill="#006003" stroke="#006003" stroke-width="0.09375" opacity="1.00" d=" M 82.34 23.43 C 88.36 21.02 94.83 26.78 94.63 32.86 C 94.25 36.55 91.94 40.12 88.39 41.44 C 82.86 43.75 75.77 39.12 75.96 33.04 C 75.32 28.77 78.26 24.60 82.34 23.43 Z" />
<path fill="#006003" stroke="#006003" stroke-width="0.09375" opacity="1.00" d=" M 114.30 23.46 C 119.86 21.21 125.46 26.64 125.96 32.00 C 126.01 36.95 122.04 41.85 116.94 42.04 C 112.35 41.75 107.89 37.85 107.96 33.05 C 107.29 28.79 110.36 24.78 114.30 23.46 Z" />
<path fill="#006003" stroke="#006003" stroke-width="0.09375" opacity="1.00" d=" M 146.26 23.28 C 152.18 21.32 158.09 27.16 157.92 32.96 C 157.46 36.39 155.43 39.77 152.17 41.19 C 146.64 44.00 139.15 39.25 139.26 33.04 C 138.59 28.53 142.01 24.37 146.26 23.28 Z" />
<path fill="#006003" stroke="#006003" stroke-width="0.09375" opacity="1.00" d=" M 176.57 23.70 C 182.00 20.87 188.65 25.58 188.94 31.37 C 188.94 31.93 188.93 33.06 188.92 33.63 C 188.74 40.04 180.72 44.48 175.39 40.58 C 168.80 37.12 169.45 26.14 176.57 23.70 Z" />
<path fill="#006003" stroke="#006003" stroke-width="0.09375" opacity="1.00" d=" M 208.35 23.46 C 212.96 21.57 218.65 23.86 220.48 28.53 C 223.19 33.67 219.66 40.81 213.97 41.87 C 210.26 42.74 206.18 41.17 203.87 38.18 C 200.43 33.31 202.23 25.19 208.35 23.46 Z" />
<path fill="#090100" stroke="#090100" stroke-width="0.09375" opacity="0.75" d=" M 188.94 31.37 C 190.86 30.60 190.82 34.44 188.92 33.63 C 188.93 33.06 188.94 31.93 188.94 31.37 Z" />
</svg>
