<?xml version="1.0" encoding="UTF-8" ?>
<!DOCTYPE svg PUBLIC "-//W3C//DTD SVG 1.1//EN" "http://www.w3.org/Graphics/SVG/1.1/DTD/svg11.dtd">
<svg width="780pt" height="780pt" viewBox="0 0 780 780" version="1.1" xmlns="http://www.w3.org/2000/svg">
<g id="#17181aff">
<path fill="#17181a" opacity="1.00" d=" M 141.65 0.00 L 638.31 0.00 C 650.38 1.87 662.52 3.79 674.08 7.91 C 711.82 20.49 744.36 47.98 762.73 83.31 C 769.35 95.74 774.25 109.07 777.30 122.81 C 778.36 127.22 778.79 131.76 780.00 136.14 L 780.00 643.71 C 777.00 660.83 772.49 677.84 764.43 693.34 C 745.45 732.19 709.46 762.04 667.96 774.01 C 658.29 777.05 648.21 778.29 638.27 780.00 L 141.81 780.00 C 138.27 779.08 134.61 778.88 131.01 778.29 C 93.70 772.33 58.73 752.37 34.84 723.08 C 21.64 707.05 11.68 688.37 5.68 668.49 C 3.02 660.33 1.78 651.82 0.00 643.45 L 0.00 136.41 C 0.45 134.58 0.88 132.75 1.17 130.90 C 5.57 104.08 17.23 78.52 34.38 57.46 C 59.56 26.30 97.22 5.56 137.01 0.88 C 138.57 0.67 140.11 0.34 141.65 0.00 M 114.11 29.11 C 111.04 30.57 107.88 31.82 104.60 32.70 C 93.52 37.11 84.39 44.99 74.53 51.46 C 71.12 52.90 69.51 56.47 66.57 58.54 C 62.45 61.73 59.24 65.85 55.65 69.58 C 51.85 72.32 50.37 76.97 47.22 80.33 C 42.41 87.76 36.19 94.49 33.32 103.01 C 32.52 106.95 30.11 110.25 28.74 113.97 C 23.97 126.56 20.08 139.61 19.02 153.07 C 19.05 169.14 18.87 185.21 19.09 201.27 C 19.09 223.92 18.86 246.58 19.07 269.22 C 19.09 287.90 18.89 306.57 19.06 325.25 C 19.06 343.57 18.92 361.89 19.03 380.21 C 19.04 391.89 18.93 403.57 19.04 415.25 C 19.03 429.59 18.95 443.93 19.02 458.26 C 19.04 468.25 18.94 478.24 19.03 488.23 C 19.03 502.57 18.94 516.92 19.03 531.26 C 19.05 545.92 18.94 560.59 19.03 575.26 C 19.03 588.59 18.96 601.93 19.02 615.27 C 19.22 620.89 18.48 626.58 19.62 632.14 C 20.77 638.57 21.36 645.24 24.04 651.27 C 24.66 655.42 26.46 659.31 27.70 663.31 C 29.13 668.04 32.52 672.00 33.21 676.98 C 34.97 682.19 38.25 686.68 41.36 691.16 L 41.53 690.99 C 47.55 701.19 55.16 710.39 63.49 718.79 C 71.84 726.29 80.58 733.54 90.35 739.12 C 92.83 742.10 96.75 743.25 99.99 745.18 C 102.85 746.09 105.78 746.78 108.51 748.08 C 109.80 748.92 111.10 749.74 112.55 750.29 C 124.22 754.79 136.28 758.39 148.72 759.97 C 152.17 760.22 155.56 761.09 159.04 761.00 C 175.95 760.98 192.86 761.01 209.77 761.00 C 230.74 760.97 251.72 761.03 272.70 760.99 C 302.38 760.97 332.06 761.02 361.74 761.00 C 385.08 760.98 408.42 761.02 431.76 761.00 C 453.43 760.98 475.11 761.01 496.78 761.00 C 523.42 761.00 550.06 761.00 576.70 761.00 C 591.81 761.00 606.93 760.99 622.05 761.01 C 638.03 759.70 653.79 755.97 668.59 749.76 C 669.84 748.96 671.18 748.33 672.53 747.71 C 674.45 746.73 676.45 745.86 678.65 745.88 C 682.38 743.95 686.23 742.17 689.46 739.43 C 696.75 734.88 703.76 729.87 710.29 724.29 C 722.35 714.26 732.07 701.69 740.31 688.41 C 742.14 686.79 743.19 684.55 744.24 682.39 C 744.78 681.42 745.34 680.47 745.91 679.53 C 745.96 678.53 746.03 677.54 746.11 676.56 C 746.40 676.04 747.00 674.98 747.29 674.45 C 754.58 659.95 759.07 644.07 760.99 627.98 C 761.03 595.56 760.97 563.14 761.00 530.72 C 761.01 487.07 760.98 443.42 760.99 399.77 C 761.03 375.43 760.97 351.10 760.99 326.76 C 761.02 313.77 760.98 300.77 761.00 287.78 C 761.01 268.43 760.98 249.09 761.00 229.75 C 761.02 210.42 760.97 191.10 760.99 171.77 C 760.97 164.85 761.07 157.92 760.97 151.01 C 760.14 145.60 759.17 140.21 758.02 134.86 C 757.56 132.73 757.02 130.61 756.29 128.56 C 753.74 121.09 751.74 113.32 747.69 106.47 C 746.60 104.65 745.88 102.64 745.83 100.51 C 744.56 98.12 743.25 95.75 742.01 93.35 C 736.85 86.16 731.80 78.88 726.49 71.80 L 727.27 71.25 C 726.81 71.13 725.90 70.88 725.45 70.76 C 722.27 67.54 719.56 63.85 716.15 60.86 C 713.28 57.90 709.40 55.88 707.39 52.16 C 706.74 52.09 705.45 51.95 704.80 51.88 L 705.25 51.45 C 698.72 46.49 691.84 42.01 684.97 37.57 L 685.17 37.37 C 681.85 35.88 678.75 33.96 675.39 32.57 C 669.31 31.56 664.25 27.62 658.15 26.53 L 658.53 26.17 C 656.96 25.88 655.42 25.53 653.91 25.08 C 644.83 21.84 635.20 20.53 625.68 19.37 L 626.23 19.09 C 614.89 18.89 603.55 19.05 592.21 19.03 C 583.54 18.95 574.87 19.05 566.20 19.03 C 555.89 18.96 545.59 19.03 535.28 19.03 C 523.95 18.95 512.62 19.02 501.30 19.03 C 486.95 18.94 472.60 19.05 458.25 19.04 C 446.90 18.92 435.55 19.06 424.19 19.04 C 412.54 18.93 400.89 19.05 389.23 19.04 C 378.90 18.92 368.56 19.05 358.22 19.04 C 340.91 18.93 323.59 19.05 306.27 19.08 C 293.95 18.87 281.62 19.11 269.30 19.06 C 246.62 18.87 223.94 19.08 201.26 19.09 C 190.17 18.86 179.08 19.06 167.99 19.00 C 149.56 18.37 131.25 22.56 114.11 29.11 Z" />
</g>
<g id="#404040ff">
<path fill="#404040" opacity="1.00" d=" M 114.11 29.11 C 131.25 22.56 149.56 18.37 167.99 19.00 C 179.08 19.06 190.17 18.86 201.26 19.09 C 154.09 66.65 106.54 113.83 59.27 161.28 C 45.83 174.56 32.59 188.05 19.09 201.27 C 18.87 185.21 19.05 169.14 19.02 153.07 C 20.08 139.61 23.97 126.56 28.74 113.97 C 30.11 110.25 32.52 106.95 33.32 103.01 C 36.19 94.49 42.41 87.76 47.22 80.33 C 50.37 76.97 51.85 72.32 55.65 69.58 C 59.24 65.85 62.45 61.73 66.57 58.54 C 69.51 56.47 71.12 52.90 74.53 51.46 C 84.39 44.99 93.52 37.11 104.60 32.70 C 107.88 31.82 111.04 30.57 114.11 29.11 Z" />
</g>
<g id="#474747ff">
<path fill="#474747" opacity="1.00" d=" M 201.26 19.09 C 223.94 19.08 246.62 18.87 269.30 19.06 C 256.53 32.40 242.97 44.97 230.37 58.45 C 230.70 58.77 231.37 59.40 231.70 59.72 C 218.54 68.63 207.80 80.61 198.23 93.19 C 198.09 92.66 197.81 91.59 197.67 91.06 C 175.82 112.42 154.39 134.21 132.74 155.77 C 94.80 193.54 57.16 231.61 19.07 269.22 C 18.86 246.58 19.09 223.92 19.09 201.27 C 32.59 188.05 45.83 174.56 59.27 161.28 C 106.54 113.83 154.09 66.65 201.26 19.09 Z" />
</g>
<g id="#515151ff">
<path fill="#515151" opacity="1.00" d=" M 269.30 19.06 C 281.62 19.11 293.95 18.87 306.27 19.08 C 290.58 35.34 274.19 50.92 258.52 67.20 C 255.35 65.67 251.96 64.67 248.58 63.75 C 250.36 71.18 254.09 77.98 255.94 85.40 C 253.13 87.41 250.56 89.71 248.21 92.23 C 239.24 101.26 230.27 110.30 221.19 119.22 C 220.29 101.64 223.09 83.86 229.53 67.47 C 230.48 64.96 232.07 62.52 231.70 59.72 C 231.37 59.40 230.70 58.77 230.37 58.45 C 242.97 44.97 256.53 32.40 269.30 19.06 Z" />
</g>
<g id="#595959ff">
<path fill="#595959" opacity="1.00" d=" M 306.27 19.08 C 323.59 19.05 340.91 18.93 358.22 19.04 C 333.21 44.66 307.53 69.63 282.45 95.19 C 277.29 83.93 269.75 73.06 258.52 67.20 C 274.19 50.92 290.58 35.34 306.27 19.08 Z" />
</g>
<g id="#626262ff">
<path fill="#626262" opacity="1.00" d=" M 358.22 19.04 C 368.56 19.05 378.90 18.92 389.23 19.04 C 360.82 48.02 331.86 76.46 303.25 105.25 C 298.90 109.79 293.97 113.82 290.28 118.97 C 288.22 110.87 285.80 102.84 282.45 95.19 C 307.53 69.63 333.21 44.66 358.22 19.04 Z" />
<path fill="#626262" opacity="1.00" d=" M 233.23 144.21 C 242.98 134.80 252.17 124.80 262.21 115.70 C 263.11 125.67 263.40 135.68 263.21 145.69 C 254.93 153.17 247.23 161.26 239.46 169.26 C 234.90 163.74 231.50 157.39 228.60 150.87 C 229.43 148.22 231.19 146.05 233.23 144.21 Z" />
</g>
<g id="#6a6a6aff">
<path fill="#6a6a6a" opacity="1.00" d=" M 389.23 19.04 C 400.89 19.05 412.54 18.93 424.19 19.04 C 406.67 37.22 388.51 54.80 370.74 72.75 C 354.25 89.24 337.78 105.75 321.27 122.22 C 312.34 130.96 303.82 140.13 294.58 148.55 C 293.94 142.26 293.67 135.93 292.46 129.71 C 291.81 126.11 291.10 122.53 290.28 118.97 C 293.97 113.82 298.90 109.79 303.25 105.25 C 331.86 76.46 360.82 48.02 389.23 19.04 Z" />
</g>
<g id="#727272ff">
<path fill="#727272" opacity="1.00" d=" M 424.19 19.04 C 435.55 19.06 446.90 18.92 458.25 19.04 C 443.32 34.50 427.90 49.48 412.78 64.76 C 384.43 93.09 356.08 121.43 327.74 149.78 C 316.99 160.21 306.81 171.21 295.78 181.34 C 296.01 170.40 295.80 159.43 294.58 148.55 C 303.82 140.13 312.34 130.96 321.27 122.22 C 337.78 105.75 354.25 89.24 370.74 72.75 C 388.51 54.80 406.67 37.22 424.19 19.04 Z" />
</g>
<g id="#7b7b7bff">
<path fill="#7b7b7b" opacity="1.00" d=" M 458.25 19.04 C 472.60 19.05 486.95 18.94 501.30 19.03 C 436.45 84.27 371.22 149.15 306.25 214.28 C 304.43 216.10 302.51 217.81 300.56 219.50 C 300.23 217.96 299.88 216.44 299.61 214.90 C 297.44 203.84 294.72 192.72 295.78 181.34 C 306.81 171.21 316.99 160.21 327.74 149.78 C 356.08 121.43 384.43 93.09 412.78 64.76 C 427.90 49.48 443.32 34.50 458.25 19.04 Z" />
</g>
<g id="#838383ff">
<path fill="#838383" opacity="1.00" d=" M 501.30 19.03 C 512.62 19.02 523.95 18.95 535.28 19.03 C 506.35 48.50 476.85 77.41 447.79 106.75 C 426.05 128.35 404.48 150.12 382.75 171.73 C 380.45 174.11 377.56 176.18 376.33 179.37 C 369.68 181.24 363.41 184.60 358.39 189.36 C 356.70 190.77 355.20 192.58 353.07 193.31 C 349.05 193.54 344.93 191.90 341.02 193.36 C 336.33 195.10 333.58 200.24 333.89 205.11 C 335.18 208.65 338.15 211.30 341.28 213.25 C 331.52 222.82 321.95 232.59 312.23 242.21 C 310.29 244.23 307.95 245.97 306.54 248.44 C 305.85 251.06 305.60 253.78 305.23 256.47 C 304.44 244.06 302.94 231.70 300.56 219.50 C 302.51 217.81 304.43 216.10 306.25 214.28 C 371.22 149.15 436.45 84.27 501.30 19.03 Z" />
</g>
<g id="#8b8b8bff">
<path fill="#8b8b8b" opacity="1.00" d=" M 535.28 19.03 C 545.59 19.03 555.89 18.96 566.20 19.03 C 553.51 32.39 540.20 45.17 527.21 58.25 C 525.95 59.60 524.99 61.18 524.03 62.74 C 517.56 65.12 511.69 69.00 506.81 73.84 C 496.81 82.89 492.13 96.03 487.81 108.43 C 486.00 108.85 484.39 109.80 483.17 111.20 C 459.53 135.33 435.21 158.80 411.74 183.08 C 401.02 177.28 387.99 175.32 376.33 179.37 C 377.56 176.18 380.45 174.11 382.75 171.73 C 404.48 150.12 426.05 128.35 447.79 106.75 C 476.85 77.41 506.35 48.50 535.28 19.03 Z" />
</g>
<g id="#939393ff">
<path fill="#939393" opacity="1.00" d=" M 566.20 19.03 C 574.87 19.05 583.54 18.95 592.21 19.03 C 578.39 33.59 563.70 47.32 549.86 61.86 C 547.84 60.13 545.63 58.64 543.34 57.31 C 545.16 63.84 548.20 69.96 549.83 76.55 C 547.87 78.00 545.94 79.50 544.22 81.22 C 536.45 89.11 528.54 96.87 520.79 104.78 C 518.84 106.78 516.68 108.57 514.45 110.26 C 516.56 93.56 522.16 77.59 528.02 61.91 C 526.68 62.16 525.35 62.44 524.03 62.74 C 524.99 61.18 525.95 59.60 527.21 58.25 C 540.20 45.17 553.51 32.39 566.20 19.03 Z" />
</g>
<g id="#989898ff">
<path fill="#989898" opacity="1.00" d=" M 592.21 19.03 C 603.55 19.05 614.89 18.89 626.23 19.09 L 625.68 19.37 C 622.46 20.71 620.08 23.32 617.72 25.78 C 600.60 43.00 583.30 60.05 566.27 77.36 C 561.25 71.73 555.33 67.02 549.86 61.86 C 563.70 47.32 578.39 33.59 592.21 19.03 Z" />
</g>
<g id="#a0a0a0ff">
<path fill="#a0a0a0" opacity="1.00" d=" M 617.72 25.78 C 620.08 23.32 622.46 20.71 625.68 19.37 C 635.20 20.53 644.83 21.84 653.91 25.08 C 655.42 25.53 656.96 25.88 658.53 26.17 L 658.15 26.53 C 635.29 48.88 612.96 71.77 590.21 94.24 C 588.01 96.28 586.07 98.57 584.27 100.96 C 579.04 92.54 572.80 84.80 566.27 77.36 C 583.30 60.05 600.60 43.00 617.72 25.78 Z" />
</g>
<g id="#a9a9a9ff">
<path fill="#a9a9a9" opacity="1.00" d=" M 590.21 94.24 C 612.96 71.77 635.29 48.88 658.15 26.53 C 664.25 27.62 669.31 31.56 675.39 32.57 C 678.75 33.96 681.85 35.88 685.17 37.37 L 684.97 37.57 C 655.37 67.07 625.87 96.67 596.31 126.21 C 593.02 117.48 588.93 109.05 584.27 100.96 C 586.07 98.57 588.01 96.28 590.21 94.24 Z" />
</g>
<g id="#b0b0b0ff">
<path fill="#b0b0b0" opacity="1.00" d=" M 596.31 126.21 C 625.87 96.67 655.37 67.07 684.97 37.57 C 691.84 42.01 698.72 46.49 705.25 51.45 L 704.80 51.88 C 671.75 84.48 639.15 117.54 606.21 150.25 C 603.45 152.82 604.08 156.99 603.47 160.38 C 603.12 158.09 602.77 155.79 602.58 153.48 C 601.90 144.13 599.27 135.06 596.31 126.21 Z" />
</g>
<g id="#b8b8b8ff">
<path fill="#b8b8b8" opacity="1.00" d=" M 606.21 150.25 C 639.15 117.54 671.75 84.48 704.80 51.88 C 705.45 51.95 706.74 52.09 707.39 52.16 C 709.40 55.88 713.28 57.90 716.15 60.86 C 719.56 63.85 722.27 67.54 725.45 70.76 C 725.90 70.88 726.81 71.13 727.27 71.25 L 726.49 71.80 C 722.81 74.26 719.86 77.59 716.77 80.71 C 691.15 106.46 665.34 132.03 639.74 157.81 C 626.69 170.53 614.25 183.90 600.81 196.21 C 603.15 184.46 604.25 172.36 603.47 160.38 C 604.08 156.99 603.45 152.82 606.21 150.25 Z" />
</g>
<g id="#2a2a2aff">
<path fill="#2a2a2a" opacity="1.00" d=" M 543.34 57.31 C 545.63 58.64 547.84 60.13 549.86 61.86 C 555.33 67.02 561.25 71.73 566.27 77.36 C 572.80 84.80 579.04 92.54 584.27 100.96 C 588.93 109.05 593.02 117.48 596.31 126.21 C 599.27 135.06 601.90 144.13 602.58 153.48 C 600.91 154.43 599.19 155.33 597.77 156.64 C 555.54 199.21 512.85 241.34 470.70 283.98 C 470.29 277.88 470.45 271.77 470.45 265.66 C 470.81 251.98 472.06 238.36 474.09 224.83 C 475.79 216.17 477.60 207.52 479.09 198.82 C 479.45 199.31 480.16 200.29 480.52 200.78 C 490.53 191.38 499.95 181.35 509.73 171.72 C 511.18 170.33 513.03 169.49 514.85 168.72 C 515.67 174.52 516.75 180.31 518.62 185.87 C 536.47 172.58 548.90 152.27 553.22 130.51 C 555.15 122.48 554.81 114.16 554.75 105.97 C 554.72 95.98 552.66 86.10 549.83 76.55 C 548.20 69.96 545.16 63.84 543.34 57.31 Z" />
</g>
<g id="#101010ff">
<path fill="#101010" opacity="1.00" d=" M 198.23 93.19 C 207.80 80.61 218.54 68.63 231.70 59.72 C 232.07 62.52 230.48 64.96 229.53 67.47 C 223.09 83.86 220.29 101.64 221.19 119.22 C 221.26 120.70 221.35 122.18 221.49 123.66 C 216.24 127.65 212.00 132.74 207.24 137.27 C 197.65 147.01 187.86 156.55 178.24 166.27 C 176.43 168.08 174.47 169.75 172.49 171.39 C 172.13 152.96 176.01 134.47 183.69 117.73 C 187.89 109.19 192.54 100.83 198.23 93.19 Z" />
</g>
<g id="#252525ff">
<path fill="#252525" opacity="1.00" d=" M 524.03 62.74 C 525.35 62.44 526.68 62.16 528.02 61.91 C 522.16 77.59 516.56 93.56 514.45 110.26 C 511.71 126.10 511.70 142.38 513.50 158.33 C 513.98 161.79 514.37 165.26 514.85 168.72 C 513.03 169.49 511.18 170.33 509.73 171.72 C 499.95 181.35 490.53 191.38 480.52 200.78 C 480.16 200.29 479.45 199.31 479.09 198.82 C 479.85 192.91 479.30 186.94 479.97 181.03 C 480.45 176.60 480.26 172.15 480.29 167.70 C 480.79 147.78 482.22 127.66 487.81 108.43 C 492.13 96.03 496.81 82.89 506.81 73.84 C 511.69 69.00 517.56 65.12 524.03 62.74 Z" />
</g>
<g id="#151515ff">
<path fill="#151515" opacity="1.00" d=" M 248.58 63.75 C 251.96 64.67 255.35 65.67 258.52 67.20 C 269.75 73.06 277.29 83.93 282.45 95.19 C 285.80 102.84 288.22 110.87 290.28 118.97 C 291.10 122.53 291.81 126.11 292.46 129.71 C 292.19 132.83 292.40 136.52 289.81 138.77 C 282.48 146.11 274.99 153.28 267.83 160.79 C 266.19 162.54 264.19 163.90 262.13 165.10 C 262.55 158.64 262.96 152.17 263.21 145.69 C 263.40 135.68 263.11 125.67 262.21 115.70 C 260.84 105.47 258.87 95.31 255.94 85.40 C 254.09 77.98 250.36 71.18 248.58 63.75 Z" />
<path fill="#151515" opacity="1.00" d=" M 207.24 137.27 C 212.00 132.74 216.24 127.65 221.49 123.66 C 222.46 133.03 224.63 142.30 228.60 150.87 C 231.50 157.39 234.90 163.74 239.46 169.26 C 242.31 172.90 245.13 176.57 248.49 179.77 C 233.97 194.83 218.93 209.37 204.25 224.28 C 199.44 229.13 194.37 233.73 189.98 238.99 C 186.86 232.26 183.70 225.53 181.27 218.51 C 176.89 206.85 174.36 194.61 172.76 182.29 C 172.61 178.66 172.56 175.02 172.49 171.39 C 174.47 169.75 176.43 168.08 178.24 166.27 C 187.86 156.55 197.65 147.01 207.24 137.27 Z" />
</g>
<g id="#bfbfbfff">
<path fill="#bfbfbf" opacity="1.00" d=" M 716.77 80.71 C 719.86 77.59 722.81 74.26 726.49 71.80 C 731.80 78.88 736.85 86.16 742.01 93.35 C 737.57 96.42 734.03 100.51 730.24 104.31 C 680.54 153.91 630.91 203.59 581.27 253.26 C 579.26 255.52 576.91 257.46 574.24 258.90 C 585.89 239.38 595.70 218.46 600.81 196.21 C 614.25 183.90 626.69 170.53 639.74 157.81 C 665.34 132.03 691.15 106.46 716.77 80.71 Z" />
</g>
<g id="#9d9d9dff">
<path fill="#9d9d9d" opacity="1.00" d=" M 544.22 81.22 C 545.94 79.50 547.87 78.00 549.83 76.55 C 552.66 86.10 554.72 95.98 554.75 105.97 C 554.81 114.16 555.15 122.48 553.22 130.51 C 553.24 126.64 552.95 122.79 552.64 118.94 C 539.52 132.00 526.25 144.92 513.50 158.33 C 511.70 142.38 511.71 126.10 514.45 110.26 C 516.68 108.57 518.84 106.78 520.79 104.78 C 528.54 96.87 536.45 89.11 544.22 81.22 Z" />
<path fill="#9d9d9d" opacity="1.00" d=" M 283.02 381.63 C 283.75 381.43 285.22 381.04 285.96 380.84 C 280.30 386.16 274.53 391.45 269.65 397.51 C 263.44 396.27 257.25 397.96 251.01 397.59 C 246.18 397.37 241.40 398.14 236.61 398.55 C 240.42 393.79 244.69 389.41 249.34 385.48 C 251.24 386.41 253.19 387.29 255.30 387.69 C 259.77 387.96 264.08 386.31 268.44 385.55 C 273.25 384.06 278.24 383.25 283.02 381.63 Z" />
</g>
<g id="#5b5b5bff">
<path fill="#5b5b5b" opacity="1.00" d=" M 248.21 92.23 C 250.56 89.71 253.13 87.41 255.94 85.40 C 258.87 95.31 260.84 105.47 262.21 115.70 C 252.17 124.80 242.98 134.80 233.23 144.21 C 231.19 146.05 229.43 148.22 228.60 150.87 C 224.63 142.30 222.46 133.03 221.49 123.66 C 221.35 122.18 221.26 120.70 221.19 119.22 C 230.27 110.30 239.24 101.26 248.21 92.23 Z" />
</g>
<g id="#525252ff">
<path fill="#525252" opacity="1.00" d=" M 132.74 155.77 C 154.39 134.21 175.82 112.42 197.67 91.06 C 197.81 91.59 198.09 92.66 198.23 93.19 C 192.54 100.83 187.89 109.19 183.69 117.73 C 176.01 134.47 172.13 152.96 172.49 171.39 C 172.56 175.02 172.61 178.66 172.76 182.29 C 172.03 179.58 171.22 176.89 170.51 174.17 C 119.81 224.31 69.76 275.12 19.06 325.25 C 18.89 306.57 19.09 287.90 19.07 269.22 C 57.16 231.61 94.80 193.54 132.74 155.77 Z" />
</g>
<g id="#c7c7c7ff">
<path fill="#c7c7c7" opacity="1.00" d=" M 730.24 104.31 C 734.03 100.51 737.57 96.42 742.01 93.35 C 743.25 95.75 744.56 98.12 745.83 100.51 C 745.88 102.64 746.60 104.65 747.69 106.47 C 751.74 113.32 753.74 121.09 756.29 128.56 C 757.02 130.61 757.56 132.73 758.02 134.86 C 757.54 134.76 756.58 134.56 756.10 134.47 C 678.90 211.45 601.90 288.65 524.77 365.71 C 523.28 367.23 521.85 368.82 520.43 370.41 C 506.79 364.55 492.53 360.24 478.08 356.89 C 475.65 356.02 471.81 356.51 470.99 353.41 C 478.61 345.87 486.42 338.50 493.70 330.63 C 493.34 330.23 492.60 329.44 492.23 329.04 C 498.22 329.66 504.37 329.24 510.15 327.53 C 517.50 324.84 524.08 320.16 529.30 314.34 C 539.87 305.18 548.56 294.15 557.47 283.42 C 563.62 275.64 568.69 267.10 574.24 258.90 C 576.91 257.46 579.26 255.52 581.27 253.26 C 630.91 203.59 680.54 153.91 730.24 104.31 Z" />
</g>
<g id="#969696ff">
<path fill="#969696" opacity="1.00" d=" M 483.17 111.20 C 484.39 109.80 486.00 108.85 487.81 108.43 C 482.22 127.66 480.79 147.78 480.29 167.70 C 475.02 171.94 470.57 177.05 465.75 181.76 C 460.04 187.39 454.37 193.06 448.71 198.73 C 446.27 200.93 445.87 204.35 444.57 207.21 C 445.13 202.48 442.95 197.40 438.54 195.29 C 433.73 193.55 427.77 196.13 423.61 192.40 C 419.87 189.03 416.25 185.44 411.74 183.08 C 435.21 158.80 459.53 135.33 483.17 111.20 Z" />
</g>
<g id="#a5a5a5ff">
<path fill="#a5a5a5" opacity="1.00" d=" M 552.64 118.94 C 552.95 122.79 553.24 126.64 553.22 130.51 C 548.90 152.27 536.47 172.58 518.62 185.87 C 516.75 180.31 515.67 174.52 514.85 168.72 C 514.37 165.26 513.98 161.79 513.50 158.33 C 526.25 144.92 539.52 132.00 552.64 118.94 Z" />
</g>
<g id="#1a1a1aff">
<path fill="#1a1a1a" opacity="1.00" d=" M 292.46 129.71 C 293.67 135.93 293.94 142.26 294.58 148.55 C 295.80 159.43 296.01 170.40 295.78 181.34 C 294.72 192.72 297.44 203.84 299.61 214.90 C 299.13 217.30 298.16 219.61 296.31 221.27 C 272.38 244.84 248.94 268.92 224.90 292.38 C 223.54 290.73 222.15 289.10 220.82 287.43 C 217.09 282.69 213.47 277.86 210.16 272.82 C 203.70 263.52 197.51 254.01 192.37 243.90 C 191.55 242.27 190.76 240.63 189.98 238.99 C 194.37 233.73 199.44 229.13 204.25 224.28 C 218.93 209.37 233.97 194.83 248.49 179.77 C 251.37 182.65 254.24 185.56 257.45 188.09 C 260.63 180.86 260.62 172.76 262.13 165.10 C 264.19 163.90 266.19 162.54 267.83 160.79 C 274.99 153.28 282.48 146.11 289.81 138.77 C 292.40 136.52 292.19 132.83 292.46 129.71 Z" />
</g>
<g id="#d0d0d0ff">
<path fill="#d0d0d0" opacity="1.00" d=" M 756.10 134.47 C 756.58 134.56 757.54 134.76 758.02 134.86 C 759.17 140.21 760.14 145.60 760.97 151.01 C 761.07 157.92 760.97 164.85 760.99 171.77 C 749.29 182.82 738.20 194.49 726.72 205.76 C 667.26 265.26 607.76 324.72 548.29 384.21 C 544.05 388.64 539.32 392.64 535.63 397.57 C 530.92 397.81 526.31 396.52 521.61 396.72 C 514.65 396.42 507.70 396.87 500.84 398.10 C 500.75 397.60 500.57 396.59 500.48 396.09 C 502.74 393.51 505.24 391.14 508.02 389.13 C 512.34 390.69 516.82 391.70 521.21 393.05 C 527.52 391.68 532.72 384.85 530.42 378.41 C 528.78 374.16 524.26 372.23 520.43 370.41 C 521.85 368.82 523.28 367.23 524.77 365.71 C 601.90 288.65 678.90 211.45 756.10 134.47 Z" />
</g>
<g id="#686868ff">
<path fill="#686868" opacity="1.00" d=" M 239.46 169.26 C 247.23 161.26 254.93 153.17 263.21 145.69 C 262.96 152.17 262.55 158.64 262.13 165.10 C 260.62 172.76 260.63 180.86 257.45 188.09 C 254.24 185.56 251.37 182.65 248.49 179.77 C 245.13 176.57 242.31 172.90 239.46 169.26 Z" />
</g>
<g id="#2d2d2dff">
<path fill="#2d2d2d" opacity="1.00" d=" M 597.77 156.64 C 599.19 155.33 600.91 154.43 602.58 153.48 C 602.77 155.79 603.12 158.09 603.47 160.38 C 604.25 172.36 603.15 184.46 600.81 196.21 C 595.70 218.46 585.89 239.38 574.24 258.90 C 568.69 267.10 563.62 275.64 557.47 283.42 C 548.56 294.15 539.87 305.18 529.30 314.34 C 524.08 320.16 517.50 324.84 510.15 327.53 C 504.37 329.24 498.22 329.66 492.23 329.04 C 486.30 328.67 482.89 323.30 480.39 318.57 C 477.90 314.03 475.90 309.24 474.13 304.38 C 471.89 297.81 470.89 290.90 470.70 283.98 C 512.85 241.34 555.54 199.21 597.77 156.64 Z" />
<path fill="#2d2d2d" opacity="1.00" d=" M 467.53 286.86 C 469.26 293.49 469.93 300.32 470.44 307.14 C 471.35 322.54 470.66 337.99 470.99 353.41 C 471.81 356.51 475.65 356.02 478.08 356.89 C 465.87 368.03 454.61 380.19 442.75 391.72 C 402.78 431.76 362.74 471.73 322.76 511.76 C 320.04 514.64 317.16 517.35 314.03 519.78 C 312.45 517.18 311.21 514.03 308.41 512.51 C 305.03 510.53 301.05 509.62 297.16 509.63 C 291.99 510.48 286.72 510.55 281.51 510.11 L 280.28 509.71 C 276.94 509.25 273.56 509.38 270.21 509.27 C 270.74 502.01 269.27 494.80 269.81 487.56 C 270.16 484.69 270.38 481.80 270.18 478.91 C 270.60 480.22 271.08 481.51 271.56 482.81 C 285.25 469.40 298.70 455.75 312.26 442.23 C 364.00 390.42 415.89 338.76 467.53 286.86 Z" />
</g>
<g id="#a1a1a1ff">
<path fill="#a1a1a1" opacity="1.00" d=" M 465.75 181.76 C 470.57 177.05 475.02 171.94 480.29 167.70 C 480.26 172.15 480.45 176.60 479.97 181.03 C 479.30 186.94 479.85 192.91 479.09 198.82 C 477.60 207.52 475.79 216.17 474.09 224.83 C 466.54 231.48 459.65 238.85 452.60 246.02 C 448.36 238.49 443.67 231.20 438.39 224.34 C 436.42 221.99 434.54 219.57 432.89 216.98 C 437.62 214.98 442.48 212.18 444.57 207.21 C 445.87 204.35 446.27 200.93 448.71 198.73 C 454.37 193.06 460.04 187.39 465.75 181.76 Z" />
</g>
<g id="#d8d8d8ff">
<path fill="#d8d8d8" opacity="1.00" d=" M 726.72 205.76 C 738.20 194.49 749.29 182.82 760.99 171.77 C 760.97 191.10 761.02 210.42 761.00 229.75 C 732.52 257.71 704.50 286.14 676.21 314.29 C 645.97 344.55 615.66 374.74 585.50 405.08 C 585.81 405.93 586.13 406.78 586.45 407.64 C 574.72 402.00 561.69 400.40 548.94 398.68 C 544.49 398.44 540.10 397.43 535.63 397.57 C 539.32 392.64 544.05 388.64 548.29 384.21 C 607.76 324.72 667.26 265.26 726.72 205.76 Z" />
</g>
<g id="#5d5d5dff">
<path fill="#5d5d5d" opacity="1.00" d=" M 19.06 325.25 C 69.76 275.12 119.81 224.31 170.51 174.17 C 171.22 176.89 172.03 179.58 172.76 182.29 C 174.36 194.61 176.89 206.85 181.27 218.51 C 175.12 223.95 169.62 230.06 163.70 235.75 C 134.40 265.09 105.05 294.39 75.73 323.71 C 56.77 342.48 38.15 361.60 19.03 380.21 C 18.92 361.89 19.06 343.57 19.06 325.25 Z" />
</g>
<g id="#242424ff">
<path fill="#242424" opacity="1.00" d=" M 376.33 179.37 C 387.99 175.32 401.02 177.28 411.74 183.08 C 416.25 185.44 419.87 189.03 423.61 192.40 C 427.77 196.13 433.73 193.55 438.54 195.29 C 442.95 197.40 445.13 202.48 444.57 207.21 C 442.48 212.18 437.62 214.98 432.89 216.98 C 434.54 219.57 436.42 221.99 438.39 224.34 C 434.94 229.17 430.35 232.98 426.27 237.24 C 381.59 281.90 336.94 326.59 292.25 371.24 C 288.97 374.51 285.34 377.54 283.02 381.63 C 278.24 383.25 273.25 384.06 268.44 385.55 C 264.08 386.31 259.77 387.96 255.30 387.69 C 251.07 385.24 247.18 380.93 247.53 375.75 C 249.05 368.99 256.41 366.33 262.34 364.62 C 276.37 360.25 290.70 356.90 305.10 354.00 C 303.73 342.35 303.33 330.59 303.99 318.88 C 304.16 310.84 305.12 302.87 306.55 294.96 C 311.28 277.06 317.75 259.42 327.92 243.85 C 332.81 235.36 338.92 227.68 345.18 220.18 C 346.08 219.03 347.10 217.83 347.09 216.28 C 345.40 214.84 343.26 214.16 341.28 213.25 C 338.15 211.30 335.18 208.65 333.89 205.11 C 333.58 200.24 336.33 195.10 341.02 193.36 C 344.93 191.90 349.05 193.54 353.07 193.31 C 355.20 192.58 356.70 190.77 358.39 189.36 C 363.41 184.60 369.68 181.24 376.33 179.37 Z" />
</g>
<g id="#8a8a8aff">
<path fill="#8a8a8a" opacity="1.00" d=" M 312.23 242.21 C 321.95 232.59 331.52 222.82 341.28 213.25 C 343.26 214.16 345.40 214.84 347.09 216.28 C 347.10 217.83 346.08 219.03 345.18 220.18 C 338.92 227.68 332.81 235.36 327.92 243.85 C 317.75 259.42 311.28 277.06 306.55 294.96 L 304.50 295.25 C 305.67 282.35 305.29 269.40 305.23 256.47 C 305.60 253.78 305.85 251.06 306.54 248.44 C 307.95 245.97 310.29 244.23 312.23 242.21 Z" />
</g>
<g id="#202020ff">
<path fill="#202020" opacity="1.00" d=" M 299.61 214.90 C 299.88 216.44 300.23 217.96 300.56 219.50 C 302.94 231.70 304.44 244.06 305.23 256.47 C 305.29 269.40 305.67 282.35 304.50 295.25 C 303.50 302.37 301.18 309.30 297.72 315.61 C 294.87 321.38 291.88 328.22 285.26 330.42 C 280.64 331.34 275.85 330.88 271.19 330.50 C 258.87 327.96 249.13 319.41 240.71 310.57 C 234.86 305.04 230.03 298.56 224.90 292.38 C 248.94 268.92 272.38 244.84 296.31 221.27 C 298.16 219.61 299.13 217.30 299.61 214.90 Z" />
</g>
<g id="#676767ff">
<path fill="#676767" opacity="1.00" d=" M 163.70 235.75 C 169.62 230.06 175.12 223.95 181.27 218.51 C 183.70 225.53 186.86 232.26 189.98 238.99 C 190.76 240.63 191.55 242.27 192.37 243.90 C 188.73 245.07 186.32 248.18 183.72 250.79 C 132.58 301.96 81.36 353.07 30.24 404.28 C 26.51 407.93 22.92 411.74 19.04 415.25 C 18.93 403.57 19.04 391.89 19.03 380.21 C 38.15 361.60 56.77 342.48 75.73 323.71 C 105.05 294.39 134.40 265.09 163.70 235.75 Z" />
</g>
<g id="#292929ff">
<path fill="#292929" opacity="1.00" d=" M 438.39 224.34 C 443.67 231.20 448.36 238.49 452.60 246.02 C 457.59 254.90 461.40 264.37 464.30 274.13 C 465.53 278.33 466.44 282.62 467.53 286.86 C 415.89 338.76 364.00 390.42 312.26 442.23 C 298.70 455.75 285.25 469.40 271.56 482.81 C 271.08 481.51 270.60 480.22 270.18 478.91 C 269.20 472.57 264.62 466.45 258.05 465.36 C 252.07 465.21 246.06 465.21 240.07 465.40 C 232.03 466.17 227.09 474.57 227.04 482.06 C 227.00 491.50 227.02 500.95 226.98 510.39 C 220.42 508.99 213.59 509.04 206.98 510.07 C 202.51 510.74 197.96 509.83 193.50 510.54 C 190.10 511.70 186.33 513.32 184.92 516.91 C 181.48 522.70 182.98 529.64 182.62 536.02 C 182.34 540.69 183.14 545.70 186.51 549.22 C 184.77 551.54 182.89 553.76 180.79 555.77 C 157.16 579.01 134.12 602.86 110.30 625.89 C 110.02 624.49 109.76 623.10 109.53 621.71 C 112.15 612.11 114.31 602.39 116.85 592.77 C 119.42 584.73 120.77 576.37 123.33 568.32 C 125.14 562.70 126.11 556.86 127.62 551.16 C 127.70 550.84 127.87 550.21 127.96 549.89 C 128.36 550.33 129.16 551.21 129.57 551.65 C 138.27 543.66 146.30 534.95 154.77 526.71 C 184.28 497.24 213.76 467.74 243.24 438.25 C 256.34 425.50 268.77 412.04 282.32 399.76 C 285.05 400.72 288.04 401.21 290.88 400.35 C 298.16 398.41 305.59 397.13 312.87 395.16 C 312.66 388.52 310.20 382.28 308.74 375.87 C 301.11 377.42 293.55 379.17 285.96 380.84 C 285.22 381.04 283.75 381.43 283.02 381.63 C 285.34 377.54 288.97 374.51 292.25 371.24 C 336.94 326.59 381.59 281.90 426.27 237.24 C 430.35 232.98 434.94 229.17 438.39 224.34 M 307.28 419.66 C 311.17 424.05 316.53 427.59 322.55 427.81 C 321.32 424.17 319.89 420.59 319.05 416.83 C 315.10 417.63 311.01 418.09 307.28 419.66 Z" />
</g>
<g id="#aaaaaaff">
<path fill="#aaaaaa" opacity="1.00" d=" M 452.60 246.02 C 459.65 238.85 466.54 231.48 474.09 224.83 C 472.06 238.36 470.81 251.98 470.45 265.66 C 467.37 267.60 464.75 270.36 464.30 274.13 C 461.40 264.37 457.59 254.90 452.60 246.02 Z" />
</g>
<g id="#e0e0e0ff">
<path fill="#e0e0e0" opacity="1.00" d=" M 676.21 314.29 C 704.50 286.14 732.52 257.71 761.00 229.75 C 760.98 249.09 761.01 268.43 761.00 287.78 C 749.44 298.62 738.55 310.15 727.24 321.25 C 690.72 357.76 654.19 394.28 617.69 430.80 C 616.36 431.92 616.54 433.70 616.58 435.25 C 613.29 430.22 609.81 425.31 605.80 420.84 C 600.16 415.40 593.64 410.78 586.45 407.64 C 586.13 406.78 585.81 405.93 585.50 405.08 C 615.66 374.74 645.97 344.55 676.21 314.29 Z" />
<path fill="#e0e0e0" opacity="1.00" d=" M 509.07 466.22 C 513.76 464.08 518.99 464.25 524.02 464.47 C 533.78 465.51 542.05 472.61 545.94 481.43 C 552.40 494.34 547.43 511.49 535.37 519.33 C 527.02 525.01 515.61 525.08 506.61 520.89 C 495.82 515.41 489.25 502.82 490.70 490.84 C 491.68 480.15 498.77 469.84 509.07 466.22 Z" />
</g>
<g id="#707070ff">
<path fill="#707070" opacity="1.00" d=" M 183.72 250.79 C 186.32 248.18 188.73 245.07 192.37 243.90 C 197.51 254.01 203.70 263.52 210.16 272.82 C 209.08 272.16 207.98 271.54 206.88 270.93 C 205.64 272.00 204.41 273.08 203.22 274.20 C 153.47 324.14 103.52 373.87 53.73 423.77 C 42.11 435.22 30.75 446.93 19.02 458.26 C 18.95 443.93 19.03 429.59 19.04 415.25 C 22.92 411.74 26.51 407.93 30.24 404.28 C 81.36 353.07 132.58 301.96 183.72 250.79 Z" />
</g>
<g id="#b1b1b1ff">
<path fill="#b1b1b1" opacity="1.00" d=" M 464.30 274.13 C 464.75 270.36 467.37 267.60 470.45 265.66 C 470.45 271.77 470.29 277.88 470.70 283.98 C 470.89 290.90 471.89 297.81 474.13 304.38 C 472.89 305.29 471.66 306.21 470.44 307.14 C 469.93 300.32 469.26 293.49 467.53 286.86 C 466.44 282.62 465.53 278.33 464.30 274.13 Z" />
</g>
<g id="#797979ff">
<path fill="#797979" opacity="1.00" d=" M 203.22 274.20 C 204.41 273.08 205.64 272.00 206.88 270.93 C 207.98 271.54 209.08 272.16 210.16 272.82 C 213.47 277.86 217.09 282.69 220.82 287.43 C 216.10 290.80 212.38 295.29 208.23 299.29 C 157.54 349.93 106.88 400.61 56.22 451.29 C 43.74 463.52 31.69 476.19 19.03 488.23 C 18.94 478.24 19.04 468.25 19.02 458.26 C 30.75 446.93 42.11 435.22 53.73 423.77 C 103.52 373.87 153.47 324.14 203.22 274.20 Z" />
</g>
<g id="#818181ff">
<path fill="#818181" opacity="1.00" d=" M 208.23 299.29 C 212.38 295.29 216.10 290.80 220.82 287.43 C 222.15 289.10 223.54 290.73 224.90 292.38 C 230.03 298.56 234.86 305.04 240.71 310.57 C 237.22 313.08 234.23 316.16 231.27 319.25 C 185.58 364.90 139.91 410.58 94.26 456.26 C 69.11 481.19 44.31 506.47 19.03 531.26 C 18.94 516.92 19.03 502.57 19.03 488.23 C 31.69 476.19 43.74 463.52 56.22 451.29 C 106.88 400.61 157.54 349.93 208.23 299.29 Z" />
</g>
<g id="#e7e7e7ff">
<path fill="#e7e7e7" opacity="1.00" d=" M 727.24 321.25 C 738.55 310.15 749.44 298.62 761.00 287.78 C 760.98 300.77 761.02 313.77 760.99 326.76 C 720.68 366.53 680.85 406.79 640.76 446.78 C 636.48 451.51 630.92 455.26 628.11 461.16 C 625.00 452.21 621.26 443.48 616.58 435.25 C 616.54 433.70 616.36 431.92 617.69 430.80 C 654.19 394.28 690.72 357.76 727.24 321.25 Z" />
</g>
<g id="#959595ff">
<path fill="#959595" opacity="1.00" d=" M 304.50 295.25 L 306.55 294.96 C 305.12 302.87 304.16 310.84 303.99 318.88 C 303.09 321.44 301.76 323.87 299.81 325.78 C 289.43 336.05 279.13 346.41 268.79 356.73 C 266.44 359.17 263.40 361.24 262.34 364.62 C 256.41 366.33 249.05 368.99 247.53 375.75 C 247.18 380.93 251.07 385.24 255.30 387.69 C 253.19 387.29 251.24 386.41 249.34 385.48 C 244.69 389.41 240.42 393.79 236.61 398.55 C 222.19 400.22 207.46 401.68 194.11 407.82 C 193.64 407.42 192.71 406.64 192.25 406.25 C 216.57 381.89 240.90 357.55 265.25 333.23 C 266.78 331.53 268.99 330.83 271.19 330.50 C 275.85 330.88 280.64 331.34 285.26 330.42 C 291.88 328.22 294.87 321.38 297.72 315.61 C 301.18 309.30 303.50 302.37 304.50 295.25 Z" />
<path fill="#959595" opacity="1.00" d=" M 84.25 510.22 C 111.80 482.90 138.99 455.22 166.66 428.03 C 166.80 428.54 167.09 429.56 167.23 430.07 C 153.57 449.14 148.57 472.54 141.98 494.64 C 138.91 494.48 137.23 497.44 135.21 499.24 C 108.78 525.81 82.26 552.26 55.75 578.74 C 43.45 590.85 31.52 603.35 19.02 615.27 C 18.96 601.93 19.03 588.59 19.03 575.26 C 40.96 553.78 62.50 531.90 84.25 510.22 Z" />
</g>
<g id="#bebebeff">
<path fill="#bebebe" opacity="1.00" d=" M 470.44 307.14 C 471.66 306.21 472.89 305.29 474.13 304.38 C 475.90 309.24 477.90 314.03 480.39 318.57 C 482.89 323.30 486.30 328.67 492.23 329.04 C 492.60 329.44 493.34 330.23 493.70 330.63 C 486.42 338.50 478.61 345.87 470.99 353.41 C 470.66 337.99 471.35 322.54 470.44 307.14 Z" />
</g>
<g id="#8c8c8cff">
<path fill="#8c8c8c" opacity="1.00" d=" M 231.27 319.25 C 234.23 316.16 237.22 313.08 240.71 310.57 C 249.13 319.41 258.87 327.96 271.19 330.50 C 268.99 330.83 266.78 331.53 265.25 333.23 C 240.90 357.55 216.57 381.89 192.25 406.25 C 192.71 406.64 193.64 407.42 194.11 407.82 C 183.42 412.70 173.57 420.01 167.23 430.07 C 167.09 429.56 166.80 428.54 166.66 428.03 C 138.99 455.22 111.80 482.90 84.25 510.22 C 62.50 531.90 40.96 553.78 19.03 575.26 C 18.94 560.59 19.05 545.92 19.03 531.26 C 44.31 506.47 69.11 481.19 94.26 456.26 C 139.91 410.58 185.58 364.90 231.27 319.25 Z" />
</g>
<g id="#9a9a9aff">
<path fill="#9a9a9a" opacity="1.00" d=" M 299.81 325.78 C 301.76 323.87 303.09 321.44 303.99 318.88 C 303.33 330.59 303.73 342.35 305.10 354.00 C 290.70 356.90 276.37 360.25 262.34 364.62 C 263.40 361.24 266.44 359.17 268.79 356.73 C 279.13 346.41 289.43 336.05 299.81 325.78 Z" />
</g>
<g id="#eeeeeeff">
<path fill="#eeeeee" opacity="1.00" d=" M 640.76 446.78 C 680.85 406.79 720.68 366.53 760.99 326.76 C 760.97 351.10 761.03 375.43 760.99 399.77 C 726.00 434.17 691.55 469.12 656.76 503.73 C 652.39 507.96 648.40 512.62 643.53 516.32 C 640.23 504.27 637.67 492.04 633.89 480.13 C 632.47 473.66 630.36 467.38 628.11 461.16 C 630.92 455.26 636.48 451.51 640.76 446.78 Z" />
<path fill="#eeeeee" opacity="1.00" d=" M 540.24 548.30 C 545.24 541.53 553.75 537.92 562.03 537.82 C 572.44 537.30 582.69 543.49 587.53 552.64 C 591.30 558.56 591.71 565.91 591.02 572.72 C 589.57 579.35 586.60 585.85 581.25 590.24 C 576.10 594.18 570.09 597.97 563.32 597.60 C 547.46 598.54 533.14 583.71 533.83 567.98 C 533.35 560.89 535.77 553.78 540.24 548.30 Z" />
</g>
<g id="#323232ff">
<path fill="#323232" opacity="1.00" d=" M 478.08 356.89 C 492.53 360.24 506.79 364.55 520.43 370.41 C 524.26 372.23 528.78 374.16 530.42 378.41 C 532.72 384.85 527.52 391.68 521.21 393.05 C 516.82 391.70 512.34 390.69 508.02 389.13 C 494.65 384.74 481.27 380.32 467.52 377.26 C 465.93 382.01 464.92 386.98 464.40 391.96 C 464.52 393.49 463.63 395.95 465.72 396.47 C 473.09 398.82 480.65 400.61 488.02 402.98 C 492.21 401.13 496.44 399.37 500.84 398.10 C 507.70 396.87 514.65 396.42 521.61 396.72 C 523.00 397.30 524.37 397.94 525.75 398.57 C 500.46 424.33 474.70 449.63 449.26 475.26 C 396.40 528.07 343.59 580.95 290.72 633.77 C 287.29 637.23 283.99 640.85 280.06 643.76 C 273.12 641.10 265.53 639.98 258.16 641.02 C 252.12 642.36 246.97 646.44 243.35 651.35 C 237.52 658.59 231.96 666.05 226.43 673.53 C 220.89 681.56 215.41 689.66 209.18 697.19 C 202.95 705.39 196.10 713.21 187.91 719.51 C 172.34 730.43 150.87 732.83 133.63 724.41 C 134.52 722.74 135.45 721.05 136.75 719.65 C 176.00 680.60 215.07 641.36 254.26 602.24 C 255.46 601.09 256.70 599.98 258.02 598.98 C 264.26 597.43 269.96 591.68 269.67 584.96 C 269.48 574.66 270.57 564.40 270.26 554.09 C 280.15 553.92 290.04 554.03 299.93 554.05 C 306.45 554.55 312.28 549.39 314.29 543.47 C 314.96 540.02 314.62 536.47 314.69 532.97 C 314.60 528.57 315.03 524.10 314.03 519.78 C 317.16 517.35 320.04 514.64 322.76 511.76 C 362.74 471.73 402.78 431.76 442.75 391.72 C 454.61 380.19 465.87 368.03 478.08 356.89 M 458.26 418.11 C 457.41 421.34 456.43 424.54 455.52 427.76 C 461.08 427.78 466.91 425.69 470.29 421.08 C 466.25 420.19 462.36 418.71 458.26 418.11 Z" />
</g>
<g id="#a4a4a4ff">
<path fill="#a4a4a4" opacity="1.00" d=" M 285.96 380.84 C 293.55 379.17 301.11 377.42 308.74 375.87 C 310.20 382.28 312.66 388.52 312.87 395.16 C 305.59 397.13 298.16 398.41 290.88 400.35 C 288.04 401.21 285.05 400.72 282.32 399.76 C 278.27 398.20 274.00 397.36 269.65 397.51 C 274.53 391.45 280.30 386.16 285.96 380.84 Z" />
</g>
<g id="#c9c9c9ff">
<path fill="#c9c9c9" opacity="1.00" d=" M 464.40 391.96 C 464.92 386.98 465.93 382.01 467.52 377.26 C 481.27 380.32 494.65 384.74 508.02 389.13 C 505.24 391.14 502.74 393.51 500.48 396.09 C 500.57 396.59 500.75 397.60 500.84 398.10 C 496.44 399.37 492.21 401.13 488.02 402.98 C 480.65 400.61 473.09 398.82 465.72 396.47 C 463.63 395.95 464.52 393.49 464.40 391.96 Z" />
</g>
<g id="#262626ff">
<path fill="#262626" opacity="1.00" d=" M 251.01 397.59 C 257.25 397.96 263.44 396.27 269.65 397.51 C 274.00 397.36 278.27 398.20 282.32 399.76 C 268.77 412.04 256.34 425.50 243.24 438.25 C 213.76 467.74 184.28 497.24 154.77 526.71 C 146.30 534.95 138.27 543.66 129.57 551.65 C 129.16 551.21 128.36 550.33 127.96 549.89 C 130.44 540.65 132.85 531.38 134.97 522.04 C 137.30 512.90 139.88 503.83 141.98 494.64 C 148.57 472.54 153.57 449.14 167.23 430.07 C 173.57 420.01 183.42 412.70 194.11 407.82 C 207.46 401.68 222.19 400.22 236.61 398.55 C 241.40 398.14 246.18 397.37 251.01 397.59 Z" />
</g>
<g id="#353535ff">
<path fill="#353535" opacity="1.00" d=" M 521.61 396.72 C 526.31 396.52 530.92 397.81 535.63 397.57 C 540.10 397.43 544.49 398.44 548.94 398.68 C 561.69 400.40 574.72 402.00 586.45 407.64 C 593.64 410.78 600.16 415.40 605.80 420.84 C 604.24 422.89 602.64 424.92 600.82 426.75 C 582.42 444.87 564.39 463.36 545.94 481.43 C 542.05 472.61 533.78 465.51 524.02 464.47 C 518.99 464.25 513.76 464.08 509.07 466.22 C 498.77 469.84 491.68 480.15 490.70 490.84 C 489.25 502.82 495.82 515.41 506.61 520.89 C 500.38 527.19 494.00 533.34 487.88 539.75 C 478.62 536.22 467.29 537.17 459.48 543.57 C 454.42 547.81 450.04 553.34 448.76 559.96 C 447.01 566.07 448.02 572.53 449.62 578.55 C 444.66 582.25 440.66 586.99 436.25 591.28 C 414.31 612.98 392.78 635.10 370.63 656.58 C 363.43 655.86 356.16 656.90 348.99 655.71 C 339.03 655.82 329.22 653.95 319.36 652.82 C 306.17 650.32 292.75 648.29 280.06 643.76 C 283.99 640.85 287.29 637.23 290.72 633.77 C 343.59 580.95 396.40 528.07 449.26 475.26 C 474.70 449.63 500.46 424.33 525.75 398.57 C 524.37 397.94 523.00 397.30 521.61 396.72 Z" />
</g>
<g id="#f7f7f7ff">
<path fill="#f7f7f7" opacity="1.00" d=" M 656.76 503.73 C 691.55 469.12 726.00 434.17 760.99 399.77 C 760.98 443.42 761.01 487.07 761.00 530.72 C 736.37 554.81 712.26 579.43 687.79 603.68 C 681.87 609.31 676.61 615.68 670.07 620.62 C 667.10 610.68 665.21 600.45 662.36 590.48 C 660.12 583.44 658.96 576.12 656.83 569.06 C 654.20 561.05 652.99 552.67 650.63 544.59 C 647.80 535.74 646.41 526.52 643.86 517.59 C 643.78 517.27 643.61 516.64 643.53 516.32 C 648.40 512.62 652.39 507.96 656.76 503.73 Z" />
<path fill="#f7f7f7" opacity="1.00" d=" M 529.24 663.29 C 532.33 660.00 535.49 656.75 539.15 654.08 C 548.89 666.18 557.43 679.17 566.69 691.61 C 564.74 693.01 562.84 694.48 561.18 696.22 C 539.88 717.98 517.93 739.10 496.78 761.00 C 475.11 761.01 453.43 760.98 431.76 761.00 C 438.20 754.03 445.07 747.50 451.73 740.75 C 477.60 714.96 503.36 689.07 529.24 663.29 Z" />
</g>
<g id="#afafafff">
<path fill="#afafaf" opacity="1.00" d=" M 307.28 419.66 C 311.01 418.09 315.10 417.63 319.05 416.83 C 319.89 420.59 321.32 424.17 322.55 427.81 C 316.53 427.59 311.17 424.05 307.28 419.66 Z" />
</g>
<g id="#cbcbcbff">
<path fill="#cbcbcb" opacity="1.00" d=" M 458.26 418.11 C 462.36 418.71 466.25 420.19 470.29 421.08 C 466.91 425.69 461.08 427.78 455.52 427.76 C 456.43 424.54 457.41 421.34 458.26 418.11 Z" />
</g>
<g id="#393939ff">
<path fill="#393939" opacity="1.00" d=" M 605.80 420.84 C 609.81 425.31 613.29 430.22 616.58 435.25 C 621.26 443.48 625.00 452.21 628.11 461.16 C 630.36 467.38 632.47 473.66 633.89 480.13 C 637.67 492.04 640.23 504.27 643.53 516.32 C 643.61 516.64 643.78 517.27 643.86 517.59 C 629.84 531.66 615.77 545.68 601.75 559.75 C 597.87 563.80 593.02 567.27 591.02 572.72 C 591.71 565.91 591.30 558.56 587.53 552.64 C 582.69 543.49 572.44 537.30 562.03 537.82 C 553.75 537.92 545.24 541.53 540.24 548.30 C 535.77 553.78 533.35 560.89 533.83 567.98 C 533.14 583.71 547.46 598.54 563.32 597.60 C 557.65 604.45 550.97 610.37 544.77 616.72 C 537.66 624.04 530.15 630.97 523.21 638.47 C 524.26 639.06 525.33 639.67 526.39 640.27 C 526.26 640.64 526.01 641.37 525.88 641.73 C 521.47 640.25 516.76 639.15 512.11 640.16 C 507.06 641.32 501.92 642.22 497.09 644.15 C 489.55 647.01 481.55 648.29 473.70 650.00 C 473.48 650.06 473.05 650.17 472.84 650.22 C 454.26 654.10 435.30 655.87 416.39 656.75 C 407.61 657.34 398.79 656.86 389.99 657.02 C 383.54 656.87 377.05 657.45 370.63 656.58 C 392.78 635.10 414.31 612.98 436.25 591.28 C 440.66 586.99 444.66 582.25 449.62 578.55 C 453.11 587.51 461.04 594.07 470.04 597.03 C 473.63 597.82 477.36 597.60 481.01 597.43 C 485.12 597.29 488.62 594.98 492.07 593.03 C 498.70 589.21 503.20 582.33 505.02 575.00 C 508.87 561.27 501.15 545.10 487.88 539.75 C 494.00 533.34 500.38 527.19 506.61 520.89 C 515.61 525.08 527.02 525.01 535.37 519.33 C 547.43 511.49 552.40 494.34 545.94 481.43 C 564.39 463.36 582.42 444.87 600.82 426.75 C 602.64 424.92 604.24 422.89 605.80 420.84 Z" />
</g>
<g id="#aeaeaeff">
<path fill="#aeaeae" opacity="1.00" d=" M 227.04 482.06 C 227.09 474.57 232.03 466.17 240.07 465.40 C 246.06 465.21 252.07 465.21 258.05 465.36 C 264.62 466.45 269.20 472.57 270.18 478.91 C 270.38 481.80 270.16 484.69 269.81 487.56 C 269.43 486.05 268.99 484.55 268.56 483.06 C 255.64 495.63 243.07 508.55 230.26 521.23 C 219.48 532.22 208.27 542.80 197.75 554.04 C 193.33 554.69 189.60 552.00 186.51 549.22 C 183.14 545.70 182.34 540.69 182.62 536.02 C 182.98 529.64 181.48 522.70 184.92 516.91 C 186.33 513.32 190.10 511.70 193.50 510.54 C 197.96 509.83 202.51 510.74 206.98 510.07 C 213.59 509.04 220.42 508.99 226.98 510.39 C 227.02 500.95 227.00 491.50 227.04 482.06 Z" />
</g>
<g id="#b7b7b7ff">
<path fill="#b7b7b7" opacity="1.00" d=" M 230.26 521.23 C 243.07 508.55 255.64 495.63 268.56 483.06 C 268.99 484.55 269.43 486.05 269.81 487.56 C 269.27 494.80 270.74 502.01 270.21 509.27 C 273.56 509.38 276.94 509.25 280.28 509.71 L 281.51 510.11 C 282.93 510.62 284.35 511.17 285.77 511.72 C 266.18 531.21 246.80 550.93 227.02 570.24 C 226.98 564.83 227.01 559.43 226.99 554.04 C 217.24 554.05 207.50 553.91 197.75 554.04 C 208.27 542.80 219.48 532.22 230.26 521.23 Z" />
</g>
<g id="#9e9e9eff">
<path fill="#9e9e9e" opacity="1.00" d=" M 135.21 499.24 C 137.23 497.44 138.91 494.48 141.98 494.64 C 139.88 503.83 137.30 512.90 134.97 522.04 C 132.85 531.38 130.44 540.65 127.96 549.89 C 127.87 550.21 127.70 550.84 127.62 551.16 C 127.28 550.67 126.59 549.70 126.25 549.21 C 92.21 583.26 58.28 617.42 24.04 651.27 C 21.36 645.24 20.77 638.57 19.62 632.14 C 18.48 626.58 19.22 620.89 19.02 615.27 C 31.52 603.35 43.45 590.85 55.75 578.74 C 82.26 552.26 108.78 525.81 135.21 499.24 Z" />
</g>
<g id="#c0c0c0ff">
<path fill="#c0c0c0" opacity="1.00" d=" M 281.51 510.11 C 286.72 510.55 291.99 510.48 297.16 509.63 C 301.05 509.62 305.03 510.53 308.41 512.51 C 311.21 514.03 312.45 517.18 314.03 519.78 C 315.03 524.10 314.60 528.57 314.69 532.97 C 314.62 536.47 314.96 540.02 314.29 543.47 C 312.28 549.39 306.45 554.55 299.93 554.05 C 290.04 554.03 280.15 553.92 270.26 554.09 C 270.57 564.40 269.48 574.66 269.67 584.96 C 269.96 591.68 264.26 597.43 258.02 598.98 C 249.71 598.72 240.16 601.17 232.92 595.89 C 229.03 592.08 226.82 586.50 226.99 581.04 C 226.97 577.44 227.06 573.84 227.02 570.24 C 246.80 550.93 266.18 531.21 285.77 511.72 C 284.35 511.17 282.93 510.62 281.51 510.11 Z" />
</g>
<g id="#3d3d3dff">
<path fill="#3d3d3d" opacity="1.00" d=" M 601.75 559.75 C 615.77 545.68 629.84 531.66 643.86 517.59 C 646.41 526.52 647.80 535.74 650.63 544.59 C 652.99 552.67 654.20 561.05 656.83 569.06 C 658.96 576.12 660.12 583.44 662.36 590.48 C 665.21 600.45 667.10 610.68 670.07 620.62 C 673.08 632.13 675.96 643.67 679.25 655.10 C 682.80 666.81 684.96 680.05 679.57 691.56 C 674.40 701.79 666.38 710.46 657.02 717.02 C 653.68 719.27 650.72 722.20 646.91 723.66 C 641.10 725.75 635.38 728.72 629.04 728.54 C 622.81 728.36 616.43 729.20 610.36 727.43 C 603.76 725.27 596.85 723.23 591.59 718.48 C 581.69 711.11 574.35 701.14 566.69 691.61 C 557.43 679.17 548.89 666.18 539.15 654.08 C 535.46 649.28 531.29 644.64 525.88 641.73 C 526.01 641.37 526.26 640.64 526.39 640.27 C 525.33 639.67 524.26 639.06 523.21 638.47 C 530.15 630.97 537.66 624.04 544.77 616.72 C 550.97 610.37 557.65 604.45 563.32 597.60 C 570.09 597.97 576.10 594.18 581.25 590.24 C 586.60 585.85 589.57 579.35 591.02 572.72 C 593.02 567.27 597.87 563.80 601.75 559.75 Z" />
</g>
<g id="#fefefeff">
<path fill="#fefefe" opacity="1.00" d=" M 687.79 603.68 C 712.26 579.43 736.37 554.81 761.00 530.72 C 760.97 563.14 761.03 595.56 760.99 627.98 C 759.07 644.07 754.58 659.95 747.29 674.45 C 747.00 674.98 746.40 676.04 746.11 676.56 C 746.03 677.54 745.96 678.53 745.91 679.53 C 745.34 680.47 744.78 681.42 744.24 682.39 C 743.19 684.55 742.14 686.79 740.31 688.41 C 732.07 701.69 722.35 714.26 710.29 724.29 C 703.76 729.87 696.75 734.88 689.46 739.43 C 686.23 742.17 682.38 743.95 678.65 745.88 C 676.45 745.86 674.45 746.73 672.53 747.71 C 671.18 748.33 669.84 748.96 668.59 749.76 C 653.79 755.97 638.03 759.70 622.05 761.01 C 606.93 760.99 591.81 761.00 576.70 761.00 C 587.77 749.66 598.90 738.37 610.36 727.43 C 616.43 729.20 622.81 728.36 629.04 728.54 C 635.38 728.72 641.10 725.75 646.91 723.66 C 650.72 722.20 653.68 719.27 657.02 717.02 C 666.38 710.46 674.40 701.79 679.57 691.56 C 684.96 680.05 682.80 666.81 679.25 655.10 C 675.96 643.67 673.08 632.13 670.07 620.62 C 676.61 615.68 681.87 609.31 687.79 603.68 Z" />
</g>
<g id="#e4e4e4ff">
<path fill="#e4e4e4" opacity="1.00" d=" M 459.48 543.57 C 467.29 537.17 478.62 536.22 487.88 539.75 C 501.15 545.10 508.87 561.27 505.02 575.00 C 503.20 582.33 498.70 589.21 492.07 593.03 C 488.62 594.98 485.12 597.29 481.01 597.43 C 477.36 597.60 473.63 597.82 470.04 597.03 C 461.04 594.07 453.11 587.51 449.62 578.55 C 448.02 572.53 447.01 566.07 448.76 559.96 C 450.04 553.34 454.42 547.81 459.48 543.57 Z" />
</g>
<g id="#a8a8a8ff">
<path fill="#a8a8a8" opacity="1.00" d=" M 126.25 549.21 C 126.59 549.70 127.28 550.67 127.62 551.16 C 126.11 556.86 125.14 562.70 123.33 568.32 C 120.77 576.37 119.42 584.73 116.85 592.77 C 114.31 602.39 112.15 612.11 109.53 621.71 C 108.94 623.93 108.27 626.13 107.69 628.36 C 107.45 627.77 106.99 626.60 106.75 626.02 C 93.25 638.76 80.47 652.27 67.19 665.25 C 58.68 673.88 50.03 682.36 41.53 690.99 L 41.36 691.16 C 38.25 686.68 34.97 682.19 33.21 676.98 C 32.52 672.00 29.13 668.04 27.70 663.31 C 26.46 659.31 24.66 655.42 24.04 651.27 C 58.28 617.42 92.21 583.26 126.25 549.21 Z" />
</g>
<g id="#2e2e2eff">
<path fill="#2e2e2e" opacity="1.00" d=" M 186.51 549.22 C 189.60 552.00 193.33 554.69 197.75 554.04 C 207.50 553.91 217.24 554.05 226.99 554.04 C 227.01 559.43 226.98 564.83 227.02 570.24 C 227.06 573.84 226.97 577.44 226.99 581.04 C 226.82 586.50 229.03 592.08 232.92 595.89 C 240.16 601.17 249.71 598.72 258.02 598.98 C 256.70 599.98 255.46 601.09 254.26 602.24 C 215.07 641.36 176.00 680.60 136.75 719.65 C 135.45 721.05 134.52 722.74 133.63 724.41 L 133.03 724.14 C 126.98 721.21 122.00 716.52 116.60 712.58 C 110.64 708.10 106.40 701.87 102.30 695.75 C 100.37 692.88 99.15 689.61 98.39 686.26 C 94.84 672.42 99.86 658.61 103.32 645.31 C 104.88 639.69 106.41 634.05 107.69 628.36 C 108.27 626.13 108.94 623.93 109.53 621.71 C 109.76 623.10 110.02 624.49 110.30 625.89 C 134.12 602.86 157.16 579.01 180.79 555.77 C 182.89 553.76 184.77 551.54 186.51 549.22 Z" />
</g>
<g id="#b3b3b3ff">
<path fill="#b3b3b3" opacity="1.00" d=" M 67.19 665.25 C 80.47 652.27 93.25 638.76 106.75 626.02 C 106.99 626.60 107.45 627.77 107.69 628.36 C 106.41 634.05 104.88 639.69 103.32 645.31 C 99.86 658.61 94.84 672.42 98.39 686.26 C 97.59 686.01 96.80 685.77 96.00 685.54 C 88.92 692.59 81.81 699.62 74.80 706.75 C 70.95 710.68 66.66 714.23 63.49 718.79 C 55.16 710.39 47.55 701.19 41.53 690.99 C 50.03 682.36 58.68 673.88 67.19 665.25 Z" />
</g>
<g id="#f1f1f1ff">
<path fill="#f1f1f1" opacity="1.00" d=" M 497.09 644.15 C 501.92 642.22 507.06 641.32 512.11 640.16 C 516.76 639.15 521.47 640.25 525.88 641.73 C 531.29 644.64 535.46 649.28 539.15 654.08 C 535.49 656.75 532.33 660.00 529.24 663.29 C 503.36 689.07 477.60 714.96 451.73 740.75 C 445.07 747.50 438.20 754.03 431.76 761.00 C 408.42 761.02 385.08 760.98 361.74 761.00 C 389.31 732.83 417.43 705.20 445.20 677.24 C 454.46 668.28 463.13 658.71 472.84 650.22 C 473.05 650.17 473.48 650.06 473.70 650.00 C 481.55 648.29 489.55 647.01 497.09 644.15 Z" />
</g>
<g id="#d4d4d4ff">
<path fill="#d4d4d4" opacity="1.00" d=" M 243.35 651.35 C 246.97 646.44 252.12 642.36 258.16 641.02 C 265.53 639.98 273.12 641.10 280.06 643.76 C 292.75 648.29 306.17 650.32 319.36 652.82 C 315.95 653.90 313.70 656.80 311.26 659.23 C 284.28 686.25 257.26 713.22 230.29 740.25 C 223.43 747.14 216.38 753.86 209.77 761.00 C 192.86 761.01 175.95 760.98 159.04 761.00 C 155.56 761.09 152.17 760.22 148.72 759.97 C 158.04 750.21 167.77 740.87 177.22 731.25 C 180.86 727.40 185.19 724.14 187.91 719.51 C 196.10 713.21 202.95 705.39 209.18 697.19 C 215.41 689.66 220.89 681.56 226.43 673.53 C 231.96 666.05 237.52 658.59 243.35 651.35 Z" />
</g>
<g id="#e8e8e8ff">
<path fill="#e8e8e8" opacity="1.00" d=" M 416.39 656.75 C 435.30 655.87 454.26 654.10 472.84 650.22 C 463.13 658.71 454.46 668.28 445.20 677.24 C 417.43 705.20 389.31 732.83 361.74 761.00 C 332.06 761.02 302.38 760.97 272.70 760.99 C 305.83 727.34 339.52 694.25 372.73 660.68 C 374.13 659.20 375.85 657.89 378.01 658.08 C 388.66 657.91 399.33 657.93 409.98 657.98 C 412.18 658.03 414.31 657.40 416.39 656.75 Z" />
</g>
<g id="#dededeff">
<path fill="#dedede" opacity="1.00" d=" M 311.26 659.23 C 313.70 656.80 315.95 653.90 319.36 652.82 C 329.22 653.95 339.03 655.82 348.99 655.71 C 356.16 656.90 363.43 655.86 370.63 656.58 C 377.05 657.45 383.54 656.87 389.99 657.02 C 398.79 656.86 407.61 657.34 416.39 656.75 C 414.31 657.40 412.18 658.03 409.98 657.98 C 399.33 657.93 388.66 657.91 378.01 658.08 C 375.85 657.89 374.13 659.20 372.73 660.68 C 339.52 694.25 305.83 727.34 272.70 760.99 C 251.72 761.03 230.74 760.97 209.77 761.00 C 216.38 753.86 223.43 747.14 230.29 740.25 C 257.26 713.22 284.28 686.25 311.26 659.23 Z" />
</g>
<g id="#bdbdbdff">
<path fill="#bdbdbd" opacity="1.00" d=" M 96.00 685.54 C 96.80 685.77 97.59 686.01 98.39 686.26 C 99.15 689.61 100.37 692.88 102.30 695.75 C 106.40 701.87 110.64 708.10 116.60 712.58 C 108.10 721.67 99.09 730.27 90.35 739.12 C 80.58 733.54 71.84 726.29 63.49 718.79 C 66.66 714.23 70.95 710.68 74.80 706.75 C 81.81 699.62 88.92 692.59 96.00 685.54 Z" />
</g>
<g id="#fbfbfbff">
<path fill="#fbfbfb" opacity="1.00" d=" M 561.18 696.22 C 562.84 694.48 564.74 693.01 566.69 691.61 C 574.35 701.14 581.69 711.11 591.59 718.48 C 596.85 723.23 603.76 725.27 610.36 727.43 C 598.90 738.37 587.77 749.66 576.70 761.00 C 550.06 761.00 523.42 761.00 496.78 761.00 C 517.93 739.10 539.88 717.98 561.18 696.22 Z" />
</g>
<g id="#c4c4c4ff">
<path fill="#c4c4c4" opacity="1.00" d=" M 116.60 712.58 C 122.00 716.52 126.98 721.21 133.03 724.14 C 124.30 731.52 116.71 740.13 108.51 748.08 C 105.78 746.78 102.85 746.09 99.99 745.18 C 96.75 743.25 92.83 742.10 90.35 739.12 C 99.09 730.27 108.10 721.67 116.60 712.58 Z" />
</g>
<g id="#ccccccff">
<path fill="#cccccc" opacity="1.00" d=" M 133.63 724.41 C 150.87 732.83 172.34 730.43 187.91 719.51 C 185.19 724.14 180.86 727.40 177.22 731.25 C 167.77 740.87 158.04 750.21 148.72 759.97 C 136.28 758.39 124.22 754.79 112.55 750.29 C 111.10 749.74 109.80 748.92 108.51 748.08 C 116.71 740.13 124.30 731.52 133.03 724.14 L 133.63 724.41 Z" />
</g>
</svg>
